<svg version="1.1" xmlns="http://www.w3.org/2000/svg" xmlns:xlink="http://www.w3.org/1999/xlink" width="192.88878" height="77.06666" viewBox="0,0,192.88878,77.06666"><g transform="translate(-143.55561,-166.42501)"><g data-paper-data="{&quot;isPaintingLayer&quot;:true}" fill-rule="nonzero" stroke-linecap="butt" stroke-linejoin="miter" stroke-miterlimit="10" stroke-dasharray="" stroke-dashoffset="0" style="mix-blend-mode: normal"><path d="M336.44439,166.42501c0,0 0,18.86605 0,23.12126c0,1.62264 -1.47818,3.36207 -3.5718,3.36207c-14.09669,0 -164.04718,0 -186.50824,0c-1.82538,0 -2.80874,-1.73944 -2.80874,-3.36207c0,-4.25522 0,-23.12126 0,-23.12126z" data-paper-data="{&quot;index&quot;:null}" fill-opacity="0.70196" fill="#ff9e42" stroke="none" stroke-width="0"/><text transform="translate(216.5889,184.88198) scale(0.40683,0.40683)" font-size="40" xml:space="preserve" data-paper-data="{&quot;index&quot;:null}" fill="#ffffff" fill-rule="nonzero" stroke="#ffffff" stroke-width="1" stroke-linecap="butt" stroke-linejoin="miter" stroke-miterlimit="10" stroke-dasharray="" stroke-dashoffset="0" font-family="Sans Serif" font-weight="normal" text-anchor="start" style="mix-blend-mode: normal"><tspan x="0" dy="0">特殊关卡</tspan></text><path d="M198.3183,179.57643c0,-4.59715 3.72673,-8.32388 8.32388,-8.32388c4.59715,0 8.32387,3.72673 8.32387,8.32388c0,4.59715 -3.72672,8.32387 -8.32387,8.32387c-4.59715,0 -8.32388,-3.72672 -8.32388,-8.32387z" fill="#ffffff" stroke="none" stroke-width="0.5"/><path d="M206.6871,182.75227v1.24397h-0.41283v-1.24397" fill="none" stroke="#ff9e42" stroke-width="2"/><path d="M206.27426,181.012v-6.20132h0.41283v6.20132" fill="none" stroke="#ff9e42" stroke-width="2"/><path d="M336.44439,205.41665c0,9.4339 0,27.35974 0,32.49131c0,2.69486 -3.47818,5.58371 -5.5718,5.58371c-14.09669,0 -160.04718,0 -182.50824,0c-1.82538,0 -4.80874,-2.88885 -4.80874,-5.58371c0,-5.41867 0,-25.10335 0,-33.99131c0,-2.70371 1.8375,-4.40832 4.36106,-4.40832c14.57624,0 149.03987,0 181.5,0c4.48947,0 7.02772,2.35014 7.02772,5.90832z" data-paper-data="{&quot;index&quot;:null}" fill-opacity="0.70196" fill="#ff9e42" stroke="none" stroke-width="0"/><text transform="translate(161.29846,217.6927) scale(0.35894,0.35894)" font-size="40" xml:space="preserve" data-paper-data="{&quot;index&quot;:null}" fill="#ffffff" fill-rule="nonzero" stroke="#ffffff" stroke-width="1" stroke-linecap="butt" stroke-linejoin="miter" stroke-miterlimit="10" stroke-dasharray="" stroke-dashoffset="0" font-family="Sans Serif" font-weight="normal" text-anchor="start" style="mix-blend-mode: normal"><tspan x="0" dy="0">键位限定使用D F J K打击</tspan><tspan x="0" dy="48px">      流速限定原速打击</tspan></text></g></g></svg>