<svg version="1.1" xmlns="http://www.w3.org/2000/svg" xmlns:xlink="http://www.w3.org/1999/xlink" width="86.22239" height="81.31267" viewBox="0,0,86.22239,81.31267"><defs><radialGradient cx="240.00001" cy="180.00001" r="20.91667" gradientUnits="userSpaceOnUse" id="color-1"><stop offset="0" stop-color="#a9cae1"/><stop offset="1" stop-color="#a9cae1" stop-opacity="0"/></radialGradient></defs><g transform="translate(-196.79646,-132.83833)"><g data-paper-data="{&quot;isPaintingLayer&quot;:true}" fill-rule="nonzero" stroke-linecap="butt" stroke-linejoin="miter" stroke-miterlimit="10" stroke-dasharray="" stroke-dashoffset="0" style="mix-blend-mode: normal"><path d="M217.76572,202.23429v-44.46858h44.46858v44.46858z" fill="none" stroke="#447cb1" stroke-width="2"/><path d="M217.76572,202.23429v-44.46858h44.46858v44.46858z" fill="none" stroke="#447cb1" stroke-width="2"/><path d="M217.49044,202.50958v-45.01914h45.01914v45.01914z" fill="none" stroke="#74a5c1" stroke-width="1.5"/><path d="M239.45754,213.09049l-32.54802,-33.63295l33.63295,-32.54802l32.54802,33.63295z" fill="none" stroke="#94cbff" stroke-width="1.5"/><path d="M219.08334,180.00001c0,-11.55195 9.36471,-20.91667 20.91667,-20.91667c11.55195,0 20.91667,9.36471 20.91667,20.91667c0,11.55195 -9.36471,20.91667 -20.91667,20.91667c-11.55195,0 -20.91667,-9.36471 -20.91667,-20.91667z" fill="url(#color-1)" stroke="none" stroke-width="0.5"/><text transform="translate(226.9372,144.4375) scale(0.26563,0.26563)" font-size="40" xml:space="preserve" fill="#94cbff" fill-rule="nonzero" stroke="#94cbff" stroke-width="2" stroke-linecap="butt" stroke-linejoin="miter" stroke-miterlimit="10" stroke-dasharray="" stroke-dashoffset="0" font-family="Sans Serif" font-weight="normal" text-anchor="start" style="mix-blend-mode: normal"><tspan x="0" dy="0">BLUR</tspan></text><path d="M209.95266,191.33828l-11.74218,-12.1336l12.63671,-12.22908" fill="none" stroke="#94cbff" stroke-width="2"/><path d="M268.96811,168.1549l12.63671,12.22908l-11.74219,12.1336" data-paper-data="{&quot;index&quot;:null}" fill="none" stroke="#94cbff" stroke-width="2"/></g></g></svg>