<svg version="1.1" xmlns="http://www.w3.org/2000/svg" xmlns:xlink="http://www.w3.org/1999/xlink" width="425.88473" height="91.11118" viewBox="0,0,425.88473,91.11118"><g transform="translate(-27.12544,-119.28563)"><g data-paper-data="{&quot;isPaintingLayer&quot;:true}" fill-rule="nonzero" stroke="none" stroke-width="1" stroke-linecap="butt" stroke-linejoin="miter" stroke-miterlimit="10" stroke-dasharray="" stroke-dashoffset="0" style="mix-blend-mode: normal"><g fill="#ffffff" opacity="0.5"><path d="M27.12544,176.95797z"/><path d=""/><path d="M27.21102,183.03776z"/><path d="M425.69395,149.72735l27.31622,27.27341h-121.72418l-27.31622,-27.31623z"/><path d="M395.1666,119.28563l27.31623,27.31623h-121.68137l-27.31622,-27.31623z"/><path d="M452.88177,183.08059l-27.31623,27.31623h-121.68136l27.31622,-27.31623z"/></g><g fill="#17499d"><path d="" opacity="0.75"/><path d="" opacity="0.75"/><path d="" opacity="0.75"/><path d="" opacity="0.75"/><path d="" opacity="0.75"/><path d="" opacity="0.75"/><path d="" opacity="0.75"/><path d="" opacity="0.75"/><path d="" opacity="0.75"/><path d=""/><path d=""/><path d=""/><path d=""/><path d=""/><path d=""/><path d=""/><path d=""/></g><g fill="#17499d"><path d="" opacity="0.75"/><path d="" opacity="0.75"/><path d="" opacity="0.75"/><path d="" opacity="0.75"/><path d=""/><path d=""/><path d=""/><path d=""/><path d=""/><path d=""/><path d=""/></g><g fill="#17499d"><path d="" opacity="0.75"/><path d="" opacity="0.75"/><path d="" opacity="0.75"/><path d="" opacity="0.75"/><path d="" opacity="0.75"/><path d="" opacity="0.75"/><path d="" opacity="0.75"/><path d="" opacity="0.75"/><path d="" opacity="0.75"/><path d=""/><path d=""/><path d=""/><path d=""/><path d=""/><path d=""/><path d=""/></g><g fill="#17499d"><path d="M343.53896,130.30757v-6.63639h3.63931c1.07039,0 1.62699,0.5566 1.62699,1.62699v0.94194c0,1.07039 -0.5566,1.62699 -1.62699,1.62699h-2.69737v2.44048zM344.48091,126.88239h2.61174c0.25689,0 0.42815,-0.04282 0.5566,-0.17126c0.12844,-0.12844 0.17126,-0.29971 0.17126,-0.5566v-0.85631c0,-0.25689 -0.04282,-0.42816 -0.17126,-0.5566c-0.12844,-0.12844 -0.29971,-0.17126 -0.5566,-0.17126h-2.61174z" opacity="0.75"/><path d="M350.08971,123.67125h4.83814v0.94194h-3.8962v1.88388h3.29679v0.94194h-3.29678v1.88387h3.8962v0.94194h-4.83814z" opacity="0.75"/><path d="M361.60707,126.0261c0,0.94194 -0.38534,1.45573 -1.19883,1.58417l1.24165,2.69737h-1.07039l-1.24165,-2.65456h-2.09795v2.65456h-0.94194v-6.63639h3.63931c1.07039,0 1.62699,0.5566 1.62699,1.62699v0.72786zM357.2827,126.71114h2.61174c0.25689,0 0.42815,-0.04282 0.5566,-0.17126c0.12844,-0.12844 0.17127,-0.29971 0.17127,-0.5566v-0.64223c0,-0.25689 -0.04282,-0.42816 -0.17127,-0.5566c-0.12844,-0.12844 -0.29971,-0.17127 -0.5566,-0.17127h-2.61174z" opacity="0.75"/><path d="M363.19124,123.67125h4.83814v0.94194h-3.89621v1.88388h3.29679v0.94194h-3.29679v2.82582h-0.94194z" opacity="0.75"/><path d="M369.47925,123.67125h4.83814v0.94194h-3.89621v1.88388h3.29679v0.94194h-3.29678v1.88387h3.89621v0.94194h-4.83814z" opacity="0.75"/><path d="M376.06363,124.61318c0,-0.12844 0.04281,-0.25689 0.08563,-0.38533c0.04282,-0.12844 0.12845,-0.21408 0.21408,-0.29971c0.08563,-0.08563 0.17126,-0.17126 0.2997,-0.21408c0.12844,-0.04282 0.2569,-0.08563 0.38534,-0.08563h3.5965c0.12844,0 0.25689,0.04281 0.38533,0.08563c0.12844,0.04282 0.21408,0.12845 0.29971,0.21408c0.08563,0.08563 0.17126,0.17126 0.21408,0.29971c0.04281,0.12844 0.08563,0.25689 0.08563,0.38533v0.85631h-0.94194v-0.85631h-3.59649v4.75251h3.59649v-0.85631h0.94194v0.85631c0,0.12844 -0.04282,0.25689 -0.08563,0.38534c-0.04281,0.12844 -0.12844,0.21408 -0.21408,0.29971c-0.08563,0.08563 -0.17127,0.17126 -0.29971,0.21408c-0.12844,0.04281 -0.25689,0.08563 -0.38533,0.08563h-3.5965c-0.12844,0 -0.2569,-0.04281 -0.38534,-0.08563c-0.12844,-0.04281 -0.21407,-0.12844 -0.2997,-0.21408c-0.08563,-0.08563 -0.17127,-0.17127 -0.21408,-0.29971c-0.04282,-0.12844 -0.08563,-0.25689 -0.08563,-0.38534z" opacity="0.75"/><path d="M383.3954,123.67125h5.30911v0.94194h-2.18358v5.69445h-0.94194v-5.69445h-2.18359z" opacity="0.75"/><path d="M389.93207,125.38387h1.3701v1.37009h-1.3701zM389.93207,128.89466h1.3701v1.3701h-1.3701z" opacity="0.75"/></g><g fill="#17499d"><path d="M397.7769,160.7396l-2.48329,-4.88095v4.88096h-0.94194v-6.63639h1.02757l2.52611,5.00941l2.5261,-5.00941h1.02757v6.63639h-0.94194v-4.88095l-2.48329,4.88096z" opacity="0.75"/><path d="M404.11358,154.1032v6.63639h-0.94194v-6.63639z" opacity="0.75"/><path d="M406.76812,157.91373c-0.12844,0 -0.25689,-0.04282 -0.38533,-0.08563c-0.12844,-0.04281 -0.21408,-0.12844 -0.29971,-0.21408c-0.08563,-0.08563 -0.17126,-0.17127 -0.21407,-0.29971c-0.04282,-0.12844 -0.08564,-0.25689 -0.08564,-0.38533v-1.88388c0,-0.12844 0.04282,-0.25689 0.08564,-0.38534c0.04282,-0.12844 0.12844,-0.21407 0.21407,-0.2997c0.08563,-0.08563 0.17127,-0.17127 0.29971,-0.21408c0.12844,-0.04281 0.25689,-0.08563 0.38533,-0.08563h3.21116c0.12844,0 0.25689,0.04281 0.38534,0.08563c0.12844,0.04281 0.21408,0.12845 0.29971,0.21408c0.08563,0.08563 0.17126,0.17126 0.21407,0.2997c0.04282,0.12844 0.08563,0.25689 0.08563,0.38534v0.85631h-0.94194v-0.85631h-3.21116v1.88388h3.21116c0.12844,0 0.25689,0.04282 0.38534,0.08563c0.12844,0.04281 0.21408,0.12844 0.29971,0.21408c0.08563,0.08563 0.17126,0.17127 0.21407,0.29971c0.04282,0.12844 0.08563,0.25689 0.08563,0.38533v1.88388c0,0.12844 -0.04281,0.2569 -0.08563,0.38534c-0.04282,0.12844 -0.12844,0.21407 -0.21407,0.2997c-0.08563,0.08563 -0.17127,0.17127 -0.29971,0.21408c-0.12844,0.04281 -0.25689,0.08563 -0.38534,0.08563h-3.29678c-0.12844,0 -0.2569,-0.04281 -0.38534,-0.08563c-0.12844,-0.04281 -0.21407,-0.12845 -0.2997,-0.21408c-0.08563,-0.08563 -0.17127,-0.17126 -0.21408,-0.2997c-0.04282,-0.12844 -0.08563,-0.2569 -0.08563,-0.38534v-0.85631h0.94194v0.85631h3.29679v-1.88388z" opacity="0.75"/><path d="M413.61855,157.91373c-0.12844,0 -0.25689,-0.04282 -0.38534,-0.08563c-0.12844,-0.04281 -0.21407,-0.12844 -0.2997,-0.21408c-0.08563,-0.08563 -0.17127,-0.17127 -0.21408,-0.29971c-0.04282,-0.12844 -0.08563,-0.25689 -0.08563,-0.38533v-1.88388c0,-0.12844 0.04281,-0.25689 0.08563,-0.38534c0.04282,-0.12844 0.12845,-0.21407 0.21408,-0.2997c0.08563,-0.08563 0.17126,-0.17127 0.2997,-0.21408c0.12844,-0.04281 0.25689,-0.08563 0.38534,-0.08563h3.21116c0.12844,0 0.25689,0.04281 0.38534,0.08563c0.12844,0.04281 0.21408,0.12845 0.29971,0.21408c0.08563,0.08563 0.17127,0.17126 0.21408,0.2997c0.04282,0.12844 0.08563,0.25689 0.08563,0.38534v0.85631h-0.94194v-0.85631h-3.21116v1.88388h3.21116c0.12844,0 0.25689,0.04282 0.38534,0.08563c0.12844,0.04281 0.21408,0.12844 0.29971,0.21408c0.08563,0.08563 0.17126,0.17127 0.21408,0.29971c0.04282,0.12844 0.08563,0.25689 0.08563,0.38533v1.88388c0,0.12844 -0.04282,0.2569 -0.08563,0.38534c-0.04282,0.12844 -0.12845,0.21407 -0.21408,0.2997c-0.08563,0.08563 -0.17126,0.17127 -0.29971,0.21408c-0.12844,0.04281 -0.25689,0.08563 -0.38534,0.08563h-3.38242c-0.12844,0 -0.25689,-0.04281 -0.38534,-0.08563c-0.12844,-0.04281 -0.21408,-0.12845 -0.29971,-0.21408c-0.08563,-0.08563 -0.17126,-0.17126 -0.21408,-0.2997c-0.04282,-0.12844 -0.08563,-0.2569 -0.08563,-0.38534v-0.85631h0.94194v0.85631h3.29679v-1.88388z" opacity="0.75"/><path d="M420.21212,157.27154c0,0.25689 -0.17126,0.42816 -0.42815,0.42816c-0.25689,0 -0.42816,-0.17127 -0.42816,-0.42816c0,-0.25689 0.17127,-0.42816 0.42816,-0.42816c0.25689,0 0.42815,0.21408 0.42815,0.42816zM419.35587,160.43988c0,-0.25689 0.17127,-0.42816 0.42816,-0.42816c0.25689,0 0.42815,0.21408 0.42815,0.42816c0,0.25689 -0.17126,0.42816 -0.42815,0.42816c-0.25689,-0.04281 -0.42816,-0.21408 -0.42816,-0.42816z" opacity="0.75"/></g><g fill="#17499d"><path d="M418.70901,186.8525l2.56893,6.63638h-0.94194l-0.59941,-1.54135h-2.99708l-0.59942,1.54135h-0.94194l2.56892,-6.63638zM417.08203,191.00562h2.26922l-1.1132,-2.91145z" opacity="0.75"/><path d="M436.77982,189.39584c0,0.25689 -0.17127,0.42816 -0.42816,0.42816c-0.25689,0 -0.42815,-0.17127 -0.42815,-0.42816c0,-0.25689 0.17126,-0.42816 0.42815,-0.42816c0.25689,0 0.42816,0.21408 0.42816,0.42816zM435.9235,192.52138c0,-0.25689 0.17126,-0.42816 0.42815,-0.42816c0.25689,0 0.42816,0.21408 0.42816,0.42816c0,0.25689 -0.17127,0.42816 -0.42816,0.42816c-0.25689,0 -0.42815,-0.17127 -0.42815,-0.42816z" opacity="0.75"/><path d="M429.19175,187.82148c0,-0.12844 0.04281,-0.25689 0.08563,-0.38533c0.04282,-0.12844 0.12845,-0.21408 0.21408,-0.29971c0.08563,-0.08563 0.17126,-0.17126 0.2997,-0.21408c0.12844,-0.04282 0.2569,-0.08563 0.38534,-0.08563h3.5965c0.12844,0 0.25689,0.04281 0.38533,0.08563c0.12844,0.04282 0.21408,0.12845 0.29971,0.21408c0.08563,0.08563 0.17126,0.17126 0.21408,0.29971c0.04281,0.12844 0.08563,0.25689 0.08563,0.38533v0.85631h-0.94194v-0.85631h-3.59649v4.75251h3.59649v-0.85631h0.94194v0.85631c0,0.12844 -0.04282,0.25689 -0.08563,0.38534c-0.04281,0.12844 -0.12844,0.21408 -0.21408,0.29971c-0.08563,0.08563 -0.17127,0.17126 -0.29971,0.21408c-0.12844,0.04281 -0.25689,0.08563 -0.38533,0.08563h-3.5965c-0.12844,0 -0.2569,-0.04281 -0.38534,-0.08563c-0.12844,-0.04281 -0.21407,-0.12844 -0.2997,-0.21408c-0.08563,-0.08563 -0.17127,-0.17127 -0.21408,-0.29971c-0.04282,-0.12844 -0.08563,-0.25689 -0.08563,-0.38534z" opacity="0.75"/><path d="M422.36675,187.82148c0,-0.12844 0.04281,-0.25689 0.08563,-0.38533c0.04282,-0.12844 0.12845,-0.21408 0.21408,-0.29971c0.08563,-0.08563 0.17126,-0.17126 0.2997,-0.21408c0.12844,-0.04282 0.2569,-0.08563 0.38534,-0.08563h3.5965c0.12844,0 0.25689,0.04281 0.38533,0.08563c0.12844,0.04282 0.21408,0.12845 0.29971,0.21408c0.08563,0.08563 0.17126,0.17126 0.21408,0.29971c0.04281,0.12844 0.08563,0.25689 0.08563,0.38533v0.85631h-0.94194v-0.85631h-3.59649v4.75251h3.59649v-0.85631h0.94194v0.85631c0,0.12844 -0.04282,0.25689 -0.08563,0.38534c-0.04281,0.12844 -0.12844,0.21408 -0.21408,0.29971c-0.08563,0.08563 -0.17127,0.17126 -0.29971,0.21408c-0.12844,0.04281 -0.25689,0.08563 -0.38533,0.08563h-3.5965c-0.12844,0 -0.2569,-0.04281 -0.38534,-0.08563c-0.12844,-0.04281 -0.21407,-0.12844 -0.2997,-0.21408c-0.08563,-0.08563 -0.17127,-0.17127 -0.21408,-0.29971c-0.04282,-0.12844 -0.08563,-0.25689 -0.08563,-0.38534z" opacity="0.75"/></g></g></g></svg>