<svg version="1.1" xmlns="http://www.w3.org/2000/svg" xmlns:xlink="http://www.w3.org/1999/xlink" width="32.875" height="32.42466" viewBox="0,0,32.875,32.42466"><g transform="translate(-223.5625,-163.78767)"><g data-paper-data="{&quot;isPaintingLayer&quot;:true}" fill-rule="nonzero" stroke="none" stroke-linecap="butt" stroke-linejoin="miter" stroke-miterlimit="10" stroke-dasharray="" stroke-dashoffset="0" style="mix-blend-mode: normal"><path d="M236.85,172.74375l2.7,5.9625c0.1125,0.225 0.225,0.45 0.225,0.5625c0.1125,0.225 0.1125,0.3375 0.1125,0.5625c0,0.225 0.1125,0.3375 0.1125,0.5625h0.1125c0,-0.225 0.1125,-0.3375 0.1125,-0.5625c0,-0.1125 0.1125,-0.3375 0.1125,-0.5625c0.1125,-0.225 0.1125,-0.45 0.225,-0.5625l2.5875,-5.9625h2.3625l-4.3875,9.45v5.0625h-2.25v-5.0625l-4.3875,-9.45z" fill="#ffffff" stroke-width="1"/><path d="M223.5625,196.21233v-32.42466h32.875v32.42466z" fill="none" stroke-width="0"/></g></g></svg>