<svg version="1.1" xmlns="http://www.w3.org/2000/svg" xmlns:xlink="http://www.w3.org/1999/xlink" width="466.9875" height="18" viewBox="0,0,466.9875,18"><g transform="translate(-39,-173.2)"><g data-paper-data="{&quot;isPaintingLayer&quot;:true}" fill="#ffffff" fill-rule="nonzero" stroke="none" stroke-width="1" stroke-linecap="butt" stroke-linejoin="miter" stroke-miterlimit="10" stroke-dasharray="" stroke-dashoffset="0" style="mix-blend-mode: normal"><path d="M42.7125,173.425h3.0375l3.825,14.5125h-2.25l-0.9,-3.825h-4.275l-0.9,3.825h-2.25zM45.8625,182.3125l-1.35,-5.4c-0.1125,-0.225 -0.1125,-0.45 -0.1125,-0.7875c0,-0.225 -0.1125,-0.45 -0.1125,-0.675c0,-0.225 0,-0.45 -0.1125,-0.5625h-0.1125c0,0.225 -0.1125,0.3375 -0.1125,0.5625c0,0.225 -0.1125,0.45 -0.1125,0.675c0,0.225 -0.1125,0.45 -0.225,0.7875l-1.35,5.4z"/><path d="M51.825,173.425h4.3875c1.4625,0 2.475,0.3375 3.375,1.0125c0.7875,0.675 1.2375,1.575 1.2375,2.8125c0,0.9 -0.225,1.575 -0.7875,2.1375c-0.45,0.5625 -1.125,0.9 -2.025,0.9v0.1125c0.9,0.1125 1.6875,0.45 2.1375,1.0125c0.5625,0.5625 0.7875,1.35 0.7875,2.3625c0,1.2375 -0.45,2.25 -1.2375,3.0375c-0.7875,0.7875 -1.9125,1.125 -3.375,1.125h-4.6125v-14.5125zM56.2125,179.5c0.675,0 1.2375,-0.225 1.6875,-0.5625c0.45,-0.3375 0.675,-0.9 0.675,-1.575c0,-0.675 -0.225,-1.125 -0.5625,-1.575c-0.45,-0.3375 -1.0125,-0.5625 -1.6875,-0.5625h-2.25v4.1625h2.1375zM53.9625,181.4125v4.6125h2.25c0.7875,0 1.35,-0.225 1.8,-0.5625c0.45,-0.45 0.675,-1.0125 0.675,-1.6875c0,-0.675 -0.225,-1.2375 -0.675,-1.6875c-0.45,-0.45 -1.0125,-0.5625 -1.8,-0.5625h-2.25z"/><path d="M68.3625,188.05c-0.675,0 -1.35,-0.1125 -1.9125,-0.3375c-0.5625,-0.225 -1.0125,-0.45 -1.4625,-0.9c-0.45,-0.3375 -0.675,-0.7875 -0.9,-1.35c-0.225,-0.5625 -0.3375,-1.125 -0.3375,-1.8v-6.075c0,-0.675 0.1125,-1.2375 0.3375,-1.8c0.225,-0.5625 0.5625,-1.0125 0.9,-1.35c0.45,-0.3375 0.9,-0.675 1.4625,-0.9c0.5625,-0.225 1.2375,-0.3375 1.9125,-0.3375c1.35,0 2.3625,0.3375 3.2625,1.125c0.7875,0.7875 1.2375,1.6875 1.35,3.0375h-2.25c-0.1125,-0.675 -0.3375,-1.2375 -0.7875,-1.575c-0.45,-0.3375 -1.0125,-0.5625 -1.6875,-0.5625c-0.7875,0 -1.35,0.225 -1.8,0.675c-0.45,0.45 -0.675,1.0125 -0.675,1.8v6.075c0,0.7875 0.225,1.35 0.675,1.8c0.45,0.45 1.0125,0.675 1.8,0.675c0.675,0 1.2375,-0.225 1.6875,-0.5625c0.45,-0.3375 0.675,-0.9 0.7875,-1.575h2.25c0,0.675 -0.225,1.2375 -0.45,1.6875c-0.225,0.5625 -0.5625,0.9 -0.9,1.35c-0.45,0.3375 -0.9,0.675 -1.4625,0.7875c-0.5625,0.1125 -1.125,0.1125 -1.8,0.1125z"/><path d="M75.9,173.425h4.275c0.675,0 1.35,0.1125 1.9125,0.3375c0.5625,0.225 1.125,0.5625 1.4625,0.9c0.45,0.45 0.7875,0.9 1.0125,1.4625c0.225,0.5625 0.3375,1.125 0.3375,1.8v5.4c0,0.675 -0.1125,1.35 -0.3375,1.9125c-0.225,0.5625 -0.5625,1.0125 -1.0125,1.4625c-0.45,0.45 -0.9,0.675 -1.4625,0.9c-0.5625,0.225 -1.2375,0.3375 -1.9125,0.3375h-4.275zM78.0375,185.9125h2.025c0.7875,0 1.35,-0.225 1.8,-0.675c0.45,-0.45 0.675,-1.0125 0.675,-1.8v-5.4c0,-0.7875 -0.225,-1.35 -0.675,-1.8c-0.45,-0.45 -1.125,-0.675 -1.8,-0.675h-2.025z"/><path d="M88.1625,187.825v-14.5125h8.775v1.9125h-6.525v4.05h5.85v1.9125h-5.85v4.5h6.525v1.9125h-8.775z"/><path d="M100.0875,173.425h8.8875v2.025h-6.75v4.1625h6.1875v2.025h-6.1875v6.3h-2.25v-14.5125z"/><path d="M111.7875,183.6625v-6.075c0,-0.675 0.1125,-1.2375 0.3375,-1.8c0.225,-0.5625 0.5625,-1.0125 0.9,-1.35c0.45,-0.3375 0.9,-0.675 1.4625,-0.9c0.5625,-0.225 1.2375,-0.3375 1.9125,-0.3375c1.35,0 2.3625,0.3375 3.15,1.0125c0.7875,0.675 1.35,1.575 1.575,2.8125h-2.25c-0.1125,-0.5625 -0.3375,-1.0125 -0.7875,-1.35c-0.45,-0.3375 -1.0125,-0.45 -1.6875,-0.45c-0.7875,0 -1.35,0.225 -1.8,0.675c-0.45,0.45 -0.675,1.0125 -0.675,1.6875v6.075c0,0.7875 0.225,1.35 0.675,1.8c0.45,0.45 1.0125,0.675 1.8,0.675c0.7875,0 1.35,-0.225 1.8,-0.675c0.45,-0.45 0.675,-1.0125 0.675,-1.8v-1.575h-2.7v-1.9125h4.95v3.4875c0,0.675 -0.1125,1.2375 -0.3375,1.8c-0.225,0.5625 -0.5625,1.0125 -0.9,1.35c-0.45,0.3375 -0.9,0.675 -1.4625,0.9c-0.5625,0.225 -1.2375,0.3375 -1.9125,0.3375c-0.675,0 -1.35,-0.1125 -1.9125,-0.3375c-0.5625,-0.225 -1.0125,-0.45 -1.4625,-0.9c-0.45,-0.3375 -0.675,-0.7875 -0.9,-1.35c-0.3375,-0.5625 -0.45,-1.125 -0.45,-1.8z"/><path d="M124.05,187.825v-14.5125h2.25v5.9625h4.3875v-5.9625h2.25v14.5125h-2.25v-6.525h-4.3875v6.525z"/><path d="M136.3125,175.3375v-1.9125h8.55v1.9125h-3.15v10.575h3.15v1.9125h-8.55v-1.9125h3.15v-10.575z"/><path d="M149.475,184.1125c0.1125,0.5625 0.3375,1.125 0.7875,1.4625c0.45,0.3375 1.0125,0.5625 1.6875,0.5625c0.7875,0 1.35,-0.225 1.9125,-0.675c0.45,-0.45 0.675,-1.0125 0.675,-1.8v-8.325h-5.4v-2.025h7.5375v10.2375c0,0.675 -0.1125,1.35 -0.3375,1.8c-0.225,0.5625 -0.5625,1.0125 -0.9,1.35c-0.45,0.3375 -0.9,0.675 -1.4625,0.9c-0.5625,0.225 -1.2375,0.3375 -2.025,0.3375c-1.35,0 -2.3625,-0.3375 -3.15,-1.0125c-0.7875,-0.675 -1.35,-1.6875 -1.4625,-2.925h2.1375z"/><path d="M162.4125,173.425v5.9625h2.025l3.0375,-5.9625h2.475l-3.6,6.8625l3.7125,7.5375h-2.475l-3.15,-6.525h-2.025v6.525h-2.25v-14.5125h2.25z"/><path d="M174.9,173.425v12.375h6.525v2.025h-8.775v-14.5125h2.25z"/><path d="M186.6,173.425l1.575,4.725c0.1125,0.225 0.1125,0.45 0.225,0.675c0.1125,0.225 0.1125,0.45 0.1125,0.675c0,0.225 0.1125,0.45 0.1125,0.675h0.1125c0,-0.225 0.1125,-0.45 0.1125,-0.675c0,-0.225 0.1125,-0.45 0.1125,-0.675c0,-0.225 0.1125,-0.45 0.225,-0.675l1.4625,-4.725h2.7v14.5125h-2.025v-9.675c0,-0.3375 0,-0.675 0,-1.125c0,-0.3375 0,-0.675 0.1125,-1.0125c0,-0.3375 0.1125,-0.675 0.1125,-1.0125h-0.225c-0.1125,0.3375 -0.1125,0.675 -0.225,0.9c-0.1125,0.225 -0.1125,0.5625 -0.225,0.9c-0.1125,0.3375 -0.225,0.675 -0.3375,1.0125l-1.125,3.6h-1.6875l-1.125,-3.6c-0.1125,-0.3375 -0.225,-0.675 -0.3375,-1.0125c-0.1125,-0.3375 -0.225,-0.675 -0.225,-0.9c-0.1125,-0.3375 -0.1125,-0.675 -0.225,-0.9h-0.225c0,0.3375 0.1125,0.675 0.1125,1.0125c0,0.3375 0,0.675 0.1125,1.0125c0,0.3375 0,0.675 0,1.125v9.675h-2.025v-14.5125z"/><path d="M198.975,173.425l3.6,9.675c0.1125,0.225 0.225,0.45 0.225,0.7875c0.1125,0.3375 0.1125,0.5625 0.225,0.7875c0.1125,0.3375 0.1125,0.675 0.225,1.0125h0.225c0,-0.3375 -0.1125,-0.675 -0.1125,-0.9c0,-0.225 -0.1125,-0.5625 -0.1125,-0.9c0,-0.3375 0,-0.675 0,-1.0125v-9.3375h2.025v14.5125h-2.7l-3.6,-9.675c-0.1125,-0.225 -0.225,-0.5625 -0.225,-0.9c-0.1125,-0.3375 -0.1125,-0.5625 -0.225,-0.9c-0.1125,-0.3375 -0.1125,-0.5625 -0.225,-0.9h-0.225c0,0.225 0.1125,0.5625 0.1125,0.9c0,0.225 0,0.5625 0.1125,0.9c0,0.3375 0,0.675 0,1.125v9.3375h-2.025v-14.5125z"/><path d="M212.8125,188.05c-0.675,0 -1.35,-0.1125 -1.9125,-0.3375c-0.5625,-0.225 -1.0125,-0.45 -1.4625,-0.9c-0.45,-0.3375 -0.675,-0.7875 -0.9,-1.35c-0.225,-0.5625 -0.3375,-1.125 -0.3375,-1.8v-6.075c0,-0.675 0.1125,-1.2375 0.3375,-1.8c0.225,-0.5625 0.5625,-1.0125 0.9,-1.35c0.45,-0.3375 0.9,-0.675 1.4625,-0.9c0.5625,-0.225 1.2375,-0.3375 1.9125,-0.3375c0.675,0 1.35,0.1125 1.9125,0.3375c0.5625,0.225 1.0125,0.45 1.4625,0.9c0.45,0.3375 0.675,0.7875 0.9,1.35c0.225,0.5625 0.3375,1.125 0.3375,1.8v6.075c0,0.675 -0.1125,1.2375 -0.3375,1.8c-0.225,0.5625 -0.5625,1.0125 -0.9,1.35c-0.45,0.3375 -0.9,0.675 -1.4625,0.9c-0.5625,0.225 -1.2375,0.3375 -1.9125,0.3375zM210.3375,183.6625c0,0.7875 0.225,1.35 0.675,1.8c0.45,0.45 1.0125,0.675 1.8,0.675c0.7875,0 1.35,-0.225 1.8,-0.675c0.45,-0.45 0.675,-1.0125 0.675,-1.8v-6.075c0,-0.7875 -0.225,-1.35 -0.675,-1.8c-0.45,-0.45 -1.0125,-0.675 -1.8,-0.675c-0.7875,0 -1.35,0.225 -1.8,0.675c-0.45,0.45 -0.675,1.0125 -0.675,1.8z"/><path d="M225.4125,173.425c0.675,0 1.35,0.1125 1.9125,0.3375c0.5625,0.225 1.0125,0.45 1.4625,0.9c0.45,0.3375 0.675,0.7875 0.9,1.35c0.225,0.5625 0.3375,1.125 0.3375,1.8c0,0.675 -0.1125,1.2375 -0.3375,1.8c-0.225,0.5625 -0.5625,1.0125 -0.9,1.35c-0.45,0.3375 -0.9,0.675 -1.4625,0.9c-0.5625,0.225 -1.2375,0.3375 -1.9125,0.3375h-2.7v5.85h-2.25v-14.5125h4.95zM222.7125,180.175h2.7c0.675,0 1.35,-0.225 1.6875,-0.675c0.45,-0.45 0.675,-1.0125 0.675,-1.8c0,-0.675 -0.225,-1.35 -0.675,-1.8c-0.45,-0.45 -1.0125,-0.675 -1.6875,-0.675h-2.7z"/><path d="M232.275,183.6625v-6.075c0,-0.675 0.1125,-1.2375 0.3375,-1.8c0.225,-0.5625 0.5625,-1.0125 0.9,-1.35c0.45,-0.3375 0.9,-0.675 1.4625,-0.9c0.5625,-0.225 1.2375,-0.3375 1.9125,-0.3375c0.675,0 1.35,0.1125 1.9125,0.3375c0.5625,0.225 1.0125,0.45 1.4625,0.9c0.45,0.3375 0.675,0.7875 0.9,1.35c0.225,0.5625 0.3375,1.125 0.3375,1.8v6.075c0,0.9 -0.225,1.6875 -0.5625,2.3625c-0.45,0.675 -1.0125,1.125 -1.6875,1.575l2.3625,3.6h-2.3625l-2.025,-3.15h-0.225c-0.675,0 -1.35,-0.1125 -1.9125,-0.3375c-0.5625,-0.225 -1.0125,-0.45 -1.4625,-0.9c-0.45,-0.3375 -0.675,-0.7875 -0.9,-1.35c-0.3375,-0.5625 -0.45,-1.125 -0.45,-1.8zM236.8875,186.1375c0.7875,0 1.35,-0.225 1.8,-0.675c0.45,-0.45 0.675,-1.0125 0.675,-1.8v-6.075c0,-0.7875 -0.225,-1.35 -0.675,-1.8c-0.45,-0.45 -1.0125,-0.675 -1.8,-0.675c-0.7875,0 -1.35,0.225 -1.8,0.675c-0.45,0.45 -0.675,1.0125 -0.675,1.8v6.075c0,0.7875 0.225,1.35 0.675,1.8c0.45,0.45 1.125,0.675 1.8,0.675z"/><path d="M249.2625,173.425c0.675,0 1.35,0.1125 1.9125,0.3375c0.5625,0.225 1.0125,0.45 1.4625,0.9c0.45,0.3375 0.675,0.7875 0.9,1.35c0.225,0.5625 0.3375,1.125 0.3375,1.8c0,1.0125 -0.225,1.8 -0.7875,2.475c-0.5625,0.675 -1.125,1.2375 -2.025,1.4625l2.925,6.1875h-2.3625l-2.7,-5.85h-2.1375v5.85h-2.1375v-14.5125zM246.7875,180.175h2.475c0.675,0 1.35,-0.225 1.6875,-0.675c0.45,-0.45 0.675,-1.0125 0.675,-1.6875c0,-0.7875 -0.225,-1.35 -0.675,-1.8c-0.45,-0.45 -1.0125,-0.675 -1.6875,-0.675h-2.475z"/><path d="M256.2375,184.1125h2.25c0,0.675 0.225,1.125 0.675,1.4625c0.45,0.3375 1.0125,0.5625 1.8,0.5625c0.7875,0 1.4625,-0.225 1.9125,-0.5625c0.45,-0.3375 0.675,-0.7875 0.675,-1.4625c0,-0.5625 -0.1125,-1.0125 -0.45,-1.35c-0.3375,-0.45 -0.7875,-0.675 -1.35,-0.9l-1.6875,-0.5625c-1.125,-0.3375 -2.025,-0.9 -2.7,-1.575c-0.5625,-0.675 -0.9,-1.575 -0.9,-2.5875c0,-0.5625 0.1125,-1.125 0.3375,-1.575c0.225,-0.45 0.5625,-0.9 0.9,-1.2375c0.45,-0.3375 0.9,-0.5625 1.4625,-0.7875c0.5625,-0.225 1.125,-0.225 1.9125,-0.225c0.675,0 1.2375,0.1125 1.8,0.225c0.5625,0.225 1.0125,0.45 1.4625,0.7875c0.3375,0.3375 0.675,0.7875 0.9,1.2375c0.225,0.45 0.3375,1.0125 0.3375,1.575h-2.25c0,-0.5625 -0.225,-1.125 -0.675,-1.4625c-0.45,-0.3375 -1.0125,-0.5625 -1.6875,-0.5625c-0.675,0 -1.2375,0.225 -1.6875,0.5625c-0.45,0.3375 -0.5625,0.7875 -0.5625,1.4625c0,0.45 0.1125,0.9 0.45,1.2375c0.3375,0.3375 0.7875,0.675 1.4625,0.7875l1.6875,0.5625c1.125,0.3375 1.9125,0.9 2.5875,1.575c0.5625,0.7875 0.9,1.6875 0.9,2.7c0,0.5625 -0.1125,1.125 -0.3375,1.6875c-0.225,0.45 -0.5625,0.9 -0.9,1.2375c-0.45,0.3375 -0.9,0.675 -1.4625,0.7875c-0.5625,0.225 -1.2375,0.3375 -2.025,0.3375c-0.675,0 -1.35,-0.1125 -1.9125,-0.225c-0.5625,-0.1125 -1.125,-0.45 -1.4625,-0.7875c-0.45,-0.3375 -0.7875,-0.7875 -1.0125,-1.2375c-0.3375,-0.5625 -0.45,-1.125 -0.45,-1.6875z"/><path d="M267.9375,175.45v-2.025h10.35v2.025h-4.05v12.4875h-2.25v-12.4875z"/><path d="M285.15,188.05c-1.4625,0 -2.475,-0.3375 -3.2625,-1.125c-0.7875,-0.7875 -1.125,-1.8 -1.125,-3.15v-10.35h2.25v10.35c0,0.7875 0.225,1.35 0.5625,1.8c0.3375,0.45 0.9,0.675 1.6875,0.675c0.675,0 1.2375,-0.225 1.6875,-0.675c0.45,-0.45 0.5625,-1.0125 0.5625,-1.8v-10.35h2.1375v10.35c0,1.35 -0.3375,2.3625 -1.125,3.15c-0.9,0.7875 -2.025,1.125 -3.375,1.125z"/><path d="M291.7875,173.425h2.25l2.7,11.025c0.1125,0.225 0.1125,0.45 0.1125,0.7875c0,0.225 0.1125,0.45 0.1125,0.675c0,0.225 0,0.45 0.1125,0.5625h0.1125c0,-0.225 0.1125,-0.3375 0.1125,-0.5625c0.1125,-0.45 0.1125,-0.9 0.225,-1.35l2.7,-11.025h2.25l-3.9375,14.5125h-3.0375z"/><path d="M303.6,173.425h1.9125l0.9,10.2375c0,0.225 0,0.5625 0.1125,0.9c0,0.3375 0,0.675 0,0.9c0,0.3375 0,0.675 0,1.0125h0.225c0,-0.3375 0,-0.675 0,-1.0125c0,-0.225 0,-0.5625 0.1125,-0.9c0,-0.3375 0,-0.675 0.1125,-0.9l1.2375,-10.2375h1.9125l1.2375,10.2375c0,0.225 0,0.5625 0.1125,0.9c0,0.3375 0,0.675 0.1125,0.9c0,0.3375 0,0.675 0.1125,1.0125h0.225c0,-0.3375 0,-0.675 0,-1.0125c0,-0.225 0,-0.5625 0,-0.9c0,-0.3375 0,-0.675 0.1125,-0.9l0.7875,-10.2375h1.9125l-1.4625,14.5125h-2.7l-1.125,-10.2375c0,-0.3375 -0.1125,-0.675 -0.1125,-1.0125c0,-0.3375 0,-0.675 0,-0.9c0,-0.3375 0,-0.675 0,-0.9h-0.3375c0,0.225 0,0.5625 0,0.9c0,0.225 0,0.5625 0,0.9c0,0.3375 0,0.675 -0.1125,1.0125l-1.2375,10.2375h-2.7z"/><path d="M320.025,180.5125l-3.9375,-7.0875h2.475l2.025,3.825c0.1125,0.225 0.225,0.3375 0.225,0.45c0.1125,0.1125 0.1125,0.3375 0.225,0.45c0,0.1125 0.1125,0.225 0.1125,0.3375h0.1125c0,-0.1125 0.1125,-0.225 0.1125,-0.3375c0,-0.1125 0.1125,-0.225 0.225,-0.3375c0.1125,-0.1125 0.1125,-0.3375 0.225,-0.45l2.1375,-3.825h2.3625l-3.9375,6.975l4.1625,7.5375h-2.475l-2.25,-4.275c-0.1125,-0.225 -0.225,-0.3375 -0.225,-0.5625c0,-0.225 -0.1125,-0.3375 -0.225,-0.45c-0.1125,-0.1125 -0.1125,-0.225 -0.1125,-0.3375h-0.1125c0,0.1125 -0.1125,0.225 -0.1125,0.3375c0,0.1125 -0.1125,0.225 -0.225,0.45c-0.1125,0.1125 -0.1125,0.3375 -0.225,0.45l-2.25,4.275h-2.475z"/><path d="M330.15,173.425l2.7,5.9625c0.1125,0.225 0.225,0.45 0.225,0.5625c0.1125,0.225 0.1125,0.3375 0.1125,0.5625c0,0.225 0.1125,0.3375 0.1125,0.5625h0.1125c0,-0.225 0.1125,-0.3375 0.1125,-0.5625c0,-0.1125 0.1125,-0.3375 0.1125,-0.5625c0.1125,-0.225 0.1125,-0.45 0.225,-0.5625l2.5875,-5.9625h2.3625l-4.3875,9.45v5.0625h-2.25v-5.0625l-4.3875,-9.45z"/><path d="M349.5,173.425v2.025l-6.1875,10.4625v0l1.35,-0.1125h5.0625v2.025h-8.775v-2.025l6.1875,-10.4625v0l-1.4625,0.1125h-4.6125v-2.025z"/><path d="M353.1,185.9125h3.825v-9.225c0,-0.3375 0,-0.675 0,-0.9c0,-0.225 0,-0.45 0,-0.45v0c-0.1125,0.1125 -0.1125,0.1125 -0.225,0.225c-0.1125,0.1125 -0.1125,0.1125 -0.225,0.225c-0.1125,0.1125 -0.225,0.1125 -0.3375,0.225l-2.8125,1.9125v-2.1375l3.2625,-2.25h2.5875v12.4875h3.15v1.9125h-9.225z"/><path d="M364.575,177.3625c0,-0.675 0.1125,-1.2375 0.3375,-1.6875c0.225,-0.5625 0.5625,-0.9 1.0125,-1.35c0.45,-0.3375 0.9,-0.675 1.4625,-0.7875c0.5625,-0.225 1.2375,-0.3375 1.9125,-0.3375c0.675,0 1.35,0.1125 1.9125,0.3375c0.5625,0.225 1.0125,0.45 1.4625,0.7875c0.45,0.3375 0.675,0.7875 0.9,1.35c0.225,0.5625 0.3375,1.125 0.3375,1.6875c0,1.0125 -0.225,2.025 -0.7875,3.0375c-0.5625,0.9 -1.4625,1.9125 -2.7,3.0375l-2.25,1.9125c-0.1125,0.1125 -0.225,0.225 -0.3375,0.225c-0.1125,0.1125 -0.225,0.1125 -0.3375,0.225c-0.1125,0.1125 -0.225,0.1125 -0.3375,0.225v0.1125c0.225,0 0.45,0 0.5625,0c0.225,0 0.3375,0 0.5625,0c0.225,0 0.45,0 0.5625,0h5.175v2.025h-9.45v-2.3625l4.275,-3.6c0.45,-0.45 0.9,-0.7875 1.2375,-1.2375c0.3375,-0.3375 0.675,-0.7875 0.9,-1.125c0.225,-0.3375 0.3375,-0.675 0.45,-1.125c0.1125,-0.3375 0.1125,-0.7875 0.1125,-1.125c0,-0.675 -0.225,-1.2375 -0.675,-1.6875c-0.45,-0.45 -1.0125,-0.5625 -1.6875,-0.5625c-0.7875,0 -1.35,0.225 -1.8,0.5625c-0.45,0.45 -0.675,0.9 -0.675,1.575h-2.1375z"/><path d="M381.45,188.05c-0.675,0 -1.2375,-0.1125 -1.8,-0.225c-0.5625,-0.225 -1.0125,-0.45 -1.4625,-0.7875c-0.45,-0.3375 -0.7875,-0.7875 -1.0125,-1.2375c-0.225,-0.45 -0.45,-1.0125 -0.45,-1.575h2.25c0.1125,0.5625 0.3375,1.125 0.7875,1.4625c0.45,0.3375 1.0125,0.5625 1.6875,0.5625c0.7875,0 1.35,-0.225 1.9125,-0.675c0.45,-0.45 0.675,-1.125 0.675,-1.9125c0,-0.7875 -0.225,-1.35 -0.675,-1.9125c-0.45,-0.45 -1.125,-0.675 -1.9125,-0.675h-1.6875v-2.1375l2.5875,-2.475c0.1125,-0.1125 0.3375,-0.225 0.45,-0.45c0.1125,-0.1125 0.3375,-0.225 0.45,-0.3375c0.1125,-0.1125 0.3375,-0.225 0.45,-0.3375v-0.1125c-0.1125,0 -0.3375,0 -0.5625,0.1125c-0.1125,0 -0.3375,0 -0.5625,0.1125c-0.225,0 -0.45,0 -0.675,0h-4.6125v-1.9125h8.325v2.25l-3.15,2.925c-0.1125,0.1125 -0.225,0.1125 -0.3375,0.225c-0.1125,0.1125 -0.225,0.1125 -0.225,0.225c-0.1125,0.1125 -0.225,0.1125 -0.225,0.225c0.675,0 1.35,0.1125 1.9125,0.3375c0.5625,0.225 1.0125,0.5625 1.4625,0.9c0.45,0.3375 0.675,0.9 0.9,1.35c0.225,0.45 0.3375,1.125 0.3375,1.8c0,0.675 -0.1125,1.35 -0.3375,1.8c-0.225,0.5625 -0.5625,1.0125 -1.0125,1.4625c-0.45,0.45 -0.9,0.675 -1.4625,0.9c-0.675,0 -1.35,0.1125 -2.025,0.1125z"/><path d="M394.725,173.425h2.475l-5.9625,8.775v0.7875h4.3875v-3.2625h2.25v8.2125h-2.25v-2.925h-6.525v-3.15z"/><path d="M403.1625,184.675c0.1125,0.45 0.45,0.7875 0.7875,1.0125c0.45,0.225 0.9,0.45 1.575,0.45c0.7875,0 1.35,-0.225 1.8,-0.675c0.45,-0.45 0.675,-1.0125 0.675,-1.8v-0.9c0,-0.7875 -0.225,-1.35 -0.675,-1.8c-0.45,-0.45 -1.0125,-0.675 -1.8,-0.675c-1.0125,0 -1.6875,0.3375 -2.1375,0.9h-2.25l0.1125,-7.9875h8.325v1.9125h-6.075l-0.1125,4.725h0.1125c0.1125,-0.225 0.3375,-0.5625 0.5625,-0.7875c0.225,-0.225 0.45,-0.3375 0.9,-0.5625c0.45,-0.225 0.7875,-0.225 1.35,-0.225c0.5625,0 1.125,0.1125 1.6875,0.3375c0.5625,0.225 0.9,0.45 1.2375,0.9c0.3375,0.3375 0.5625,0.7875 0.7875,1.35c0.225,0.5625 0.225,1.125 0.225,1.8v0.9c0,0.675 -0.1125,1.2375 -0.3375,1.8c-0.225,0.5625 -0.5625,1.0125 -0.9,1.35c-0.45,0.3375 -0.9,0.675 -1.4625,0.9c-0.5625,0.225 -1.2375,0.3375 -2.025,0.3375c-0.675,0 -1.2375,-0.1125 -1.8,-0.225c-0.5625,-0.1125 -1.0125,-0.3375 -1.4625,-0.675c-0.45,-0.3375 -0.7875,-0.675 -1.0125,-1.0125c-0.225,-0.45 -0.45,-0.9 -0.45,-1.35z"/><path d="M412.8375,183.4375c0,-0.9 0.225,-1.8 0.5625,-2.7c0.3375,-0.9 0.9,-1.9125 1.575,-3.0375l2.7,-4.3875h2.5875l-3.15,4.8375c-0.3375,0.45 -0.5625,0.7875 -0.7875,1.125c-0.225,0.225 -0.3375,0.45 -0.45,0.675c-0.1125,0.225 -0.225,0.3375 -0.225,0.3375h0.225c0.1125,-0.225 0.3375,-0.45 0.5625,-0.675c0.225,-0.1125 0.45,-0.3375 0.7875,-0.45c0.3375,-0.1125 0.675,-0.225 1.125,-0.225c0.5625,0 1.125,0.1125 1.6875,0.3375c0.45,0.225 0.9,0.5625 1.2375,0.9c0.3375,0.3375 0.675,0.7875 0.7875,1.35c0.1125,0.5625 0.3375,1.125 0.3375,1.8c0,0.675 -0.1125,1.35 -0.3375,1.9125c-0.225,0.5625 -0.5625,1.0125 -1.0125,1.4625c-0.45,0.45 -0.9,0.675 -1.4625,0.9c-0.5625,0.225 -1.2375,0.3375 -1.9125,0.3375c-0.675,0 -1.35,-0.1125 -2.025,-0.3375c-0.5625,-0.225 -1.125,-0.5625 -1.575,-0.9c-0.45,-0.45 -0.7875,-0.9 -1.0125,-1.4625c-0.1125,-0.45 -0.225,-1.125 -0.225,-1.8zM415.0875,183.55c0,0.7875 0.225,1.4625 0.675,1.9125c0.45,0.45 1.125,0.7875 1.9125,0.7875c0.7875,0 1.35,-0.225 1.9125,-0.7875c0.45,-0.45 0.675,-1.125 0.675,-1.9125c0,-0.7875 -0.225,-1.4625 -0.675,-1.9125c-0.45,-0.45 -1.125,-0.7875 -1.9125,-0.7875c-0.7875,0 -1.4625,0.225 -1.9125,0.7875c-0.45,0.45 -0.675,1.0125 -0.675,1.9125z"/><path d="M424.9875,177.5875v-4.1625h9.3375v2.3625l-5.0625,12.0375h-2.475l4.8375,-11.1375c0.225,-0.45 0.3375,-0.675 0.45,-0.9c0.1125,-0.1125 0.1125,-0.225 0.225,-0.3375v-0.1125c-0.225,0 -0.45,0 -0.5625,0c-0.225,0 -0.3375,0 -0.5625,0c-0.225,0 -0.3375,0 -0.45,0h-3.6v2.1375h-2.1375z"/><path d="M436.9125,183.8875c0,-0.9 0.225,-1.6875 0.7875,-2.3625c0.5625,-0.675 1.2375,-1.0125 2.1375,-1.2375v-0.1125c-0.45,0 -0.7875,-0.225 -1.125,-0.3375c-0.3375,-0.225 -0.675,-0.45 -0.9,-0.675c-0.225,-0.3375 -0.45,-0.5625 -0.5625,-1.0125c-0.1125,-0.3375 -0.225,-0.7875 -0.225,-1.125c0,-0.5625 0.1125,-1.125 0.3375,-1.575c0.225,-0.45 0.5625,-0.9 0.9,-1.2375c0.45,-0.3375 0.9,-0.5625 1.4625,-0.7875c0.5625,-0.225 1.125,-0.225 1.9125,-0.225c0.675,0 1.35,0.1125 1.9125,0.225c0.5625,0.225 1.0125,0.45 1.4625,0.7875c0.45,0.3375 0.675,0.7875 0.9,1.2375c0.225,0.45 0.3375,1.0125 0.3375,1.575c0,0.45 -0.1125,0.7875 -0.225,1.125c-0.1125,0.3375 -0.3375,0.675 -0.5625,1.0125c-0.225,0.3375 -0.5625,0.5625 -0.9,0.675c-0.3375,0.1125 -0.675,0.3375 -1.125,0.3375v0.1125c0.9,0.1125 1.6875,0.5625 2.25,1.125c0.5625,0.675 0.7875,1.35 0.7875,2.3625c0,0.675 -0.1125,1.2375 -0.3375,1.6875c-0.225,0.5625 -0.5625,1.0125 -1.0125,1.35c-0.45,0.3375 -0.9,0.675 -1.4625,0.9c-0.5625,0.225 -1.2375,0.3375 -2.025,0.3375c-0.7875,0 -1.35,-0.1125 -2.025,-0.3375c-0.5625,-0.225 -1.125,-0.45 -1.4625,-0.9c-0.45,-0.3375 -0.7875,-0.7875 -1.0125,-1.35c-0.1125,-0.3375 -0.225,-0.9 -0.225,-1.575zM441.75,181.1875c-0.7875,0 -1.35,0.225 -1.9125,0.675c-0.45,0.45 -0.675,1.125 -0.675,1.8c0,0.7875 0.225,1.35 0.675,1.8c0.45,0.45 1.125,0.675 1.9125,0.675c0.7875,0 1.35,-0.225 1.9125,-0.675c0.45,-0.45 0.675,-1.125 0.675,-1.8c0,-0.7875 -0.225,-1.35 -0.675,-1.8c-0.5625,-0.45 -1.125,-0.675 -1.9125,-0.675zM441.75,174.8875c-0.675,0 -1.2375,0.225 -1.6875,0.5625c-0.45,0.45 -0.675,0.9 -0.675,1.575c0,0.675 0.225,1.2375 0.675,1.6875c0.45,0.45 1.0125,0.675 1.6875,0.675c0.675,0 1.2375,-0.225 1.6875,-0.675c0.45,-0.45 0.675,-1.0125 0.675,-1.6875c0,-0.675 -0.225,-1.2375 -0.675,-1.575c-0.45,-0.3375 -1.0125,-0.5625 -1.6875,-0.5625z"/><path d="M453.7875,173.2c0.675,0 1.35,0.1125 2.025,0.3375c0.5625,0.225 1.125,0.5625 1.575,0.9c0.45,0.45 0.7875,0.9 1.0125,1.4625c0.225,0.5625 0.3375,1.2375 0.3375,1.9125c0,0.9 -0.225,1.8 -0.5625,2.7c-0.3375,0.9 -0.9,1.9125 -1.575,3.0375l-2.7,4.3875h-2.5875l3.15,-4.8375c0.3375,-0.45 0.5625,-0.7875 0.7875,-1.125c0.225,-0.225 0.3375,-0.45 0.45,-0.675c0.1125,-0.225 0.225,-0.3375 0.225,-0.3375h-0.225c-0.1125,0.225 -0.3375,0.45 -0.5625,0.675c-0.225,0.1125 -0.45,0.3375 -0.7875,0.45c-0.3375,0.1125 -0.675,0.225 -1.125,0.225c-0.5625,0 -1.125,-0.1125 -1.6875,-0.3375c-0.45,-0.225 -0.9,-0.5625 -1.2375,-0.9c-0.3375,-0.3375 -0.675,-0.9 -0.7875,-1.35c-0.225,-0.5625 -0.3375,-1.125 -0.3375,-1.8c0,-0.675 0.1125,-1.35 0.3375,-1.9125c0.225,-0.5625 0.5625,-1.0125 1.0125,-1.4625c0.45,-0.45 0.9,-0.675 1.4625,-0.9c0.45,-0.3375 1.125,-0.45 1.8,-0.45zM451.2,177.8125c0,0.7875 0.225,1.4625 0.675,1.9125c0.45,0.45 1.125,0.7875 1.9125,0.7875c0.7875,0 1.4625,-0.225 1.9125,-0.7875c0.45,-0.45 0.7875,-1.125 0.7875,-1.9125c0,-0.7875 -0.225,-1.4625 -0.675,-1.9125c-0.45,-0.45 -1.125,-0.7875 -1.9125,-0.7875c-0.7875,0 -1.35,0.225 -1.9125,0.7875c-0.5625,0.45 -0.7875,1.125 -0.7875,1.9125z"/><path d="M461.2125,177.5875c0,-0.675 0.1125,-1.2375 0.3375,-1.8c0.225,-0.5625 0.5625,-1.0125 0.9,-1.35c0.45,-0.3375 0.9,-0.675 1.4625,-0.9c0.5625,-0.225 1.2375,-0.3375 1.9125,-0.3375c0.675,0 1.35,0.1125 1.9125,0.3375c0.5625,0.225 1.0125,0.45 1.4625,0.9c0.45,0.3375 0.675,0.7875 0.9,1.35c0.225,0.5625 0.3375,1.125 0.3375,1.8v6.075c0,0.675 -0.1125,1.2375 -0.3375,1.8c-0.225,0.5625 -0.5625,1.0125 -0.9,1.35c-0.45,0.3375 -0.9,0.675 -1.4625,0.9c-0.5625,0.225 -1.2375,0.3375 -1.9125,0.3375c-0.675,0 -1.35,-0.1125 -1.9125,-0.3375c-0.5625,-0.225 -1.0125,-0.45 -1.4625,-0.9c-0.45,-0.3375 -0.675,-0.7875 -0.9,-1.35c-0.225,-0.5625 -0.3375,-1.125 -0.3375,-1.8zM463.35,183.6625c0,0.7875 0.225,1.35 0.675,1.8c0.45,0.45 1.0125,0.675 1.8,0.675c0.7875,0 1.35,-0.225 1.8,-0.675c0.45,-0.45 0.675,-1.0125 0.675,-1.8v-6.075c0,-0.7875 -0.225,-1.35 -0.675,-1.8c-0.45,-0.45 -1.0125,-0.675 -1.8,-0.675c-0.7875,0 -1.35,0.225 -1.8,0.675c-0.45,0.45 -0.675,1.0125 -0.675,1.8zM464.925,179.1625c0,-0.3375 0.1125,-0.5625 0.225,-0.7875c0.225,-0.225 0.45,-0.3375 0.675,-0.3375c0.3375,0 0.5625,0.1125 0.675,0.3375c0.225,0.225 0.225,0.45 0.225,0.7875v3.0375c0,0.3375 -0.1125,0.5625 -0.225,0.7875c-0.225,0.225 -0.45,0.3375 -0.675,0.3375c-0.3375,0 -0.5625,-0.1125 -0.675,-0.3375c-0.225,-0.225 -0.225,-0.45 -0.225,-0.7875z"/><path d="M472.4625,183.4375l10.8,-6.975v1.4625l-10.8,6.975zM472.575,177.25v-1.2375c0,-0.7875 0.225,-1.4625 0.675,-1.9125c0.45,-0.45 1.125,-0.675 2.025,-0.675c0.9,0 1.575,0.225 2.025,0.675c0.45,0.45 0.675,1.125 0.675,1.9125v1.2375c0,0.7875 -0.225,1.4625 -0.675,1.9125c-0.45,0.45 -1.125,0.675 -2.025,0.675c-0.9,0 -1.575,-0.225 -2.025,-0.675c-0.45,-0.45 -0.675,-1.0125 -0.675,-1.9125zM474.0375,177.25c0,0.45 0.1125,0.7875 0.3375,1.0125c0.225,0.225 0.5625,0.3375 0.9,0.3375c0.45,0 0.7875,-0.1125 0.9,-0.45c0.225,-0.225 0.3375,-0.5625 0.3375,-1.0125v-1.2375c0,-0.45 -0.1125,-0.7875 -0.3375,-1.0125c-0.225,-0.225 -0.5625,-0.3375 -0.9,-0.3375c-0.45,0 -0.675,0.1125 -0.9,0.3375c-0.225,0.225 -0.3375,0.5625 -0.3375,1.0125zM477.75,184c0,-0.7875 0.225,-1.4625 0.675,-1.9125c0.45,-0.45 1.125,-0.675 2.025,-0.675c0.9,0 1.575,0.225 2.025,0.675c0.45,0.45 0.675,1.125 0.675,1.9125v1.2375c0,0.7875 -0.225,1.4625 -0.675,1.9125c-0.45,0.45 -1.125,0.675 -2.025,0.675c-0.9,0 -1.575,-0.225 -2.025,-0.675c-0.45,-0.45 -0.675,-1.125 -0.675,-1.9125zM479.2125,184v1.2375c0,0.45 0.1125,0.7875 0.3375,1.0125c0.225,0.225 0.5625,0.3375 0.9,0.3375c0.45,0 0.7875,-0.1125 0.9,-0.45c0.225,-0.225 0.3375,-0.5625 0.3375,-1.0125v-1.2375c0,-0.45 -0.1125,-0.7875 -0.3375,-1.0125c-0.225,-0.225 -0.5625,-0.3375 -0.9,-0.3375c-0.3375,0 -0.675,0.1125 -0.9,0.3375c-0.225,0.3375 -0.3375,0.675 -0.3375,1.125z"/><path d="M486.525,173.425h2.7c0.675,0 1.35,0.1125 1.9125,0.3375c0.5625,0.225 1.125,0.45 1.4625,0.7875c0.45,0.3375 0.7875,0.7875 0.9,1.35c0.225,0.5625 0.3375,1.125 0.3375,1.8c0,0.5625 -0.1125,1.125 -0.225,1.575c-0.225,0.45 -0.45,0.9 -0.7875,1.2375c-0.3375,0.3375 -0.7875,0.675 -1.2375,0.7875c-0.45,0.225 -1.0125,0.3375 -1.575,0.3375v1.9125h-2.025v-3.825h1.35c0.7875,0 1.35,-0.225 1.8,-0.5625c0.45,-0.3375 0.675,-0.9 0.675,-1.575c0,-0.675 -0.225,-1.2375 -0.675,-1.575c-0.45,-0.3375 -1.0125,-0.5625 -1.8,-0.5625h-2.8125zM487.3125,186.7c0,-0.3375 0.1125,-0.675 0.3375,-0.9c0.225,-0.225 0.5625,-0.3375 1.0125,-0.3375h0.45c0.45,0 0.7875,0.1125 1.0125,0.3375c0.225,0.225 0.3375,0.5625 0.3375,0.9c0,0.3375 -0.1125,0.675 -0.3375,0.9c-0.225,0.225 -0.5625,0.3375 -1.0125,0.3375h-0.45c-0.45,0 -0.7875,-0.1125 -1.0125,-0.3375c-0.225,-0.225 -0.3375,-0.45 -0.3375,-0.9z"/><path d="M498,180.2875h7.9875v2.025h-7.9875z"/></g></g></svg>