<svg version="1.1" xmlns="http://www.w3.org/2000/svg" xmlns:xlink="http://www.w3.org/1999/xlink" width="82.18113" height="27.06944" viewBox="0,0,82.18113,27.06944"><g transform="translate(-198.90944,-267.46528)"><g data-paper-data="{&quot;isPaintingLayer&quot;:true}" fill-rule="nonzero" stroke-linejoin="miter" stroke-miterlimit="10" stroke-dasharray="" stroke-dashoffset="0" style="mix-blend-mode: normal"><path d="M279.84057,290.66666c0,1.59853 -1.48327,2.61806 -3.30941,2.61806c-7.71916,0 -60.98596,0 -73.66667,0c-1.73041,0 -2.70505,-1.16123 -2.70505,-2.95139c0,-5.11599 0,-15.3686 0,-18.33333c0,-1.57219 1.34914,-3.28472 3.03839,-3.28472c7.35696,0 59.58539,0 73.33333,0c2.10635,0 3.30941,1.91411 3.30941,3.61806c0,3.0918 0,13.43306 0,18.33333z" fill="#4c96fe" stroke-opacity="0.45882" stroke="#ffffff" stroke-width="2.5" stroke-linecap="butt"/><path d="M246.6,276.19178c0,0 -6.9942,7.75444 -8.34378,9.25071c-0.43232,0.47932 -1.34781,0.50228 -1.89643,-0.01891c-0.73142,-0.69485 -2.95979,-2.8318 -2.95979,-2.8318" fill="none" stroke="#ffffff" stroke-width="3.5" stroke-linecap="round"/></g></g></svg>