<svg version="1.1" xmlns="http://www.w3.org/2000/svg" xmlns:xlink="http://www.w3.org/1999/xlink" width="32.875" height="32.42466" viewBox="0,0,32.875,32.42466"><g transform="translate(-223.5625,-163.78767)"><g data-paper-data="{&quot;isPaintingLayer&quot;:true}" fill-rule="nonzero" stroke="none" stroke-linecap="butt" stroke-linejoin="miter" stroke-miterlimit="10" stroke-dasharray="" stroke-dashoffset="0" style="mix-blend-mode: normal"><path d="M236.96875,183.4875c0.1125,0.5625 0.3375,1.125 0.7875,1.4625c0.45,0.3375 1.0125,0.5625 1.6875,0.5625c0.7875,0 1.35,-0.225 1.9125,-0.675c0.45,-0.45 0.675,-1.0125 0.675,-1.8v-8.325h-5.4v-2.025h7.5375v10.2375c0,0.675 -0.1125,1.35 -0.3375,1.8c-0.225,0.5625 -0.5625,1.0125 -0.9,1.35c-0.45,0.3375 -0.9,0.675 -1.4625,0.9c-0.5625,0.225 -1.2375,0.3375 -2.025,0.3375c-1.35,0 -2.3625,-0.3375 -3.15,-1.0125c-0.7875,-0.675 -1.35,-1.6875 -1.4625,-2.925h2.1375z" fill="#ffffff" stroke-width="1"/><path d="M223.5625,196.21233v-32.42466h32.875v32.42466z" fill="none" stroke-width="0"/></g></g></svg>