<svg version="1.1" xmlns="http://www.w3.org/2000/svg" xmlns:xlink="http://www.w3.org/1999/xlink" width="32.875" height="32.42466" viewBox="0,0,32.875,32.42466"><g transform="translate(-223.5625,-163.78767)"><g data-paper-data="{&quot;isPaintingLayer&quot;:true}" fill-rule="nonzero" stroke="none" stroke-linecap="butt" stroke-linejoin="miter" stroke-miterlimit="10" stroke-dasharray="" stroke-dashoffset="0" style="mix-blend-mode: normal"><path d="M237.6375,184.10625c0.1125,0.45 0.45,0.7875 0.7875,1.0125c0.45,0.225 0.9,0.45 1.575,0.45c0.7875,0 1.35,-0.225 1.8,-0.675c0.45,-0.45 0.675,-1.0125 0.675,-1.8v-0.9c0,-0.7875 -0.225,-1.35 -0.675,-1.8c-0.45,-0.45 -1.0125,-0.675 -1.8,-0.675c-1.0125,0 -1.6875,0.3375 -2.1375,0.9h-2.25l0.1125,-7.9875h8.325v1.9125h-6.075l-0.1125,4.725h0.1125c0.1125,-0.225 0.3375,-0.5625 0.5625,-0.7875c0.225,-0.225 0.45,-0.3375 0.9,-0.5625c0.45,-0.225 0.7875,-0.225 1.35,-0.225c0.5625,0 1.125,0.1125 1.6875,0.3375c0.5625,0.225 0.9,0.45 1.2375,0.9c0.3375,0.3375 0.5625,0.7875 0.7875,1.35c0.225,0.5625 0.225,1.125 0.225,1.8v0.9c0,0.675 -0.1125,1.2375 -0.3375,1.8c-0.225,0.5625 -0.5625,1.0125 -0.9,1.35c-0.45,0.3375 -0.9,0.675 -1.4625,0.9c-0.5625,0.225 -1.2375,0.3375 -2.025,0.3375c-0.675,0 -1.2375,-0.1125 -1.8,-0.225c-0.5625,-0.1125 -1.0125,-0.3375 -1.4625,-0.675c-0.45,-0.3375 -0.7875,-0.675 -1.0125,-1.0125c-0.225,-0.45 -0.45,-0.9 -0.45,-1.35z" fill="#ffffff" stroke-width="1"/><path d="M223.5625,196.21233v-32.42466h32.875v32.42466z" fill="none" stroke-width="0"/></g></g></svg>