<svg version="1.1" xmlns="http://www.w3.org/2000/svg" xmlns:xlink="http://www.w3.org/1999/xlink" width="425.88475" height="91.11118" viewBox="0,0,425.88475,91.11118"><g transform="translate(-27.12543,-119.28559)"><g data-paper-data="{&quot;isPaintingLayer&quot;:true}" fill-rule="nonzero" stroke="none" stroke-width="1" stroke-linecap="butt" stroke-linejoin="miter" stroke-miterlimit="10" stroke-dasharray="" stroke-dashoffset="0" style="mix-blend-mode: normal"><g fill="#ffffff" opacity="0.5"><path d="M27.12543,176.95793z"/><path d=""/><path d="M27.21101,183.03774z"/><path d="M425.69395,149.72733l27.31622,27.27341h-121.72418l-27.31622,-27.31623z"/><path d="M395.16659,119.2856l27.31623,27.31623h-121.68137l-27.31622,-27.31623z"/><path d="M452.88177,183.08055l-27.31623,27.31623h-121.68136l27.31622,-27.31623z"/></g><g fill="#17499d"><path d="M337.30091,193.39718l-2.4833,-4.88095v4.88096h-0.94193v-6.63638h1.02757l2.52611,5.0094l2.52611,-5.0094h1.02757v6.63638h-0.94194v-4.88095l-2.48329,4.88096z" opacity="0.75"/><path d="M345.64991,186.76081l2.56892,6.63638h-0.94194l-0.59942,-1.54135h-2.99708l-0.59942,1.54135h-0.94194l2.56893,-6.63638zM344.02293,190.91393h2.26922l-1.1132,-2.91145z" opacity="0.75"/><path d="M349.97424,186.76081l1.75543,2.48329l1.79824,-2.48329h1.15602l-2.35485,3.29679l2.39767,3.3396h-1.15602l-1.84106,-2.56892l-1.79825,2.56892h-1.15602l2.39767,-3.3396l-2.35484,-3.29678z" opacity="0.75"/><path d="M358.66577,187.7027c0,-0.12844 0.04282,-0.2569 0.08563,-0.38534c0.04282,-0.12844 0.12845,-0.21407 0.21408,-0.2997c0.08563,-0.08563 0.17126,-0.17127 0.29971,-0.21408c0.12844,-0.04281 0.2569,-0.08563 0.38534,-0.08563h3.59649c0.12844,0 0.2569,0.04281 0.38534,0.08563c0.12844,0.04281 0.21408,0.12845 0.29971,0.21408c0.08563,0.08563 0.17126,0.17126 0.21408,0.2997c0.04282,0.12844 0.08563,0.2569 0.08563,0.38534v0.8563h-0.94194v-0.8563h-3.5965v4.75251h3.5965v-0.85631h0.94194v0.85631c0,0.12844 -0.04281,0.25689 -0.08563,0.38533c-0.04282,0.12844 -0.12845,0.21408 -0.21408,0.29971c-0.08563,0.08563 -0.17126,0.17126 -0.29971,0.21408c-0.12844,0.04281 -0.2569,0.08563 -0.38534,0.08563h-3.59649c-0.12844,0 -0.2569,-0.04282 -0.38534,-0.08563c-0.12844,-0.04281 -0.21408,-0.12844 -0.29971,-0.21408c-0.08563,-0.08563 -0.17126,-0.17126 -0.21408,-0.29971c-0.04282,-0.12844 -0.08563,-0.25689 -0.08563,-0.38533z" opacity="0.75"/><path d="M371.38197,192.45522c0,0.12844 -0.04282,0.25689 -0.08563,0.38533c-0.04282,0.12844 -0.12845,0.21408 -0.21408,0.29971c-0.08563,0.08563 -0.17126,0.17126 -0.29971,0.21408c-0.12844,0.04281 -0.2569,0.08563 -0.38534,0.08563h-3.81057c-0.12844,0 -0.2569,-0.04282 -0.38534,-0.08563c-0.12844,-0.04281 -0.21408,-0.12844 -0.29971,-0.21408c-0.08563,-0.08563 -0.17126,-0.17126 -0.21407,-0.29971c-0.04282,-0.12844 -0.08563,-0.25689 -0.08563,-0.38533v-4.75251c0,-0.12844 0.04281,-0.2569 0.08563,-0.38534c0.04282,-0.12844 0.12844,-0.21407 0.21407,-0.2997c0.08563,-0.08563 0.17127,-0.17127 0.29971,-0.21408c0.12844,-0.04281 0.2569,-0.08563 0.38534,-0.08563h3.81057c0.12844,0 0.2569,0.04281 0.38534,0.08563c0.12844,0.04281 0.21408,0.12845 0.29971,0.21408c0.08563,0.08563 0.17126,0.17126 0.21408,0.2997c0.04282,0.12844 0.08563,0.2569 0.08563,0.38534zM366.62946,187.7027v4.75251h3.81057v-4.75251z" opacity="0.75"/><path d="M376.51982,193.39718l-2.48329,-4.88095v4.88096h-0.94194v-6.63638h1.02757l2.52611,5.0094l2.52611,-5.0094h1.02757v6.63638h-0.94194v-4.88095l-2.48329,4.88096z" opacity="0.75"/><path d="M386.2389,189.92915c0.12844,0.04281 0.2569,0.08563 0.38534,0.17126c0.12844,0.08563 0.21408,0.17127 0.29971,0.29971c0.08563,0.12844 0.12844,0.2569 0.17126,0.42816c0.04282,0.17126 0.08563,0.38534 0.08563,0.59941v0.34252c0,1.07038 -0.5566,1.62698 -1.62699,1.62698h-3.63931v-6.63638h3.42524c1.07039,0 1.62699,0.5566 1.62699,1.62698v0.12844c0,0.38534 -0.04282,0.68505 -0.17127,0.89913c-0.12844,0.25689 -0.29971,0.42815 -0.5566,0.51378zM382.8565,187.7027v1.88387h2.56892c0.21407,0 0.38534,-0.08563 0.51378,-0.17126c0.08563,-0.12844 0.17126,-0.29971 0.17126,-0.51379v-0.42816c0,-0.25689 -0.04282,-0.42816 -0.17126,-0.5566c-0.12844,-0.12844 -0.29971,-0.17126 -0.5566,-0.17126h-2.52611zM382.8565,190.52855v1.96951h2.65456c0.25689,0 0.42815,-0.04282 0.5566,-0.17127c0.12844,-0.12844 0.17126,-0.29971 0.17126,-0.5566v-0.51378c0,-0.25689 -0.04282,-0.42816 -0.17126,-0.5566c-0.12844,-0.12844 -0.29971,-0.17126 -0.5566,-0.17126z" opacity="0.75"/><path d="M394.28821,192.45522c0,0.12844 -0.04281,0.25689 -0.08563,0.38533c-0.04282,0.12844 -0.12845,0.21408 -0.21408,0.29971c-0.08563,0.08563 -0.17126,0.17126 -0.29971,0.21408c-0.12844,0.04281 -0.25689,0.08563 -0.38534,0.08563h-3.81057c-0.12844,0 -0.25689,-0.04282 -0.38533,-0.08563c-0.12844,-0.04281 -0.21408,-0.12844 -0.29971,-0.21408c-0.08563,-0.08563 -0.17126,-0.17126 -0.21408,-0.29971c-0.04282,-0.12844 -0.08563,-0.25689 -0.08563,-0.38533v-4.75251c0,-0.12844 0.04281,-0.2569 0.08563,-0.38534c0.04282,-0.12844 0.12845,-0.21407 0.21408,-0.2997c0.08563,-0.08563 0.17126,-0.17127 0.29971,-0.21408c0.12844,-0.04281 0.25689,-0.08563 0.38533,-0.08563h3.81058c0.12844,0 0.25689,0.04281 0.38534,0.08563c0.12844,0.04281 0.21408,0.12845 0.29971,0.21408c0.08563,0.08563 0.17126,0.17126 0.21408,0.2997c0.04282,0.12844 0.08563,0.2569 0.08563,0.38534zM389.5357,187.7027v4.75251h3.81057v-4.75251z" opacity="0.75"/><path d="M396.68587,189.92915c0,0.25689 -0.17127,0.42816 -0.42816,0.42816c-0.25689,0 -0.42816,-0.17127 -0.42816,-0.42816c0,-0.25689 0.17127,-0.42816 0.42816,-0.42816c0.25689,0 0.42816,0.21408 0.42816,0.42816zM395.82956,193.09749c0,-0.25689 0.17127,-0.42816 0.42816,-0.42816c0.25689,0 0.42816,0.21408 0.42816,0.42816c0,0.25689 -0.17127,0.42816 -0.42816,0.42816c-0.25689,-0.04281 -0.42816,-0.21408 -0.42816,-0.42816z" opacity="0.75"/></g><g fill="#17499d"><path d="M336.57605,157.6875c0.12844,0.04281 0.2569,0.08563 0.38534,0.17126c0.12844,0.08563 0.21408,0.17127 0.29971,0.29971c0.08563,0.12844 0.12845,0.2569 0.17126,0.42816c0.04281,0.17126 0.08563,0.38534 0.08563,0.59941v0.34252c0,1.07038 -0.5566,1.62698 -1.62699,1.62698h-3.63931v-6.63638h3.42523c1.07039,0 1.62699,0.5566 1.62699,1.62698v0.12844c0,0.38534 -0.04282,0.68505 -0.17127,0.89912c-0.12844,0.21408 -0.29971,0.38534 -0.5566,0.51379zM333.19363,155.46114v1.88388h2.56893c0.21408,0 0.38534,-0.08563 0.51378,-0.17126c0.08563,-0.12844 0.17126,-0.29971 0.17126,-0.51378v-0.42816c0,-0.25689 -0.04282,-0.42816 -0.17126,-0.5566c-0.12844,-0.12844 -0.29971,-0.17126 -0.5566,-0.17126h-2.52611zM333.19363,158.2441v1.96951h2.65456c0.25689,0 0.42815,-0.04282 0.5566,-0.17126c0.12844,-0.12844 0.17126,-0.29971 0.17126,-0.5566v-0.51379c0,-0.25689 -0.04282,-0.42816 -0.17126,-0.5566c-0.12844,-0.12844 -0.29971,-0.17126 -0.5566,-0.17126z" opacity="0.75"/><path d="M341.84235,154.51916l2.56893,6.63638h-0.94194l-0.59941,-1.54135h-2.99708l-0.59942,1.54135h-0.94194l2.56892,-6.63638zM340.21537,158.67228h2.26922l-1.1132,-2.91145z" opacity="0.75"/><path d="M345.52448,161.1556v-6.63638h3.38241c0.34252,0 0.68505,0.04281 0.94194,0.17126c0.29971,0.12844 0.51378,0.2569 0.72786,0.47097c0.21407,0.21408 0.34253,0.42815 0.47097,0.72786c0.12844,0.29971 0.17126,0.59941 0.17126,0.94194v1.96951c0,0.34252 -0.04282,0.68505 -0.17126,0.94194c-0.12844,0.25689 -0.2569,0.51378 -0.47097,0.72786c-0.21407,0.21408 -0.42815,0.34253 -0.72786,0.47097c-0.29971,0.12844 -0.59942,0.17126 -0.94194,0.17126h-3.38241zM348.9069,160.21364c0.42816,0 0.77068,-0.12845 1.02757,-0.34252c0.25689,-0.21408 0.34252,-0.5566 0.34252,-1.02757v-1.96951c0,-0.21408 -0.04281,-0.42816 -0.08563,-0.59942c-0.04282,-0.17126 -0.17127,-0.2997 -0.2569,-0.42815c-0.08563,-0.12844 -0.2569,-0.21408 -0.42816,-0.2569c-0.17126,-0.04281 -0.34252,-0.08563 -0.59941,-0.08563h-2.44048v4.75251h2.44048z" opacity="0.75"/><path d="M353.48816,157.6875c0,0.25689 -0.17127,0.42816 -0.42816,0.42816c-0.25689,0 -0.42815,-0.17127 -0.42815,-0.42816c0,-0.25689 0.17126,-0.42816 0.42815,-0.42816c0.25689,0 0.42816,0.21408 0.42816,0.42816zM352.63184,160.81304c0,-0.25689 0.17126,-0.42816 0.42815,-0.42816c0.25689,0 0.42816,0.21408 0.42816,0.42816c0,0.25689 -0.17127,0.42816 -0.42816,0.42816c-0.25689,0 -0.42815,-0.17127 -0.42815,-0.42816z" opacity="0.75"/></g><g fill="#17499d"><path d="" opacity="0.75"/><path d="" opacity="0.75"/><path d="" opacity="0.75"/><path d="" opacity="0.75"/><path d="" opacity="0.75"/><path d="" opacity="0.75"/><path d="" opacity="0.75"/><path d="" opacity="0.75"/><path d="" opacity="0.75"/><path d=""/><path d=""/><path d=""/><path d=""/><path d=""/><path d=""/><path d=""/><path d=""/></g><g fill="#17499d"><path d="" opacity="0.75"/><path d="" opacity="0.75"/><path d="" opacity="0.75"/><path d="" opacity="0.75"/><path d=""/><path d=""/><path d=""/><path d=""/><path d=""/><path d=""/><path d=""/></g><g fill="#17499d"><path d="" opacity="0.75"/><path d="" opacity="0.75"/><path d="" opacity="0.75"/><path d="" opacity="0.75"/><path d="" opacity="0.75"/><path d="" opacity="0.75"/><path d="" opacity="0.75"/><path d="" opacity="0.75"/><path d="" opacity="0.75"/><path d=""/><path d=""/><path d=""/><path d=""/><path d=""/><path d=""/><path d=""/></g><g fill="#17499d"><path d="M300.61708,130.30754v-6.63639h3.63931c1.07039,0 1.62699,0.5566 1.62699,1.62699v0.94194c0,1.07039 -0.5566,1.62699 -1.62699,1.62699h-2.69737v2.44048zM301.55903,126.88236h2.61174c0.25689,0 0.42815,-0.04282 0.5566,-0.17126c0.12844,-0.12844 0.17126,-0.29971 0.17126,-0.5566v-0.85631c0,-0.25689 -0.04282,-0.42816 -0.17126,-0.5566c-0.12844,-0.12844 -0.29971,-0.17126 -0.5566,-0.17126h-2.61174z" opacity="0.75"/><path d="M307.16783,123.67122h4.83814v0.94194h-3.8962v1.88388h3.29679v0.94194h-3.29678v1.88387h3.8962v0.94194h-4.83814z" opacity="0.75"/><path d="M318.68519,126.02607c0,0.94194 -0.38534,1.45573 -1.19883,1.58417l1.24165,2.69737h-1.07039l-1.24165,-2.65456h-2.09795v2.65456h-0.94194v-6.63639h3.63931c1.07039,0 1.62699,0.5566 1.62699,1.62699v0.72786zM314.36082,126.71111h2.61174c0.25689,0 0.42815,-0.04282 0.5566,-0.17126c0.12844,-0.12844 0.17127,-0.29971 0.17127,-0.5566v-0.64223c0,-0.25689 -0.04282,-0.42816 -0.17127,-0.5566c-0.12844,-0.12844 -0.29971,-0.17127 -0.5566,-0.17127h-2.61174z" opacity="0.75"/><path d="M320.26936,123.67122h4.83814v0.94194h-3.89621v1.88388h3.29679v0.94194h-3.29679v2.82582h-0.94194z" opacity="0.75"/><path d="M326.55737,123.67122h4.83814v0.94194h-3.89621v1.88388h3.29679v0.94194h-3.29678v1.88387h3.89621v0.94194h-4.83814z" opacity="0.75"/><path d="M333.14175,124.61315c0,-0.12844 0.04281,-0.25689 0.08563,-0.38533c0.04282,-0.12844 0.12845,-0.21408 0.21408,-0.29971c0.08563,-0.08563 0.17126,-0.17126 0.2997,-0.21408c0.12844,-0.04282 0.2569,-0.08563 0.38534,-0.08563h3.5965c0.12844,0 0.25689,0.04281 0.38533,0.08563c0.12844,0.04282 0.21408,0.12845 0.29971,0.21408c0.08563,0.08563 0.17126,0.17126 0.21408,0.29971c0.04281,0.12844 0.08563,0.25689 0.08563,0.38533v0.85631h-0.94194v-0.85631h-3.59649v4.75251h3.59649v-0.85631h0.94194v0.85631c0,0.12844 -0.04282,0.25689 -0.08563,0.38534c-0.04281,0.12844 -0.12844,0.21408 -0.21408,0.29971c-0.08563,0.08563 -0.17127,0.17126 -0.29971,0.21408c-0.12844,0.04281 -0.25689,0.08563 -0.38533,0.08563h-3.5965c-0.12844,0 -0.2569,-0.04281 -0.38534,-0.08563c-0.12844,-0.04281 -0.21407,-0.12844 -0.2997,-0.21408c-0.08563,-0.08563 -0.17127,-0.17127 -0.21408,-0.29971c-0.04282,-0.12844 -0.08563,-0.25689 -0.08563,-0.38534z" opacity="0.75"/><path d="M340.47352,123.67122h5.30911v0.94194h-2.18358v5.69445h-0.94194v-5.69445h-2.18359z" opacity="0.75"/><path d="M347.01019,125.38384h1.3701v1.37009h-1.3701zM347.01019,128.89463h1.3701v1.3701h-1.3701z" opacity="0.75"/></g><g fill="#17499d"><path d="M254.50901,167.8525l2.56893,6.63638h-0.94194l-0.59941,-1.54135h-2.99708l-0.59942,1.54135h-0.94194l2.56892,-6.63638zM252.88203,172.00562h2.26922l-1.1132,-2.91145z" opacity="0.75"/><path d="M272.57982,170.39584c0,0.25689 -0.17127,0.42816 -0.42816,0.42816c-0.25689,0 -0.42815,-0.17127 -0.42815,-0.42816c0,-0.25689 0.17126,-0.42816 0.42815,-0.42816c0.25689,0 0.42816,0.21408 0.42816,0.42816zM271.7235,173.52138c0,-0.25689 0.17126,-0.42816 0.42815,-0.42816c0.25689,0 0.42816,0.21408 0.42816,0.42816c0,0.25689 -0.17127,0.42816 -0.42816,0.42816c-0.25689,0 -0.42815,-0.17127 -0.42815,-0.42816z" opacity="0.75"/><path d="M264.99174,168.82148c0,-0.12844 0.04281,-0.25689 0.08563,-0.38533c0.04282,-0.12844 0.12845,-0.21408 0.21408,-0.29971c0.08563,-0.08563 0.17126,-0.17126 0.2997,-0.21408c0.12844,-0.04282 0.2569,-0.08563 0.38534,-0.08563h3.5965c0.12844,0 0.25689,0.04281 0.38533,0.08563c0.12844,0.04282 0.21408,0.12845 0.29971,0.21408c0.08563,0.08563 0.17126,0.17126 0.21408,0.29971c0.04281,0.12844 0.08563,0.25689 0.08563,0.38533v0.85631h-0.94194v-0.85631h-3.59649v4.75251h3.59649v-0.85631h0.94194v0.85631c0,0.12844 -0.04282,0.25689 -0.08563,0.38534c-0.04281,0.12844 -0.12844,0.21408 -0.21408,0.29971c-0.08563,0.08563 -0.17127,0.17126 -0.29971,0.21408c-0.12844,0.04281 -0.25689,0.08563 -0.38533,0.08563h-3.5965c-0.12844,0 -0.2569,-0.04281 -0.38534,-0.08563c-0.12844,-0.04281 -0.21407,-0.12844 -0.2997,-0.21408c-0.08563,-0.08563 -0.17127,-0.17127 -0.21408,-0.29971c-0.04282,-0.12844 -0.08563,-0.25689 -0.08563,-0.38534z" opacity="0.75"/><path d="M258.16675,168.82148c0,-0.12844 0.04281,-0.25689 0.08563,-0.38533c0.04282,-0.12844 0.12845,-0.21408 0.21408,-0.29971c0.08563,-0.08563 0.17126,-0.17126 0.2997,-0.21408c0.12844,-0.04282 0.2569,-0.08563 0.38534,-0.08563h3.5965c0.12844,0 0.25689,0.04281 0.38533,0.08563c0.12844,0.04282 0.21408,0.12845 0.29971,0.21408c0.08563,0.08563 0.17126,0.17126 0.21408,0.29971c0.04281,0.12844 0.08563,0.25689 0.08563,0.38533v0.85631h-0.94194v-0.85631h-3.59649v4.75251h3.59649v-0.85631h0.94194v0.85631c0,0.12844 -0.04282,0.25689 -0.08563,0.38534c-0.04281,0.12844 -0.12844,0.21408 -0.21408,0.29971c-0.08563,0.08563 -0.17127,0.17126 -0.29971,0.21408c-0.12844,0.04281 -0.25689,0.08563 -0.38533,0.08563h-3.5965c-0.12844,0 -0.2569,-0.04281 -0.38534,-0.08563c-0.12844,-0.04281 -0.21407,-0.12844 -0.2997,-0.21408c-0.08563,-0.08563 -0.17127,-0.17127 -0.21408,-0.29971c-0.04282,-0.12844 -0.08563,-0.25689 -0.08563,-0.38534z" opacity="0.75"/></g></g></g></svg>