<svg version="1.1" xmlns="http://www.w3.org/2000/svg" xmlns:xlink="http://www.w3.org/1999/xlink" width="32.875" height="32.42466" viewBox="0,0,32.875,32.42466"><g transform="translate(-223.5625,-163.78767)"><g data-paper-data="{&quot;isPaintingLayer&quot;:true}" fill-rule="nonzero" stroke="none" stroke-linecap="butt" stroke-linejoin="miter" stroke-miterlimit="10" stroke-dasharray="" stroke-dashoffset="0" style="mix-blend-mode: normal"><path d="M235.21875,183.2625c0,-0.9 0.225,-1.6875 0.7875,-2.3625c0.5625,-0.675 1.2375,-1.0125 2.1375,-1.2375v-0.1125c-0.45,0 -0.7875,-0.225 -1.125,-0.3375c-0.3375,-0.225 -0.675,-0.45 -0.9,-0.675c-0.225,-0.3375 -0.45,-0.5625 -0.5625,-1.0125c-0.1125,-0.3375 -0.225,-0.7875 -0.225,-1.125c0,-0.5625 0.1125,-1.125 0.3375,-1.575c0.225,-0.45 0.5625,-0.9 0.9,-1.2375c0.45,-0.3375 0.9,-0.5625 1.4625,-0.7875c0.5625,-0.225 1.125,-0.225 1.9125,-0.225c0.675,0 1.35,0.1125 1.9125,0.225c0.5625,0.225 1.0125,0.45 1.4625,0.7875c0.45,0.3375 0.675,0.7875 0.9,1.2375c0.225,0.45 0.3375,1.0125 0.3375,1.575c0,0.45 -0.1125,0.7875 -0.225,1.125c-0.1125,0.3375 -0.3375,0.675 -0.5625,1.0125c-0.225,0.3375 -0.5625,0.5625 -0.9,0.675c-0.3375,0.1125 -0.675,0.3375 -1.125,0.3375v0.1125c0.9,0.1125 1.6875,0.5625 2.25,1.125c0.5625,0.675 0.7875,1.35 0.7875,2.3625c0,0.675 -0.1125,1.2375 -0.3375,1.6875c-0.225,0.5625 -0.5625,1.0125 -1.0125,1.35c-0.45,0.3375 -0.9,0.675 -1.4625,0.9c-0.5625,0.225 -1.2375,0.3375 -2.025,0.3375c-0.7875,0 -1.35,-0.1125 -2.025,-0.3375c-0.5625,-0.225 -1.125,-0.45 -1.4625,-0.9c-0.45,-0.3375 -0.7875,-0.7875 -1.0125,-1.35c-0.1125,-0.3375 -0.225,-0.9 -0.225,-1.575zM240.05625,180.5625c-0.7875,0 -1.35,0.225 -1.9125,0.675c-0.45,0.45 -0.675,1.125 -0.675,1.8c0,0.7875 0.225,1.35 0.675,1.8c0.45,0.45 1.125,0.675 1.9125,0.675c0.7875,0 1.35,-0.225 1.9125,-0.675c0.45,-0.45 0.675,-1.125 0.675,-1.8c0,-0.7875 -0.225,-1.35 -0.675,-1.8c-0.5625,-0.45 -1.125,-0.675 -1.9125,-0.675zM240.05625,174.2625c-0.675,0 -1.2375,0.225 -1.6875,0.5625c-0.45,0.45 -0.675,0.9 -0.675,1.575c0,0.675 0.225,1.2375 0.675,1.6875c0.45,0.45 1.0125,0.675 1.6875,0.675c0.675,0 1.2375,-0.225 1.6875,-0.675c0.45,-0.45 0.675,-1.0125 0.675,-1.6875c0,-0.675 -0.225,-1.2375 -0.675,-1.575c-0.45,-0.3375 -1.0125,-0.5625 -1.6875,-0.5625z" fill="#ffffff" stroke-width="1"/><path d="M223.5625,196.21233v-32.42466h32.875v32.42466z" fill="none" stroke-width="0"/></g></g></svg>