<svg version="1.1" xmlns="http://www.w3.org/2000/svg" xmlns:xlink="http://www.w3.org/1999/xlink" width="149.02762" height="149.08697" viewBox="0,0,149.02762,149.08697"><g transform="translate(-165.48619,-105.45652)"><g data-paper-data="{&quot;isPaintingLayer&quot;:true}" fill-rule="nonzero" stroke="#ffffff" stroke-linecap="butt" stroke-linejoin="miter" stroke-miterlimit="10" stroke-dasharray="" stroke-dashoffset="0" style="mix-blend-mode: normal"><path d="M240,227.75164c-26.3725,0 -47.75165,-21.37914 -47.75165,-47.75165c0,-26.3725 21.37914,-47.75165 47.75165,-47.75165c26.3725,0 47.75165,21.37914 47.75165,47.75165c0,26.3725 -21.37914,47.75165 -47.75165,47.75165z" fill-opacity="0.16863" fill="#ffffff" stroke-width="5"/><g fill-opacity="0.16863" fill="#ffffff" stroke-width="5"><path d=""/><path d="M312.01381,172.27319v15.45361h-24.76073c0.06609,-0.37555 0.11621,-0.77006 0.14925,-1.1837c0.16936,-2.12054 0.02764,-10.83518 -0.30063,-13.22179c0.00986,-0.34185 0.01777,-0.69236 0.02219,-1.04812z"/><path d="M167.98619,187.7268v-15.45361h24.50366c-1.24022,4.24381 -0.79981,10.03806 -0.07569,13.49664c0.13757,0.65704 0.2544,1.31582 0.39839,1.95697z"/><path d=""/><path d="M247.51552,252.03617l-15.45354,-0.04533l0.07354,-24.45296c0.75408,0.2724 15.21421,-0.41723 15.45314,-0.43419z"/><path d="M232.48448,107.96384l15.45354,0.04533l-0.07283,24.82619c-0.50491,-0.11378 -1.03017,-0.17384 -1.56946,-0.17384c-0.37241,0 -0.73814,0.02864 -1.09509,0.08383c-0.80906,-0.32006 -1.69088,-0.49593 -2.61377,-0.49593c-0.94487,0 -1.84669,0.18435 -2.67144,0.51903c-2.45152,0.00885 -5.5015,0.18114 -7.20415,0.26087c-0.10211,0.00478 -0.20221,0.01392 -0.3004,0.02721z"/></g><g fill-opacity="0.16863" fill="#ffffff" stroke-width="5"><path d="M285.24104,123.44082l10.96921,10.88534l-17.23638,17.36918c-0.71253,-1.97104 -10.59878,-10.52809 -10.8752,-10.98007z"/><path d="M194.75896,236.55917l-10.96921,-10.88534l17.40444,-17.53854c0.62609,1.0632 10.28059,10.09237 11.14762,10.70554z"/><path d="M296.42622,225.40676l-10.91746,10.93723l-17.14016,-17.16247c2.72057,-0.99734 9.99155,-9.77733 10.66744,-11.13352z"/><path d=""/><path d="M183.57378,134.59324l10.91746,-10.93723l17.47995,17.44836c-0.75869,0.39671 -1.4444,0.93426 -2.03877,1.57122c-0.63226,0.12405 -8.40546,8.43318 -8.92232,9.32246z"/></g><text transform="translate(230.96804,188.23359) scale(0.71364,0.71364)" font-size="40" xml:space="preserve" fill="#ffffff" fill-rule="nonzero" stroke="#ffffff" stroke-width="2" stroke-linecap="butt" stroke-linejoin="miter" stroke-miterlimit="10" stroke-dasharray="" stroke-dashoffset="0" font-family="&quot;ヒラギノ角ゴ Pro W3&quot;, &quot;Hiragino Kaku Gothic Pro&quot;, Osaka, &quot;メイリオ&quot;, Meiryo, &quot;ＭＳ Ｐゴシック&quot;, &quot;MS PGothic&quot;" font-weight="normal" text-anchor="start" style="mix-blend-mode: normal"><tspan x="0" dy="0">A</tspan></text></g></g></svg>