<svg version="1.1" xmlns="http://www.w3.org/2000/svg" xmlns:xlink="http://www.w3.org/1999/xlink" width="622.5732" height="580.28304" viewBox="0,0,622.5732,580.28304"><defs><radialGradient cx="241.00005" cy="-5" r="87.76318" gradientUnits="userSpaceOnUse" id="color-1"><stop offset="0" stop-color="#ffffff"/><stop offset="1" stop-color="#ffffff" stop-opacity="0"/></radialGradient></defs><g transform="translate(74.66257,220.65882)"><g data-paper-data="{&quot;isPaintingLayer&quot;:true}" fill-rule="nonzero" stroke-linecap="butt" stroke-linejoin="miter" stroke-miterlimit="10" stroke-dasharray="" stroke-dashoffset="0" style="mix-blend-mode: normal"><path d="M-1,359.62422v-359.24843h482v359.24843z" fill="#171717" stroke="none" stroke-width="0"/><path d="M43.58338,24.5c0,-1.38071 1.11929,-2.5 2.5,-2.5c1.38071,0 2.5,1.11929 2.5,2.5c0,1.38071 -1.11929,2.5 -2.5,2.5c-1.38071,0 -2.5,-1.11929 -2.5,-2.5z" fill-opacity="0.58824" fill="#a5a5a5" stroke="none" stroke-width="0.5"/><path d="M60.58337,51.5c0,-1.38071 1.11929,-2.5 2.5,-2.5c1.38071,0 2.5,1.11929 2.5,2.5c0,1.38071 -1.11929,2.5 -2.5,2.5c-1.38071,0 -2.5,-1.11929 -2.5,-2.5z" fill-opacity="0.58824" fill="#a5a5a5" stroke="none" stroke-width="0.5"/><path d="M184.5834,48.5c0,-1.38071 1.11929,-2.5 2.5,-2.5c1.38071,0 2.5,1.11929 2.5,2.5c0,1.38071 -1.11929,2.5 -2.5,2.5c-1.38071,0 -2.5,-1.11929 -2.5,-2.5z" fill-opacity="0.3451" fill="#a6a6a6" stroke="none" stroke-width="0.5"/><path d="M203.5834,30.5c0,-1.38071 1.11929,-2.5 2.5,-2.5c1.38071,0 2.5,1.11929 2.5,2.5c0,1.38071 -1.11929,2.5 -2.5,2.5c-1.38071,0 -2.5,-1.11929 -2.5,-2.5z" fill="#a6a6a6" stroke="none" stroke-width="0.5"/><path d="M269.58338,42.5c0,-1.38071 1.11929,-2.5 2.5,-2.5c1.38071,0 2.5,1.11929 2.5,2.5c0,1.38071 -1.11929,2.5 -2.5,2.5c-1.38071,0 -2.5,-1.11929 -2.5,-2.5z" fill-opacity="0.58824" fill="#a5a5a5" stroke="none" stroke-width="0.5"/><path d="M315.58338,106.5c0,-1.38071 1.11929,-2.5 2.5,-2.5c1.38071,0 2.5,1.11929 2.5,2.5c0,1.38071 -1.11929,2.5 -2.5,2.5c-1.38071,0 -2.5,-1.11929 -2.5,-2.5z" fill-opacity="0.58824" fill="#5c5c5c" stroke="none" stroke-width="0.5"/><path d="M349.58342,51.5c0,-1.38071 1.11929,-2.5 2.5,-2.5c1.38071,0 2.5,1.11929 2.5,2.5c0,1.38071 -1.11929,2.5 -2.5,2.5c-1.38071,0 -2.5,-1.11929 -2.5,-2.5z" fill-opacity="0.58824" fill="#a5a5a5" stroke="none" stroke-width="0.5"/><path d="M445.58339,56.5c0,-1.38071 1.11929,-2.5 2.5,-2.5c1.38071,0 2.5,1.11929 2.5,2.5c0,1.38071 -1.11929,2.5 -2.5,2.5c-1.38071,0 -2.5,-1.11929 -2.5,-2.5z" fill-opacity="0.58824" fill="#a5a5a5" stroke="none" stroke-width="0.5"/><path d="M432.58342,88.5c0,-1.38071 1.11929,-2.5 2.5,-2.5c1.38071,0 2.5,1.11929 2.5,2.5c0,1.38071 -1.11929,2.5 -2.5,2.5c-1.38071,0 -2.5,-1.11929 -2.5,-2.5z" fill-opacity="0.58824" fill="#a5a5a5" stroke="none" stroke-width="0.5"/><path d="M382.58342,96.5c0,-1.38071 1.11929,-2.5 2.5,-2.5c1.38071,0 2.5,1.11929 2.5,2.5c0,1.38071 -1.11929,2.5 -2.5,2.5c-1.38071,0 -2.5,-1.11929 -2.5,-2.5z" fill-opacity="0.58824" fill="#fefefe" stroke="none" stroke-width="0.5"/><path d="M174.58338,120.5c0,-1.38071 1.11929,-2.5 2.5,-2.5c1.38071,0 2.5,1.11929 2.5,2.5c0,1.38071 -1.11929,2.5 -2.5,2.5c-1.38071,0 -2.5,-1.11929 -2.5,-2.5z" fill-opacity="0.58824" fill="#a5a5a5" stroke="none" stroke-width="0.5"/><path d="M99.58337,94.5c0,-1.38071 1.11929,-2.5 2.5,-2.5c1.38071,0 2.5,1.11929 2.5,2.5c0,1.38071 -1.11929,2.5 -2.5,2.5c-1.38071,0 -2.5,-1.11929 -2.5,-2.5z" fill-opacity="0.36078" fill="#a6a6a6" stroke="none" stroke-width="0.5"/><path d="M44.58338,84.5c0,-1.38071 1.11929,-2.5 2.5,-2.5c1.38071,0 2.5,1.11929 2.5,2.5c0,1.38071 -1.11929,2.5 -2.5,2.5c-1.38071,0 -2.5,-1.11929 -2.5,-2.5z" fill-opacity="0.58824" fill="#a5a5a5" stroke="none" stroke-width="0.5"/><path d="M146.58337,69.5c0,-1.38071 1.11929,-2.5 2.5,-2.5c1.38071,0 2.5,1.11929 2.5,2.5c0,1.38071 -1.11929,2.5 -2.5,2.5c-1.38071,0 -2.5,-1.11929 -2.5,-2.5z" fill-opacity="0.58824" fill="#d5d5d5" stroke="none" stroke-width="0.5"/><path d="M156.58337,37.5c0,-1.38071 1.11929,-2.5 2.5,-2.5c1.38071,0 2.5,1.11929 2.5,2.5c0,1.38071 -1.11929,2.5 -2.5,2.5c-1.38071,0 -2.5,-1.11929 -2.5,-2.5z" fill-opacity="0.58824" fill="#a5a5a5" stroke="none" stroke-width="0.5"/><path d="M186.5834,68.5c0,-1.38071 1.11929,-2.5 2.5,-2.5c1.38071,0 2.5,1.11929 2.5,2.5c0,1.38071 -1.11929,2.5 -2.5,2.5c-1.38071,0 -2.5,-1.11929 -2.5,-2.5z" fill-opacity="0.58824" fill="#a5a5a5" stroke="none" stroke-width="0.5"/><path d="M295.58338,13.5c0,-1.38071 1.11929,-2.5 2.5,-2.5c1.38071,0 2.5,1.11929 2.5,2.5c0,1.38071 -1.11929,2.5 -2.5,2.5c-1.38071,0 -2.5,-1.11929 -2.5,-2.5z" fill-opacity="0.58824" fill="#a5a5a5" stroke="none" stroke-width="0.5"/><path d="M306.58338,69.5c0,-1.38071 1.11929,-2.5 2.5,-2.5c1.38071,0 2.5,1.11929 2.5,2.5c0,1.38071 -1.11929,2.5 -2.5,2.5c-1.38071,0 -2.5,-1.11929 -2.5,-2.5z" fill-opacity="0.58824" fill="#a5a5a5" stroke="none" stroke-width="0.5"/><path d="M349.58342,104.5c0,-1.38071 1.11929,-2.5 2.5,-2.5c1.38071,0 2.5,1.11929 2.5,2.5c0,1.38071 -1.11929,2.5 -2.5,2.5c-1.38071,0 -2.5,-1.11929 -2.5,-2.5z" fill-opacity="0.58824" fill="#a5a5a5" stroke="none" stroke-width="0.5"/><path d="M384.58342,77.5c0,-1.38071 1.11929,-2.5 2.5,-2.5c1.38071,0 2.5,1.11929 2.5,2.5c0,1.38071 -1.11929,2.5 -2.5,2.5c-1.38071,0 -2.5,-1.11929 -2.5,-2.5z" fill-opacity="0.58824" fill="#a5a5a5" stroke="none" stroke-width="0.5"/><path d="M414.58342,45.5c0,-1.38071 1.11929,-2.5 2.5,-2.5c1.38071,0 2.5,1.11929 2.5,2.5c0,1.38071 -1.11929,2.5 -2.5,2.5c-1.38071,0 -2.5,-1.11929 -2.5,-2.5z" fill-opacity="0.58824" fill="#a5a5a5" stroke="none" stroke-width="0.5"/><path d="M440.58339,9.5c0,-1.38071 1.11929,-2.5 2.5,-2.5c1.38071,0 2.5,1.11929 2.5,2.5c0,1.38071 -1.11929,2.5 -2.5,2.5c-1.38071,0 -2.5,-1.11929 -2.5,-2.5z" fill-opacity="0.58824" fill="#a5a5a5" stroke="none" stroke-width="0.5"/><path d="M242.5834,80.5c0,-1.38071 1.11929,-2.5 2.5,-2.5c1.38071,0 2.5,1.11929 2.5,2.5c0,1.38071 -1.11929,2.5 -2.5,2.5c-1.38071,0 -2.5,-1.11929 -2.5,-2.5z" fill-opacity="0.58824" fill="#f8f8f8" stroke="none" stroke-width="0.5"/><path d="M95.58337,40.5c0,-1.38071 1.11929,-2.5 2.5,-2.5c1.38071,0 2.5,1.11929 2.5,2.5c0,1.38071 -1.11929,2.5 -2.5,2.5c-1.38071,0 -2.5,-1.11929 -2.5,-2.5z" fill-opacity="0.58824" fill="#a5a5a5" stroke="none" stroke-width="0.5"/><path d="M13.58338,42.5c0,-1.38071 1.11929,-2.5 2.5,-2.5c1.38071,0 2.5,1.11929 2.5,2.5c0,1.38071 -1.11929,2.5 -2.5,2.5c-1.38071,0 -2.5,-1.11929 -2.5,-2.5z" fill-opacity="0.58824" fill="#a5a5a5" stroke="none" stroke-width="0.5"/><path d="M12.58338,51.5c0,-1.38071 1.11929,-2.5 2.5,-2.5c1.38071,0 2.5,1.11929 2.5,2.5c0,1.38071 -1.11929,2.5 -2.5,2.5c-1.38071,0 -2.5,-1.11929 -2.5,-2.5z" fill-opacity="0.58824" fill="#a5a5a5" stroke="none" stroke-width="0.5"/><path d="M449.58339,113.5c0,-1.38071 1.11929,-2.5 2.5,-2.5c1.38071,0 2.5,1.11929 2.5,2.5c0,1.38071 -1.11929,2.5 -2.5,2.5c-1.38071,0 -2.5,-1.11929 -2.5,-2.5z" fill-opacity="0.58824" fill="#a5a5a5" stroke="none" stroke-width="0.5"/><path d="M455.58339,90.5c0,-1.38071 1.11929,-2.5 2.5,-2.5c1.38071,0 2.5,1.11929 2.5,2.5c0,1.38071 -1.11929,2.5 -2.5,2.5c-1.38071,0 -2.5,-1.11929 -2.5,-2.5z" fill-opacity="0.58824" fill="#a5a5a5" stroke="none" stroke-width="0.5"/><path d="M519.91063,-195.65882c-36.20291,112.33471 -146.3549,195.74235 -278.83614,199.38063c-133.94763,3.67855 -249.57886,-75.31779 -290.73706,-187.44713" data-paper-data="{&quot;index&quot;:null}" fill="none" stroke-opacity="0.08235" stroke="#616161" stroke-width="50"/><path d="M522.91063,-159.65882c-36.20291,112.33472 -146.3549,195.74235 -278.83615,199.38063c-133.94763,3.67855 -249.57886,-75.31779 -290.73706,-187.44713" data-paper-data="{&quot;index&quot;:null}" fill="none" stroke-opacity="0.08235" stroke="#616161" stroke-width="50"/><path d="M328.76322,-5c0,48.66233 -39.29291,88.11095 -87.76318,88.11095c-48.47027,0 -87.76318,-39.44862 -87.76318,-88.11095c0,-48.66233 39.29291,-88.11095 87.76318,-88.11095c48.47027,0 87.76318,39.44862 87.76318,88.11095z" fill="none" stroke="url(#color-1)" stroke-width="50"/><text transform="translate(43.62403,96.92559) scale(0.38271,0.38271)" font-size="40" xml:space="preserve" fill="#dadada" fill-rule="nonzero" stroke="#dadada" stroke-width="2" stroke-linecap="butt" stroke-linejoin="miter" stroke-miterlimit="10" stroke-dasharray="" stroke-dashoffset="0" font-family="Sans Serif" font-weight="normal" text-anchor="start" style="mix-blend-mode: normal"><tspan x="0" dy="0">音乐设计组</tspan></text><text transform="translate(46.62403,133.23533) scale(0.73835,0.73835)" font-size="40" xml:space="preserve" fill="#ffffff" fill-rule="nonzero" stroke="#ffffff" stroke-width="1" stroke-linecap="butt" stroke-linejoin="miter" stroke-miterlimit="10" stroke-dasharray="" stroke-dashoffset="0" font-family="Sans Serif" font-weight="normal" text-anchor="start" style="mix-blend-mode: normal"><tspan x="0" dy="0">春暮 Q</tspan></text><text transform="translate(43.62403,162.21069) scale(0.41984,0.41984)" font-size="40" xml:space="preserve" fill="#ffffff" fill-rule="nonzero" stroke="none" stroke-width="1" stroke-linecap="butt" stroke-linejoin="miter" stroke-miterlimit="10" stroke-dasharray="" stroke-dashoffset="0" font-family="Sans Serif" font-weight="normal" text-anchor="start" style="mix-blend-mode: normal"><tspan x="0" dy="0"> “听的开心!“</tspan></text><text transform="translate(47.62404,194.73383) scale(0.73835,0.73835)" font-size="40" xml:space="preserve" fill="#ffffff" fill-rule="nonzero" stroke="#ffffff" stroke-width="2" stroke-linecap="butt" stroke-linejoin="miter" stroke-miterlimit="10" stroke-dasharray="" stroke-dashoffset="0" font-family="Sans Serif" font-weight="normal" text-anchor="start" style="mix-blend-mode: normal"><tspan x="0" dy="0">𝙽𝚊𝚗𝚝𝚛𝚘𝚕</tspan></text><text transform="translate(49.92404,209.06576) scale(0.23452,0.23452)" font-size="40" xml:space="preserve" fill="#dadada" fill-rule="nonzero" stroke="none" stroke-width="1" stroke-linecap="butt" stroke-linejoin="miter" stroke-miterlimit="10" stroke-dasharray="" stroke-dashoffset="0" font-family="Sans Serif" font-weight="normal" text-anchor="start" style="mix-blend-mode: normal"><tspan x="0" dy="0">特邀ALLTALE主题背景乐《Into the Darkness》</tspan><tspan x="0" dy="48px">ALLTALE纪念收录曲《Memo》作者.</tspan></text><g fill="#ffffff" font-family="Sans Serif" font-weight="normal" font-size="40" text-anchor="start"><text transform="translate(166.59354,346.25401) scale(0.27013,0.27013)" font-size="40" xml:space="preserve" fill="#ffffff" fill-rule="nonzero" stroke="#ffffff" stroke-width="2" stroke-linecap="butt" stroke-linejoin="miter" stroke-miterlimit="10" stroke-dasharray="" stroke-dashoffset="0" font-family="Sans Serif" font-weight="normal" text-anchor="start" style="mix-blend-mode: normal"><tspan x="0" dy="0">ΔГГΤΛΓΞ</tspan></text><text transform="translate(215.6845,347.12129) scale(0.29055,0.29055)" font-size="40" xml:space="preserve" fill="#ffffff" fill-rule="nonzero" stroke="none" stroke-width="1" stroke-linecap="butt" stroke-linejoin="miter" stroke-miterlimit="10" stroke-dasharray="" stroke-dashoffset="0" font-family="Sans Serif" font-weight="normal" text-anchor="start" style="mix-blend-mode: normal"><tspan x="0" dy="0">| Merithemm Studio</tspan></text></g></g></g></svg>