<svg version="1.1" xmlns="http://www.w3.org/2000/svg" xmlns:xlink="http://www.w3.org/1999/xlink" width="648.98442" height="608.37419" viewBox="0,0,648.98442,608.37419"><defs><radialGradient cx="239.50003" cy="407.43711" r="244.5" gradientUnits="userSpaceOnUse" id="color-1"><stop offset="0" stop-color="#ffffff"/><stop offset="1" stop-color="#c6c6c6"/></radialGradient><radialGradient cx="239.74224" cy="422.21488" r="299.74221" gradientUnits="userSpaceOnUse" id="color-2"><stop offset="0" stop-color="#ffffff"/><stop offset="1" stop-color="#ffffff" stop-opacity="0"/></radialGradient></defs><g transform="translate(84.74999,-118.02778)"><g data-paper-data="{&quot;isPaintingLayer&quot;:true}" fill-rule="nonzero" stroke-linecap="butt" stroke-linejoin="miter" stroke-miterlimit="10" stroke-dasharray="" stroke-dashoffset="0" style="mix-blend-mode: normal"><g fill="none"><path d="M484.00003,407.4371c0,125.88618 -109.46638,227.9371 -244.5,227.9371c-135.03362,0 -244.5,-102.05092 -244.5,-227.9371c0,-125.88618 109.46638,-227.93709 244.5,-227.93709c135.03362,0 244.5,102.05092 244.5,227.9371z" stroke="url(#color-1)" stroke-width="34.5"/><path d="M507.66671,421.72957c0,138.24311 -120.21155,250.31129 -268.5,250.31129c-148.28845,0 -268.5,-112.06818 -268.5,-250.31129c0,-138.24311 120.21155,-250.31129 268.5,-250.31129c148.28845,0 268.5,112.06818 268.5,250.31129z" stroke-opacity="0.25098" stroke="#ffffff" stroke-width="34.5"/><path d="M484.00003,403.4371c0,125.88618 -109.46638,227.9371 -244.5,227.9371c-135.03362,0 -244.5,-102.05092 -244.5,-227.9371c0,-125.88618 109.46638,-227.93709 244.5,-227.93709c135.03362,0 244.5,102.05092 244.5,227.9371z" stroke="#ffffff" stroke-width="34.5"/><path d="M539.48443,422.21487c0,154.32884 -134.19916,279.4371 -299.74221,279.4371c-165.54305,0 -299.74221,-125.10826 -299.74221,-279.4371c0,-154.32884 134.19916,-279.43709 299.74221,-279.43709c165.54305,0 299.74221,125.10826 299.74221,279.4371z" stroke="url(#color-2)" stroke-width="49.5"/></g><text transform="translate(207.632,184.8552) scale(0.4046,0.4046)" font-size="40" xml:space="preserve" fill="#000000" fill-rule="nonzero" stroke="#000000" stroke-width="1" stroke-linecap="butt" stroke-linejoin="miter" stroke-miterlimit="10" stroke-dasharray="" stroke-dashoffset="0" font-family="Sans Serif" font-weight="normal" text-anchor="start" style="mix-blend-mode: normal"><tspan x="0" dy="0">记忆恢复</tspan></text></g></g></svg>