<svg version="1.1" xmlns="http://www.w3.org/2000/svg" xmlns:xlink="http://www.w3.org/1999/xlink" width="32.875" height="32.42466" viewBox="0,0,32.875,32.42466"><g transform="translate(-223.5625,-163.78767)"><g data-paper-data="{&quot;isPaintingLayer&quot;:true}" fill-rule="nonzero" stroke="none" stroke-linecap="butt" stroke-linejoin="miter" stroke-miterlimit="10" stroke-dasharray="" stroke-dashoffset="0" style="mix-blend-mode: normal"><path d="M240,187.425c-0.675,0 -1.35,-0.1125 -1.9125,-0.3375c-0.5625,-0.225 -1.0125,-0.45 -1.4625,-0.9c-0.45,-0.3375 -0.675,-0.7875 -0.9,-1.35c-0.225,-0.5625 -0.3375,-1.125 -0.3375,-1.8v-6.075c0,-0.675 0.1125,-1.2375 0.3375,-1.8c0.225,-0.5625 0.5625,-1.0125 0.9,-1.35c0.45,-0.3375 0.9,-0.675 1.4625,-0.9c0.5625,-0.225 1.2375,-0.3375 1.9125,-0.3375c1.35,0 2.3625,0.3375 3.2625,1.125c0.7875,0.7875 1.2375,1.6875 1.35,3.0375h-2.25c-0.1125,-0.675 -0.3375,-1.2375 -0.7875,-1.575c-0.45,-0.3375 -1.0125,-0.5625 -1.6875,-0.5625c-0.7875,0 -1.35,0.225 -1.8,0.675c-0.45,0.45 -0.675,1.0125 -0.675,1.8v6.075c0,0.7875 0.225,1.35 0.675,1.8c0.45,0.45 1.0125,0.675 1.8,0.675c0.675,0 1.2375,-0.225 1.6875,-0.5625c0.45,-0.3375 0.675,-0.9 0.7875,-1.575h2.25c0,0.675 -0.225,1.2375 -0.45,1.6875c-0.225,0.5625 -0.5625,0.9 -0.9,1.35c-0.45,0.3375 -0.9,0.675 -1.4625,0.7875c-0.5625,0.1125 -1.125,0.1125 -1.8,0.1125z" fill="#ffffff" stroke-width="1"/><path d="M223.5625,196.21233v-32.42466h32.875v32.42466z" fill="none" stroke-width="0"/></g></g></svg>