<svg version="1.1" xmlns="http://www.w3.org/2000/svg" xmlns:xlink="http://www.w3.org/1999/xlink" width="32.875" height="32.42466" viewBox="0,0,32.875,32.42466"><g transform="translate(-223.5625,-163.78767)"><g data-paper-data="{&quot;isPaintingLayer&quot;:true}" fill-rule="nonzero" stroke="none" stroke-linecap="butt" stroke-linejoin="miter" stroke-miterlimit="10" stroke-dasharray="" stroke-dashoffset="0" style="mix-blend-mode: normal"><path d="M235.33125,183.0375v-6.075c0,-0.675 0.1125,-1.2375 0.3375,-1.8c0.225,-0.5625 0.5625,-1.0125 0.9,-1.35c0.45,-0.3375 0.9,-0.675 1.4625,-0.9c0.5625,-0.225 1.2375,-0.3375 1.9125,-0.3375c1.35,0 2.3625,0.3375 3.15,1.0125c0.7875,0.675 1.35,1.575 1.575,2.8125h-2.25c-0.1125,-0.5625 -0.3375,-1.0125 -0.7875,-1.35c-0.45,-0.3375 -1.0125,-0.45 -1.6875,-0.45c-0.7875,0 -1.35,0.225 -1.8,0.675c-0.45,0.45 -0.675,1.0125 -0.675,1.6875v6.075c0,0.7875 0.225,1.35 0.675,1.8c0.45,0.45 1.0125,0.675 1.8,0.675c0.7875,0 1.35,-0.225 1.8,-0.675c0.45,-0.45 0.675,-1.0125 0.675,-1.8v-1.575h-2.7v-1.9125h4.95v3.4875c0,0.675 -0.1125,1.2375 -0.3375,1.8c-0.225,0.5625 -0.5625,1.0125 -0.9,1.35c-0.45,0.3375 -0.9,0.675 -1.4625,0.9c-0.5625,0.225 -1.2375,0.3375 -1.9125,0.3375c-0.675,0 -1.35,-0.1125 -1.9125,-0.3375c-0.5625,-0.225 -1.0125,-0.45 -1.4625,-0.9c-0.45,-0.3375 -0.675,-0.7875 -0.9,-1.35c-0.3375,-0.5625 -0.45,-1.125 -0.45,-1.8z" fill="#ffffff" stroke-width="1"/><path d="M223.5625,196.21233v-32.42466h32.875v32.42466z" fill="none" stroke-width="0"/></g></g></svg>