<svg version="1.1" xmlns="http://www.w3.org/2000/svg" xmlns:xlink="http://www.w3.org/1999/xlink" width="212.81273" height="28.48334" viewBox="0,0,212.81273,28.48334"><g transform="translate(-133.32938,-173.59166)"><g data-paper-data="{&quot;isPaintingLayer&quot;:true}" fill-rule="nonzero" stroke-linecap="butt" stroke-linejoin="miter" stroke-miterlimit="10" stroke-dasharray="" stroke-dashoffset="0" style="mix-blend-mode: normal"><path d="M346.14211,178.33314c0,6.28832 0,15.23476 0,18.39858c0,1.74518 -2.81224,5.34328 -4.82617,5.34328c-24.78112,0 -187.45666,0 -203.00943,0c-2.30988,0 -4.97713,-3.25265 -4.97713,-4.99782c0,-3.34526 0,-12.32284 0,-18.39858c0,-2.23633 2.79737,-5.08694 4.84056,-5.08694c14.29165,0 170.72698,0 202.44067,0c3.56048,0 5.5315,1.93353 5.5315,4.74148z" data-paper-data="{&quot;index&quot;:null}" fill="#ff7d7d" stroke="none" stroke-width="0"/><text transform="translate(158.634,192.54863) scale(0.40683,0.40683)" font-size="40" xml:space="preserve" data-paper-data="{&quot;index&quot;:null}" fill="#ffffff" fill-rule="nonzero" stroke="#ffffff" stroke-width="1" stroke-linecap="butt" stroke-linejoin="miter" stroke-miterlimit="10" stroke-dasharray="" stroke-dashoffset="0" font-family="Sans Serif" font-weight="normal" text-anchor="start" style="mix-blend-mode: normal"><tspan x="0" dy="0">鸽子制作组还没做而已</tspan></text><path d="M155.25,187.62501v-1.25h169.5v1.25z" fill="#ffffff" stroke="#ffffff" stroke-width="0.5"/></g></g></svg>