<svg version="1.1" xmlns="http://www.w3.org/2000/svg" xmlns:xlink="http://www.w3.org/1999/xlink" width="100" height="100" viewBox="0,0,100,100"><defs><radialGradient cx="240" cy="180" r="50" gradientUnits="userSpaceOnUse" id="color-1"><stop offset="0" stop-color="#ffffff" stop-opacity="0"/><stop offset="1" stop-color="#ffffff" stop-opacity="0"/></radialGradient></defs><g transform="translate(-190,-130)"><g data-paper-data="{&quot;isPaintingLayer&quot;:true}" fill-rule="nonzero" stroke-linejoin="miter" stroke-miterlimit="10" stroke-dasharray="" stroke-dashoffset="0" style="mix-blend-mode: normal"><path d="M263.94433,167.81128v27.19855h-48v-27.19855z" fill="#ffffff" stroke="none" stroke-width="0" stroke-linecap="butt"/><g fill="#ffffff" stroke="#33b1ff" stroke-width="3" stroke-linecap="round"><path d="M214.83083,169.64504v-4.664v30.10972v-6.08697" data-paper-data="{&quot;index&quot;:null}"/><path d="M265.16917,188.93198v6.08697v-30.10971v4.66399" data-paper-data="{&quot;index&quot;:null}"/></g><path d="M263.94433,168.4056l-24.375,9.25l-23.125,-8.75" fill="none" stroke="#33b1ff" stroke-width="3" stroke-linecap="round"/><path d="M263.81934,174.7806l-24.375,9.25l-23.125,-8.75" fill="none" stroke-opacity="0.67059" stroke="#33b1ff" stroke-width="3" stroke-linecap="round"/><path d="M263.875,182.875l-24.375,9.25l-23.125,-8.75" fill="none" stroke-opacity="0.33333" stroke="#33b1ff" stroke-width="3" stroke-linecap="round"/><path d="M222.72303,166.43432h-6.54818c0,0 30.33667,0 42.75811,0c2.43367,0 4.17964,0 4.875,0c0.65486,0 -17.61617,0 -17.61617,0" data-paper-data="{&quot;index&quot;:null}" fill="#ffffff" stroke="#33b1ff" stroke-width="3" stroke-linecap="round"/><path d="M190,230v-100h100v100z" fill="none" stroke="url(#color-1)" stroke-width="0" stroke-linecap="butt"/></g></g></svg>