<svg version="1.1" xmlns="http://www.w3.org/2000/svg" xmlns:xlink="http://www.w3.org/1999/xlink" width="32.875" height="32.42466" viewBox="0,0,32.875,32.42466"><g transform="translate(-223.5625,-163.78767)"><g data-paper-data="{&quot;isPaintingLayer&quot;:true}" fill-rule="nonzero" stroke="none" stroke-linecap="butt" stroke-linejoin="miter" stroke-miterlimit="10" stroke-dasharray="" stroke-dashoffset="0" style="mix-blend-mode: normal"><path d="M238.81875,179.775l-3.9375,-7.0875h2.475l2.025,3.825c0.1125,0.225 0.225,0.3375 0.225,0.45c0.1125,0.1125 0.1125,0.3375 0.225,0.45c0,0.1125 0.1125,0.225 0.1125,0.3375h0.1125c0,-0.1125 0.1125,-0.225 0.1125,-0.3375c0,-0.1125 0.1125,-0.225 0.225,-0.3375c0.1125,-0.1125 0.1125,-0.3375 0.225,-0.45l2.1375,-3.825h2.3625l-3.9375,6.975l4.1625,7.5375h-2.475l-2.25,-4.275c-0.1125,-0.225 -0.225,-0.3375 -0.225,-0.5625c0,-0.225 -0.1125,-0.3375 -0.225,-0.45c-0.1125,-0.1125 -0.1125,-0.225 -0.1125,-0.3375h-0.1125c0,0.1125 -0.1125,0.225 -0.1125,0.3375c0,0.1125 -0.1125,0.225 -0.225,0.45c-0.1125,0.1125 -0.1125,0.3375 -0.225,0.45l-2.25,4.275h-2.475z" fill="#ffffff" stroke-width="1"/><path d="M223.5625,196.21233v-32.42466h32.875v32.42466z" fill="none" stroke-width="0"/></g></g></svg>