<svg version="1.1" xmlns="http://www.w3.org/2000/svg" xmlns:xlink="http://www.w3.org/1999/xlink" width="89.10717" height="89.10717" viewBox="0,0,89.10717,89.10717"><defs><radialGradient cx="240.00002" cy="180" r="22.29995" gradientUnits="userSpaceOnUse" id="color-1"><stop offset="0" stop-color="#ffc854"/><stop offset="1" stop-color="#ffc854" stop-opacity="0"/></radialGradient></defs><g transform="translate(-195.4465,-135.44645)"><g data-paper-data="{&quot;isPaintingLayer&quot;:true}" fill-rule="nonzero" stroke-linejoin="miter" stroke-miterlimit="10" stroke-dasharray="" stroke-dashoffset="0" style="mix-blend-mode: normal"><path d="M230.58333,179.95834l31.71662,-0.00176l-44.5999,0.08684" fill="none" stroke="url(#color-1)" stroke-width="16" stroke-linecap="round"/><path d="M195.4465,224.55362v-89.10717h89.10717v89.10717z" fill="none" stroke="none" stroke-width="0" stroke-linecap="butt"/><path d="M223.08904,182.04167c0,-1.21724 0,-3.38732 0,-4.08333c0,-0.08379 0.6785,-1.05833 1.24433,-1.05833c3.12436,0 25.97464,0 31.41667,0c0.74255,0 1.161,0.55923 1.161,1.30833c0,1.17437 0,2.8154 0,3.5c0,0.60324 -0.48131,1.39167 -1.32767,1.39167c-5.74665,0 -28.3227,0 -31.33333,0c-0.65122,0 -1.161,-0.43785 -1.161,-1.05833z" fill="#ffffff" stroke="#ffb855" stroke-width="2" stroke-linecap="butt"/><path d="M214.13508,175.125c0,0 3.69848,3.49497 4.51425,4.23427c0.28195,0.25551 0.40776,0.96609 0.03895,1.29518c-0.8991,0.80228 -4.63653,4.13721 -4.63653,4.13721" data-paper-data="{&quot;index&quot;:null}" fill="none" stroke="#ffb854" stroke-width="3" stroke-linecap="round"/><path d="M265.25001,184.875c0,0 -3.73743,-3.33494 -4.63653,-4.13721c-0.36881,-0.32909 -0.243,-1.03967 0.03895,-1.29518c0.81578,-0.7393 4.51425,-4.23427 4.51425,-4.23427" data-paper-data="{&quot;index&quot;:null}" fill="none" stroke="#ffb854" stroke-width="3" stroke-linecap="round"/></g></g></svg>