<svg version="1.1" xmlns="http://www.w3.org/2000/svg" xmlns:xlink="http://www.w3.org/1999/xlink" width="107.21038" height="107.21038" viewBox="0,0,107.21038,107.21038"><defs><radialGradient cx="413.66004" cy="116.01088" r="30.62439" gradientUnits="userSpaceOnUse" id="color-1"><stop offset="0" stop-color="#b7282c" stop-opacity="0.25"/><stop offset="0.177" stop-color="#b4272b" stop-opacity="0.2057"/><stop offset="0.3262" stop-color="#a92529" stop-opacity="0.1684"/><stop offset="0.4654" stop-color="#982124" stop-opacity="0.1337"/><stop offset="0.5984" stop-color="#7f1c1f" stop-opacity="0.1004"/><stop offset="0.7272" stop-color="#5f1517" stop-opacity="0.0682"/><stop offset="0.8526" stop-color="#380c0e" stop-opacity="0.03685"/><stop offset="0.9733" stop-color="#0b0203" stop-opacity="0.00668"/><stop offset="1" stop-color="#000000" stop-opacity="0"/></radialGradient></defs><g transform="translate(-360.97618,-66.88831)"><g data-paper-data="{&quot;isPaintingLayer&quot;:true}" fill-rule="nonzero" stroke="none" stroke-width="1" stroke-linecap="butt" stroke-linejoin="miter" stroke-miterlimit="10" stroke-dasharray="" stroke-dashoffset="0" style="mix-blend-mode: normal"><path d="M360.97619,120.4935l53.60519,-53.60519l53.60519,53.60519l-53.60519,53.60519z" fill-opacity="0.1451" fill="#182447"/><g fill="#ffffff" opacity="0.75"><path d="M368.87816,125.66685c0,0 -0.05778,-0.11557 -0.05778,-0.28891c0,-0.17334 0.17334,-0.28891 0.46225,-0.23113c0.05778,0 0.17335,-0.11557 0.46226,-0.3467l2.13793,-2.13793v-0.05778l-0.6356,-0.6356c-0.23113,-0.23113 -0.23113,-0.40447 -0.11557,-0.52004c0.17334,-0.17334 0.3467,-0.11556 0.52004,0.11557l0.75116,0.75116c0.23113,0.23113 0.23113,0.40448 0,0.6356l-2.25349,2.25349v0.05778l0.52004,0.11557c0.28891,0.05778 0.40447,0.17334 0.40447,0.34669c-0.05778,0.17334 -0.17334,0.23113 -0.46225,0.23113l-1.32899,-0.23113c-0.23113,-0.05778 -0.40447,-0.05778 -0.40447,-0.05778zM371.07389,128.0359c-0.3467,-0.34669 -0.52004,-0.6356 -0.57781,-0.86672c0,-0.23113 0.11557,-0.46225 0.40447,-0.75116l2.02237,-2.02237c0.23113,-0.23113 0.40447,-0.23113 0.6356,0l1.96458,1.96458h0.05778l1.50233,-1.50233v-0.05778l-2.08015,-2.08015c-0.23113,-0.23113 -0.23113,-0.40447 -0.11557,-0.52004c0.17334,-0.17334 0.3467,-0.11557 0.52004,0.11556l2.25349,2.25349c0.23113,0.23113 0.23113,0.40448 0,0.63561l-2.08014,2.08015c-0.23113,0.23113 -0.40447,0.23113 -0.52004,0.11557c-0.17334,-0.17334 -0.11557,-0.34669 0.05777,-0.52004v-0.05778l-1.79124,-1.79124h-0.05777l-1.84902,1.84902c-0.11557,0.11557 -0.17335,0.23113 -0.17335,0.3467c0,0.11557 0.11557,0.23113 0.3467,0.46225l1.32899,1.32899c0.11557,0.11557 0.23113,0.17334 0.34669,0.23113c0.11557,0.05778 0.23113,-0.05777 0.40447,-0.17334c0.17334,-0.11557 0.23113,-0.17334 0.28891,-0.23113c0.23113,-0.23113 0.40447,-0.23113 0.52004,-0.05778c0.11557,0.17335 0.11557,0.34669 -0.11557,0.52004c-0.3467,0.3467 -0.69338,0.52004 -0.98229,0.57782c-0.28891,0.05778 -0.57782,-0.05777 -0.92451,-0.40447zM373.61627,122.08437c-0.23113,0 -0.28891,-0.17334 -0.23113,-0.46225c0,-0.17334 0,-0.46225 0,-0.92451c0,-0.28891 0.05778,-0.46225 0.28891,-0.46225c0.17334,0 0.2889,0.11557 0.3467,0.46225c0.05778,0.57782 0.05778,0.92451 0.05778,1.04008c-0.11557,0.23113 -0.23113,0.40448 -0.46225,0.3467z"/><path d="M376.10092,133.23628c-0.17334,-0.17335 -0.11557,-0.34669 0.11557,-0.52004l4.96925,-4.96925c0.23113,-0.23113 0.40447,-0.23113 0.52004,-0.11556c0.17334,0.17335 0.11557,0.34669 -0.11557,0.52004l-4.96924,4.96925c-0.23113,0.23113 -0.40447,0.23112 -0.52004,0.11557zM378.18107,134.96973c-0.69338,-0.69339 -0.80894,-1.32899 -0.3467,-1.79124c0.17334,-0.17335 0.3467,-0.2889 0.6356,-0.34669c0.3467,-0.11557 0.92451,-0.23113 1.73346,-0.3467c0.92451,-0.11557 2.19572,-0.23113 3.81361,-0.3467c0,0 0.05778,0.00001 0,-0.05777l-2.02237,-2.02237c-0.23113,-0.23113 -0.23113,-0.40448 -0.11557,-0.52004c0.11557,-0.11557 0.3467,-0.11557 0.52004,0.11557l2.42685,2.36906c0.11557,0.11557 0.23113,0.28891 0.28891,0.40447c0.05778,0.17335 -0.11557,0.23113 -0.40447,0.23113l-3.69805,0.28891c-0.17334,0 -0.2889,0 -0.46225,0.05778c-0.69338,0.05778 -1.21342,0.17334 -1.44455,0.23113c-0.11557,0.05778 -0.28891,0.05777 -0.40447,0.11557c-0.11557,0.05778 -0.23113,0.11557 -0.3467,0.23113c-0.23113,0.23113 -0.11557,0.52004 0.23113,0.92451l1.67567,1.67568c0.11557,0.11557 0.23113,0.17334 0.3467,0.17334c0.11557,0 0.23113,-0.05777 0.28891,-0.11557c0.11557,-0.05778 0.23113,-0.17334 0.3467,-0.28891l0.28891,-0.23113c0.23113,-0.17335 0.40447,-0.23113 0.52004,-0.05777c0.11557,0.17335 0.11557,0.34669 -0.11557,0.52004c-0.28891,0.23113 -0.57782,0.46225 -0.80895,0.6356c-0.28891,0.17335 -0.46225,0.23113 -0.52004,0.23113c-0.11557,0 -0.2889,-0.05778 -0.46225,-0.05778c-0.05778,0 -0.17334,-0.11557 -0.40447,-0.3467zM378.4122,129.53822c-0.28891,0.11557 -0.46224,0.11557 -0.52003,-0.05778c-0.05778,-0.17335 0,-0.3467 0.2889,-0.46225c0.23113,-0.11557 0.57782,-0.3467 1.09786,-0.75116c0.23113,-0.17335 0.40447,-0.23113 0.52004,-0.05778c0.11557,0.11557 0.05777,0.28892 -0.17334,0.46225c-0.05778,0.05778 -0.28891,0.23113 -0.6356,0.46225c-0.3467,0.28891 -0.52004,0.40447 -0.57782,0.40447zM380.37679,130.69386c-0.17334,-0.05778 -0.17334,-0.23113 0,-0.52004c0.05778,-0.11557 0.17335,-0.3467 0.28891,-0.69339c0.11557,-0.28891 0.23113,-0.40447 0.34669,-0.34669c0.17334,0.05778 0.17334,0.23113 0.11557,0.52004c-0.11557,0.40447 -0.23113,0.69339 -0.28891,0.80895c-0.17334,0.23113 -0.2889,0.34669 -0.46225,0.23113z"/><path d="M383.20809,139.76564c-0.28891,0 -0.46225,-0.11557 -0.46225,-0.3467c0,-0.23113 0.17334,-0.34669 0.46225,-0.34669c0.28891,0 0.57782,0.05777 0.86673,0.17334c0.05778,0 0.11556,0.00001 0.17334,-0.05777l1.73346,-1.73346v-0.05778l-0.40447,-0.40447c-0.23113,-0.23113 -0.23113,-0.40447 -0.11557,-0.52004c0.11557,-0.11557 0.3467,-0.11558 0.52004,0.11557l0.57782,0.57782c0.23113,0.23113 0.23113,0.40448 0,0.63562l-1.79124,1.79124c0,0 -0.05778,0.05777 0,0.11557c0.05778,0.05778 0.05778,0.11557 0.05778,0.23113c0,0.11557 0.05777,0.2889 0.11557,0.46225c0.05778,0.17335 0.05777,0.28891 0.11557,0.46225c0.05778,0.11557 0.11557,0.2889 0.28891,0.46225c0.11557,0.11557 0.17334,0.23113 0.2889,0.34669c0.05778,0.11557 0.28891,0.3467 0.69339,0.75116c0.80895,0.80895 1.44455,1.38677 1.84902,1.73347c0.23113,0.17335 0.28891,0.34669 0.11557,0.52004c-0.17334,0.17335 -0.3467,0.17334 -0.57782,-0.05778c-0.57781,-0.52004 -1.21342,-1.09785 -1.90681,-1.79124c-0.3467,-0.3467 -0.6356,-0.69338 -0.86672,-0.98229c-0.23113,-0.28891 -0.3467,-0.52004 -0.40447,-0.69339c-0.05778,-0.17335 -0.05777,-0.2889 -0.11557,-0.46225v-0.11557c-0.05778,-0.28891 -0.11557,-0.46225 -0.17335,-0.52004c-0.17334,-0.23113 -0.52004,-0.28891 -1.04008,-0.28891zM385.4616,140.45902c-0.28891,-0.11557 -0.3467,-0.2889 -0.28891,-0.46225c0.05778,-0.17335 0.28891,-0.23113 0.52004,-0.05778c0.23113,0.11557 0.6356,0.11557 1.09785,0c0.40447,-0.05778 0.86673,-0.2889 1.32899,-0.69338v-0.05778l-0.75116,-0.75116c-0.23113,-0.23113 -0.23113,-0.40447 -0.11557,-0.52004c0.11557,-0.11557 0.28891,-0.11557 0.52004,0.11557l1.38677,1.38676h0.05777l0.80895,-0.80894v-0.05778l-0.80895,-0.80895c-0.05778,-0.05778 -0.11556,-0.05778 -0.17334,-0.05778c-0.3467,0.11557 -0.57782,0.17334 -0.75116,0.17334c-0.17334,0 -0.23113,-0.05777 -0.23113,-0.2889c0,-0.23113 0.11557,-0.3467 0.46226,-0.3467c0.3467,0 0.75116,-0.17334 1.2712,-0.46225c0.28891,-0.17335 0.46225,-0.11557 0.52004,0.05778c0.11557,0.17335 0.11557,0.2889 0,0.40447c-0.11557,0.05778 -0.28891,0.17335 -0.52004,0.23114c-0.05778,0 -0.05778,-0.00001 0,0.05777l0.6356,0.6356h0.05777l0.46226,-0.46225c0.23113,-0.23113 0.40447,-0.23112 0.52004,-0.11557c0.17334,0.17335 0.11556,0.3467 -0.11557,0.52004l-0.46225,0.46225v0.05778l1.04008,1.04008c0.23113,0.23113 0.23113,0.40447 0.11557,0.52004c-0.11557,0.11557 -0.28891,0.11557 -0.52004,-0.11557l-1.04008,-1.04008h-0.05777l-0.80895,0.80895v0.05778l1.32899,1.32899c0.23113,0.23113 0.23113,0.40447 0.11557,0.52004c-0.11557,0.11557 -0.28891,0.11557 -0.52004,-0.11557l-0.86672,-0.86673h-0.05778l-1.38676,1.38676c-0.05778,0.05778 -0.11557,0.11556 -0.11557,0.17334c0,0.05778 0.05777,0.11557 0.11557,0.17335l0.46225,0.46225c0.05778,0.05778 0.17334,0.05778 0.28891,0c0.11557,-0.05778 0.17334,-0.11556 0.23113,-0.17334c0.23113,-0.23113 0.40447,-0.23113 0.52004,-0.11557c0.11557,0.17335 0.05778,0.3467 -0.17334,0.52004c-0.23113,0.23113 -0.46225,0.34669 -0.6356,0.40447c-0.23113,0.05778 -0.40447,0 -0.57782,-0.23113l-0.57782,-0.57782c-0.23113,-0.23113 -0.3467,-0.40447 -0.3467,-0.57782c0,-0.17335 0.11557,-0.34669 0.3467,-0.57781l1.38677,-1.38676v-0.05778l-0.57782,-0.57781c0,0 -0.05777,-0.05778 -0.11557,0c-0.57781,0.46225 -1.09786,0.69338 -1.56011,0.80894c-0.46225,0.28891 -0.98229,0.23113 -1.44455,0.05778zM387.83066,136.47206c-0.23113,-0.05778 -0.28891,-0.11557 -0.28891,-0.23113c0,-0.11557 0.05778,-0.28891 0.05778,-0.52004c0,-0.17335 0,-0.2889 0,-0.46225c0,-0.23113 0,-0.40447 0,-0.52004c0,-0.11557 0.05778,-0.23113 0.28891,-0.23113c0.17334,0 0.2889,0.11557 0.3467,0.40447c0,0.11557 0,0.23113 0,0.46225c0,0.17335 0,0.2889 0,0.46225c0,0.23113 0,0.40447 -0.05778,0.52004c-0.05778,0.11557 -0.11557,0.17335 -0.3467,0.11557z"/><path d="M391.29756,145.94831c-0.28891,-0.11557 -0.3467,-0.28891 -0.23113,-0.52004c0.11557,-0.23113 0.28891,-0.23113 0.57782,-0.05778l0.69338,0.3467c0.05778,0 0.05777,0 0.11557,0l2.48462,-2.48462v-0.05777l-0.40447,-0.40448c-0.23113,-0.23113 -0.23113,-0.40447 -0.11557,-0.52004c0.11557,-0.11557 0.3467,-0.11558 0.52004,0.11557l1.2712,1.2712c0.23113,0.23113 0.23113,0.40447 0.11557,0.52004c-0.17334,0.17335 -0.3467,0.11557 -0.52004,-0.11556l-0.3467,-0.3467h-0.05778l-2.36906,2.36906v0.05777l0.52004,0.23113c0.28891,0.11557 0.3467,0.28892 0.28891,0.46225c-0.05778,0.17335 -0.23113,0.17334 -0.52004,0.05777zM391.93318,148.95297c-0.28891,-0.11557 -0.3467,-0.2889 -0.23113,-0.46225c0.11557,-0.17335 0.28891,-0.17334 0.52004,-0.05778c0.57781,0.3467 1.21342,0.46224 1.90681,0.34669c0.46225,-0.05778 0.86673,-0.28889 1.2712,-0.69338l0.98229,-0.98229c0.23113,-0.23113 0.40447,-0.23113 0.52004,-0.11557c0.17334,0.17335 0.11557,0.34669 -0.11557,0.52004l-0.98229,0.98229c-0.46225,0.46225 -0.98229,0.75116 -1.56011,0.86673c-0.69338,0.17335 -1.44456,0 -2.31128,-0.40447zM393.60884,147.91288c-0.17334,-0.17335 -0.11557,-0.3467 0.11557,-0.52004l2.19571,-2.19571c0.23113,-0.23113 0.40447,-0.23113 0.6356,0l0.6356,0.6356c0.05778,0.05778 0.05778,0.05778 0.11557,0l0.75116,-0.3467c0,0 0.05778,0.00001 0,-0.05777l-1.09786,-1.09786c-0.23113,-0.23113 -0.23113,-0.40448 -0.11557,-0.52004c0.11557,-0.11557 0.28891,-0.11556 0.52004,0.11557l2.88909,2.88909c0.23113,0.23113 0.23113,0.40447 0.11557,0.52004c-0.11557,0.11557 -0.28891,0.11557 -0.52004,-0.11557l-1.15563,-1.15563c-0.05778,-0.05778 -0.11557,-0.05778 -0.17334,0l-0.80895,0.2889c0,0 -0.05778,0 0,0.05778l1.09786,1.09785c0.23113,0.23113 0.23113,0.40447 0,0.6356l-2.19572,2.19572c-0.23113,0.23113 -0.40447,0.23113 -0.52004,0.11557c-0.17334,-0.17335 -0.11557,-0.34669 0.11557,-0.52004l2.08015,-2.08015v-0.05778l-1.9068,-1.90681h-0.05778l-2.08015,2.08015c-0.3467,0.05778 -0.52004,0.11557 -0.6356,-0.05778zM395.2845,152.07318c-0.23113,0 -0.2889,-0.05777 -0.2889,-0.17334c0,-0.11557 -0.05777,-0.40447 -0.11557,-0.86673c-0.05778,-0.46225 -0.11557,-0.69339 -0.11557,-0.80895c-0.05778,-0.28891 0,-0.46225 0.17334,-0.52004c0.17334,-0.05778 0.2889,0.05778 0.3467,0.3467c0.17334,0.75116 0.28891,1.2712 0.28891,1.56011c0,0.3467 -0.11557,0.46225 -0.28891,0.46225z"/></g><path d="M369.34043,119.36861l-3.00466,3.00466c-0.3467,0.34669 -0.92452,0.34669 -1.2712,0v0c-0.3467,-0.34669 -0.3467,-0.92451 0,-1.2712l3.00466,-3.00467c0.3467,-0.34669 0.92452,-0.34669 1.2712,0v0c0.3467,0.34669 0.3467,0.92452 0,1.2712z" fill="#db007c" opacity="0.75"/><path d="M383.15032,116.07504c0,-16.9134 13.71103,-30.62443 30.62444,-30.62443c16.9134,0 30.62443,13.71102 30.62443,30.62443c0,16.9134 -13.71102,30.62444 -30.62443,30.62444c-16.9134,0 -30.62444,-13.71103 -30.62444,-30.62444z" fill="url(#color-1)"/><path d="M427.98911,105.61651h-26.63748c-0.17334,0 -0.28891,-0.11557 -0.28891,-0.28891v0c0,-0.17334 0.11557,-0.28891 0.28891,-0.28891h26.63748c0.17334,0 0.2889,0.11557 0.2889,0.28891v0c-0.05778,0.17334 -0.17334,0.28891 -0.2889,0.28891z" fill="#deefe3" opacity="0.75"/><path d="M427.98911,125.1468h-26.63748c-0.17334,0 -0.28891,-0.11556 -0.28891,-0.28891v0c0,-0.17334 0.11557,-0.28891 0.28891,-0.28891h26.63748c0.17334,0 0.2889,0.11557 0.2889,0.28891v0c-0.05778,0.17334 -0.17334,0.28891 -0.2889,0.28891z" fill="#deefe3" opacity="0.75"/><path d="M427.98911,115.67057h-26.63748c-0.17334,0 -0.28891,-0.11556 -0.28891,-0.2889v0c0,-0.17334 0.11557,-0.28891 0.28891,-0.28891h26.63748c0.17334,0 0.2889,0.11556 0.2889,0.28891v0c-0.05778,0.17334 -0.17334,0.2889 -0.2889,0.2889z" fill="#deefe3" opacity="0.75"/><path d="M409.20998,106.71436h-2.71576c-0.75116,0 -1.38677,-0.6356 -1.38677,-1.38676v0c0,-0.75116 0.6356,-1.38676 1.38677,-1.38676h2.71576c0.75116,0 1.38676,0.6356 1.38676,1.38676v0c-0.05778,0.75116 -0.6356,1.38676 -1.38676,1.38676z" fill="#deefe3"/><path d="M422.78873,116.76843h-2.71576c-0.75116,0 -1.38677,-0.63561 -1.38677,-1.38677v0c0,-0.75116 0.6356,-1.38676 1.38677,-1.38676h2.71576c0.75116,0 1.38676,0.6356 1.38676,1.38676v0c0,0.75116 -0.6356,1.38677 -1.38676,1.38677z" fill="#deefe3"/><path d="M415.33484,126.47579h-2.71575c-0.75116,0 -1.38677,-0.6356 -1.38677,-1.38676v0c0,-0.75116 0.6356,-1.38676 1.38677,-1.38676h2.71575c0.75116,0 1.38677,0.6356 1.38677,1.38676v0c-0.05778,0.80895 -0.6356,1.38676 -1.38677,1.38676z" fill="#deefe3"/></g></g></svg>