<svg version="1.1" xmlns="http://www.w3.org/2000/svg" xmlns:xlink="http://www.w3.org/1999/xlink" width="86.2224" height="89.44732" viewBox="0,0,86.2224,89.44732"><defs><radialGradient cx="240" cy="180.11748" r="34.59856" gradientUnits="userSpaceOnUse" id="color-1"><stop offset="0" stop-color="#ffc665"/><stop offset="1" stop-color="#ffc665" stop-opacity="0"/></radialGradient></defs><g transform="translate(-196.79645,-132.58081)"><g data-paper-data="{&quot;isPaintingLayer&quot;:true}" fill-rule="nonzero" stroke-linecap="butt" stroke-linejoin="miter" stroke-miterlimit="10" stroke-dasharray="" stroke-dashoffset="0" style="mix-blend-mode: normal"><g><path d="M205.40144,180.11748c0,-19.10826 15.4903,-34.59856 34.59856,-34.59856c19.10826,0 34.59856,15.4903 34.59856,34.59856c0,19.10826 -15.4903,34.59856 -34.59856,34.59856c-19.10826,0 -34.59856,-15.4903 -34.59856,-34.59856z" fill="url(#color-1)" stroke="none" stroke-width="0.5"/><path d="M217.49043,202.62705v-45.01914h45.01914v45.01914z" fill="none" stroke="#ffc665" stroke-width="2"/><path d="M239.45753,213.20796l-32.54802,-33.63295l33.63295,-32.54802l32.54802,33.63295z" fill="none" stroke="#ffc665" stroke-width="2"/><text transform="translate(226.35001,144.17998) scale(0.26563,0.26563)" font-size="40" xml:space="preserve" fill="#ffc869" fill-rule="nonzero" stroke="#ffc869" stroke-width="2" stroke-linecap="butt" stroke-linejoin="miter" stroke-miterlimit="10" stroke-dasharray="" stroke-dashoffset="0" font-family="Sans Serif" font-weight="normal" text-anchor="start" style="mix-blend-mode: normal"><tspan x="0" dy="0">PURE</tspan></text></g><g fill="none" stroke-opacity="0.50196" stroke="#ffc766" stroke-width="2"><path d="M209.95266,191.33827l-11.74219,-12.13359l12.63672,-12.22908"/><path d="M268.96812,168.15489l12.63671,12.22908l-11.74219,12.13359" data-paper-data="{&quot;index&quot;:null}"/><path d="M252.11419,208.34644l-12.59933,12.2676l-11.77917,-12.09769" data-paper-data="{&quot;index&quot;:null}"/></g></g></g></svg>