<svg version="1.1" xmlns="http://www.w3.org/2000/svg" xmlns:xlink="http://www.w3.org/1999/xlink" width="199.9129" height="18.66666" viewBox="0,0,199.9129,18.66666"><g transform="translate(-128.83336,-24.83335)"><g data-paper-data="{&quot;isPaintingLayer&quot;:true}" fill-rule="nonzero" stroke-linecap="butt" stroke-linejoin="miter" stroke-miterlimit="10" stroke-dasharray="" stroke-dashoffset="0" style="mix-blend-mode: normal"><path d="M130.33336,40.44446c0,-3.21572 0,-10.45226 0,-12.33334c0,-0.87289 0.6752,-1.77777 1.55555,-1.77777c4.39058,0 39.67819,0 47.55556,0c0.99757,0 1.55555,0.7142 1.55555,1.44444c0,1.73903 0,9.03023 0,12.44444c0,1.08447 -0.55792,1.77778 -1.55555,1.77778c-7.93114,0 -43.6531,0 -47.77778,0c-0.76339,0 -1.33333,-0.60041 -1.33333,-1.55555z" fill="#ffffff" stroke="#ffffff" stroke-width="3"/><text transform="translate(133.33335,37.50001) scale(0.28332,0.28332)" font-size="40" xml:space="preserve" fill="#000000" fill-rule="nonzero" stroke="#000000" stroke-width="1" stroke-linecap="butt" stroke-linejoin="miter" stroke-miterlimit="10" stroke-dasharray="" stroke-dashoffset="0" font-family="&quot;ヒラギノ角ゴ Pro W3&quot;, &quot;Hiragino Kaku Gothic Pro&quot;, Osaka, &quot;メイリオ&quot;, Meiryo, &quot;ＭＳ Ｐゴシック&quot;, &quot;MS PGothic&quot;" font-weight="normal" text-anchor="start" style="mix-blend-mode: normal"><tspan x="0" dy="0">结束更改</tspan></text><text transform="translate(185,37.56771) scale(0.27564,0.27564)" font-size="40" xml:space="preserve" fill="#ffffff" fill-rule="nonzero" stroke="none" stroke-width="1" stroke-linecap="butt" stroke-linejoin="miter" stroke-miterlimit="10" stroke-dasharray="" stroke-dashoffset="0" font-family="&quot;ヒラギノ角ゴ Pro W3&quot;, &quot;Hiragino Kaku Gothic Pro&quot;, Osaka, &quot;メイリオ&quot;, Meiryo, &quot;ＭＳ Ｐゴシック&quot;, &quot;MS PGothic&quot;" font-weight="normal" text-anchor="start" style="mix-blend-mode: normal"><tspan x="0" dy="0">点击对应按钮并按下对应按键</tspan></text></g></g></svg>