<svg version="1.1" xmlns="http://www.w3.org/2000/svg" xmlns:xlink="http://www.w3.org/1999/xlink" width="132.07681" height="117.76998" viewBox="0,0,132.07681,117.76998"><defs><radialGradient cx="240" cy="180.00001" r="34.59856" gradientUnits="userSpaceOnUse" id="color-1"><stop offset="0" stop-color="#ffc665"/><stop offset="1" stop-color="#ffc665" stop-opacity="0"/></radialGradient><radialGradient cx="205.72802" cy="154.63874" r="9.08378" gradientUnits="userSpaceOnUse" id="color-2"><stop offset="0" stop-color="#ffc665"/><stop offset="1" stop-color="#ffc665" stop-opacity="0"/></radialGradient><radialGradient cx="280.2725" cy="205.01715" r="9.08378" gradientUnits="userSpaceOnUse" id="color-3"><stop offset="0" stop-color="#ffc665"/><stop offset="1" stop-color="#ffc665" stop-opacity="0"/></radialGradient><radialGradient cx="271.56711" cy="162.32664" r="3.71361" gradientUnits="userSpaceOnUse" id="color-4"><stop offset="0" stop-color="#ffc665"/><stop offset="1" stop-color="#ffc665" stop-opacity="0"/></radialGradient><radialGradient cx="202.374" cy="201.91314" r="5.32466" gradientUnits="userSpaceOnUse" id="color-5"><stop offset="0" stop-color="#ffc665"/><stop offset="1" stop-color="#ffc665" stop-opacity="0"/></radialGradient></defs><g transform="translate(-175.8299,-120.94296)"><g data-paper-data="{&quot;isPaintingLayer&quot;:true}" fill-rule="nonzero" stroke-linejoin="miter" stroke-miterlimit="10" stroke-dasharray="" stroke-dashoffset="0" style="mix-blend-mode: normal"><path d="M217.49043,202.50958v-45.01914h45.01914v45.01914z" fill="none" stroke="#ffc665" stroke-width="2" stroke-linecap="butt"/><path d="M239.45753,213.09049l-32.54802,-33.63295l33.63295,-32.54802l32.54802,33.63295z" fill="none" stroke="#ffc665" stroke-width="2" stroke-linecap="butt"/><path d="M205.40144,180.00001c0,-19.10826 15.4903,-34.59856 34.59856,-34.59856c19.10826,0 34.59856,15.4903 34.59856,34.59856c0,19.10826 -15.4903,34.59856 -34.59856,34.59856c-19.10826,0 -34.59856,-15.4903 -34.59856,-34.59856z" fill="url(#color-1)" stroke="none" stroke-width="0.5" stroke-linecap="butt"/><path d="M208.36223,145.94296l-5.26843,17.39157" fill="none" stroke="url(#color-2)" stroke-width="50" stroke-linecap="round"/><path d="M277.63828,213.71294l5.26843,-17.39157" fill="none" stroke="url(#color-3)" stroke-width="50" stroke-linecap="round"/><path d="M270.4902,158.77166l2.15382,7.10997" fill="none" stroke="url(#color-4)" stroke-width="50" stroke-linecap="round"/><path d="M203.91811,196.81591l-3.08821,10.19445" fill="none" stroke="url(#color-5)" stroke-width="50" stroke-linecap="round"/><text transform="translate(226.35001,144.0625) scale(0.26563,0.26563)" font-size="40" xml:space="preserve" fill="#ffc869" fill-rule="nonzero" stroke="#ffc869" stroke-width="2" stroke-linecap="butt" stroke-linejoin="miter" stroke-miterlimit="10" stroke-dasharray="" stroke-dashoffset="0" font-family="Sans Serif" font-weight="normal" text-anchor="start" style="mix-blend-mode: normal"><tspan x="0" dy="0">PURE</tspan></text><g fill="none" stroke-opacity="0.50196" stroke="#ffc766" stroke-width="2" stroke-linecap="butt"><path d="M209.95266,191.33827l-11.74219,-12.13359l12.63672,-12.22908"/><path d="M268.96812,168.15489l12.63671,12.22908l-11.74219,12.13359" data-paper-data="{&quot;index&quot;:null}"/><path d="M252.11419,208.34644l-12.59933,12.2676l-11.77917,-12.09769" data-paper-data="{&quot;index&quot;:null}"/></g></g></g></svg>