<svg version="1.1" xmlns="http://www.w3.org/2000/svg" xmlns:xlink="http://www.w3.org/1999/xlink" width="32.875" height="32.42466" viewBox="0,0,32.875,32.42466"><g transform="translate(-223.5625,-163.78767)"><g data-paper-data="{&quot;isPaintingLayer&quot;:true}" fill-rule="nonzero" stroke="none" stroke-linecap="butt" stroke-linejoin="miter" stroke-miterlimit="10" stroke-dasharray="" stroke-dashoffset="0" style="mix-blend-mode: normal"><path d="M235.5,172.74375h4.3875c1.4625,0 2.475,0.3375 3.375,1.0125c0.7875,0.675 1.2375,1.575 1.2375,2.8125c0,0.9 -0.225,1.575 -0.7875,2.1375c-0.45,0.5625 -1.125,0.9 -2.025,0.9v0.1125c0.9,0.1125 1.6875,0.45 2.1375,1.0125c0.5625,0.5625 0.7875,1.35 0.7875,2.3625c0,1.2375 -0.45,2.25 -1.2375,3.0375c-0.7875,0.7875 -1.9125,1.125 -3.375,1.125h-4.6125v-14.5125zM239.8875,178.81875c0.675,0 1.2375,-0.225 1.6875,-0.5625c0.45,-0.3375 0.675,-0.9 0.675,-1.575c0,-0.675 -0.225,-1.125 -0.5625,-1.575c-0.45,-0.3375 -1.0125,-0.5625 -1.6875,-0.5625h-2.25v4.1625h2.1375zM237.6375,180.73125v4.6125h2.25c0.7875,0 1.35,-0.225 1.8,-0.5625c0.45,-0.45 0.675,-1.0125 0.675,-1.6875c0,-0.675 -0.225,-1.2375 -0.675,-1.6875c-0.45,-0.45 -1.0125,-0.5625 -1.8,-0.5625h-2.25z" fill="#ffffff" stroke-width="1"/><path d="M223.5625,196.21233v-32.42466h32.875v32.42466z" fill="none" stroke-width="0"/></g></g></svg>