<svg version="1.1" xmlns="http://www.w3.org/2000/svg" xmlns:xlink="http://www.w3.org/1999/xlink" width="32.875" height="32.42466" viewBox="0,0,32.875,32.42466"><g transform="translate(-223.5625,-163.78767)"><g data-paper-data="{&quot;isPaintingLayer&quot;:true}" fill-rule="nonzero" stroke="none" stroke-linecap="butt" stroke-linejoin="miter" stroke-miterlimit="10" stroke-dasharray="" stroke-dashoffset="0" style="mix-blend-mode: normal"><path d="M238.2,172.6875l3.6,9.675c0.1125,0.225 0.225,0.45 0.225,0.7875c0.1125,0.3375 0.1125,0.5625 0.225,0.7875c0.1125,0.3375 0.1125,0.675 0.225,1.0125h0.225c0,-0.3375 -0.1125,-0.675 -0.1125,-0.9c0,-0.225 -0.1125,-0.5625 -0.1125,-0.9c0,-0.3375 0,-0.675 0,-1.0125v-9.3375h2.025v14.5125h-2.7l-3.6,-9.675c-0.1125,-0.225 -0.225,-0.5625 -0.225,-0.9c-0.1125,-0.3375 -0.1125,-0.5625 -0.225,-0.9c-0.1125,-0.3375 -0.1125,-0.5625 -0.225,-0.9h-0.225c0,0.225 0.1125,0.5625 0.1125,0.9c0,0.225 0,0.5625 0.1125,0.9c0,0.3375 0,0.675 0,1.125v9.3375h-2.025v-14.5125z" fill="#ffffff" stroke-width="1"/><path d="M223.5625,196.21233v-32.42466h32.875v32.42466z" fill="none" stroke-width="0"/></g></g></svg>