<svg version="1.1" xmlns="http://www.w3.org/2000/svg" xmlns:xlink="http://www.w3.org/1999/xlink" width="425.88475" height="91.11118" viewBox="0,0,425.88475,91.11118"><g transform="translate(-27.12542,-119.2856)"><g data-paper-data="{&quot;isPaintingLayer&quot;:true}" fill-rule="nonzero" stroke="none" stroke-width="1" stroke-linecap="butt" stroke-linejoin="miter" stroke-miterlimit="10" stroke-dasharray="" stroke-dashoffset="0" style="mix-blend-mode: normal"><g data-paper-data="{&quot;index&quot;:null}" fill="#ffffff" opacity="0.5"><path d="M453.01018,176.95794z"/><path d=""/><path d="M452.9246,183.03775z"/><path d="M176.16583,149.68452l-27.31622,27.31623h-121.72418l27.31622,-27.27341z"/><path d="M206.65038,119.28561l-27.31622,27.31623h-121.68137l27.31623,-27.31623z"/><path d="M148.93521,183.08056l27.31622,27.31623h-121.68136l-27.31623,-27.31623z"/></g><g fill="#17499d"><path d="M55.36706,155.38619c0,-0.12844 0.04282,-0.25689 0.08563,-0.38533c0.04282,-0.12844 0.12844,-0.21408 0.21407,-0.29971c0.08563,-0.08563 0.17127,-0.17126 0.29971,-0.21408c0.12844,-0.04282 0.25689,-0.08563 0.38534,-0.08563h3.59649c0.12844,0 0.25689,0.04282 0.38534,0.08563c0.12844,0.04282 0.21408,0.12845 0.29971,0.21408c0.08563,0.08563 0.17126,0.17127 0.21407,0.29971c0.04282,0.12844 0.08563,0.25689 0.08563,0.38533v0.85631h-0.94194v-0.85631h-3.5965v4.75251h3.5965v-1.62698h-1.79825v-0.94194h2.74018v2.56892c0,0.12844 -0.04282,0.2569 -0.08563,0.38534c-0.04282,0.12844 -0.12844,0.21407 -0.21407,0.2997c-0.08563,0.08563 -0.17127,0.17127 -0.29971,0.21408c-0.12844,0.04281 -0.25689,0.08563 -0.38534,0.08563h-3.59649c-0.12844,0 -0.25689,-0.04282 -0.38534,-0.08563c-0.12844,-0.04281 -0.21408,-0.12845 -0.29971,-0.21408c-0.08563,-0.08563 -0.17126,-0.17126 -0.21407,-0.2997c-0.04282,-0.12844 -0.08563,-0.2569 -0.08563,-0.38534z" opacity="0.75"/><path d="M68.25449,160.09588c0,0.12844 -0.04281,0.2569 -0.08563,0.38534c-0.04282,0.12844 -0.12845,0.21407 -0.21408,0.2997c-0.08563,0.08563 -0.17126,0.17127 -0.29971,0.21408c-0.12844,0.04281 -0.25689,0.08563 -0.38534,0.08563h-3.81057c-0.12844,0 -0.25689,-0.04282 -0.38534,-0.08563c-0.12844,-0.04281 -0.21408,-0.12845 -0.29971,-0.21408c-0.08563,-0.08563 -0.17126,-0.17126 -0.21408,-0.2997c-0.04282,-0.12844 -0.08563,-0.2569 -0.08563,-0.38534v-4.75251c0,-0.12844 0.04282,-0.25689 0.08563,-0.38533c0.04282,-0.12844 0.12845,-0.21408 0.21408,-0.29971c0.08563,-0.08563 0.17126,-0.17126 0.29971,-0.21407c0.12844,-0.04282 0.25689,-0.08563 0.38534,-0.08563h3.81057c0.12844,0 0.25689,0.04282 0.38534,0.08563c0.12844,0.04282 0.21408,0.12844 0.29971,0.21407c0.08563,0.08563 0.17126,0.17127 0.21408,0.29971c0.04282,0.12844 0.08563,0.25689 0.08563,0.38533zM63.54484,155.38619v4.75251h3.81057v-4.75251z" opacity="0.75"/><path d="M75.6616,160.09588c0,0.12844 -0.04282,0.2569 -0.08563,0.38534c-0.04282,0.12844 -0.12845,0.21407 -0.21408,0.2997c-0.08563,0.08563 -0.17126,0.17127 -0.29971,0.21408c-0.12844,0.04281 -0.25689,0.08563 -0.38534,0.08563h-3.81057c-0.12844,0 -0.2569,-0.04282 -0.38534,-0.08563c-0.12844,-0.04281 -0.21407,-0.12845 -0.2997,-0.21408c-0.08563,-0.08563 -0.17127,-0.17126 -0.21408,-0.2997c-0.04282,-0.12844 -0.08563,-0.2569 -0.08563,-0.38534v-4.75251c0,-0.12844 0.04281,-0.25689 0.08563,-0.38533c0.04282,-0.12844 0.12845,-0.21408 0.21408,-0.29971c0.08563,-0.08563 0.17126,-0.17126 0.2997,-0.21407c0.12844,-0.04282 0.2569,-0.08563 0.38534,-0.08563h3.81057c0.12844,0 0.25689,0.04282 0.38534,0.08563c0.12844,0.04282 0.21408,0.12844 0.29971,0.21407c0.08563,0.08563 0.17126,0.17127 0.21408,0.29971c0.04282,0.12844 0.08563,0.25689 0.08563,0.38533zM70.90909,155.38619v4.75251h3.81057v-4.75251z" opacity="0.75"/><path d="M77.37417,161.08064v-6.63639h3.38242c0.34253,0 0.68505,0.04282 0.94194,0.17126c0.29971,0.12844 0.51378,0.2569 0.72786,0.47097c0.21407,0.21407 0.34253,0.42815 0.47097,0.72786c0.12844,0.29971 0.17127,0.59942 0.17127,0.94194v1.96951c0,0.34252 -0.04282,0.68505 -0.17127,0.94194c-0.12844,0.25689 -0.2569,0.51379 -0.47097,0.72787c-0.21407,0.21408 -0.42815,0.34252 -0.72786,0.47097c-0.29971,0.12844 -0.59941,0.17126 -0.94194,0.17126h-3.38242zM80.7138,160.09588c0.42816,0 0.77068,-0.12845 1.02757,-0.34252c0.25689,-0.21408 0.34253,-0.5566 0.34253,-1.02757v-1.96951c0,-0.21407 -0.04281,-0.42815 -0.08563,-0.59941c-0.04282,-0.17126 -0.17127,-0.29971 -0.2569,-0.42816c-0.08563,-0.12844 -0.25689,-0.21408 -0.42816,-0.2569c-0.17126,-0.04282 -0.34252,-0.08563 -0.59941,-0.08563h-2.44047v4.75251h2.44047z" opacity="0.75"/><path d="M84.48155,156.11408h1.3701v1.37009h-1.3701zM84.48155,159.66769h1.3701v1.37009h-1.3701z" opacity="0.75"/></g><g fill="#17499d"><path d="" opacity="0.75"/><path d="" opacity="0.75"/><path d="" opacity="0.75"/><path d="" opacity="0.75"/><path d=""/><path d=""/><path d=""/><path d=""/><path d=""/><path d=""/></g><g fill="#17499d"><path d="" opacity="0.75"/><path d=""/><path d=""/><path d=""/><path d=""/><path d=""/><path d=""/><path d=""/></g><g fill="#17499d"><path d="" opacity="0.75"/><path d="" opacity="0.75"/><path d="" opacity="0.75"/><path d=""/><path d=""/><path d=""/><path d=""/><path d=""/><path d=""/><path d=""/></g><g fill="#17499d"><path d="M87.96016,127.7165c-0.12844,0 -0.25689,-0.04282 -0.38533,-0.08563c-0.12844,-0.04281 -0.21408,-0.12844 -0.29971,-0.21408c-0.08563,-0.08563 -0.17126,-0.17127 -0.21408,-0.29971c-0.04282,-0.12844 -0.08563,-0.25689 -0.08563,-0.38534v-1.88387c0,-0.12844 0.04281,-0.2569 0.08563,-0.38534c0.04282,-0.12844 0.12845,-0.21407 0.21408,-0.2997c0.08563,-0.08563 0.17127,-0.17127 0.29971,-0.21408c0.12844,-0.04281 0.25689,-0.08563 0.38533,-0.08563h3.21115c0.12844,0 0.2569,0.04281 0.38534,0.08563c0.12844,0.04281 0.21408,0.12845 0.29971,0.21408c0.08563,0.08563 0.17126,0.17126 0.21408,0.2997c0.04282,0.12844 0.08563,0.2569 0.08563,0.38534v0.8563h-0.94194v-0.8563h-3.21116v1.88387h3.21116c0.12844,0 0.25689,0.04282 0.38534,0.08563c0.12844,0.04281 0.21408,0.12845 0.29971,0.21408c0.08563,0.08563 0.17126,0.17126 0.21408,0.2997c0.04282,0.12844 0.08563,0.2569 0.08563,0.38534v1.88388c0,0.12844 -0.04281,0.25689 -0.08563,0.38533c-0.04282,0.12844 -0.12845,0.21408 -0.21408,0.29971c-0.08563,0.08563 -0.17127,0.17126 -0.29971,0.21408c-0.12844,0.04281 -0.25689,0.08563 -0.38534,0.08563h-3.29678c-0.12844,0 -0.25689,-0.04282 -0.38533,-0.08563c-0.12844,-0.04281 -0.21408,-0.12844 -0.29971,-0.21408c-0.08563,-0.08563 -0.17126,-0.17126 -0.21407,-0.29971c-0.04282,-0.12844 -0.08564,-0.25689 -0.08564,-0.38533v-0.85631h0.94194v0.85631h3.29679v-1.88388z" opacity="0.75"/><path d="M94.63938,126.51769v3.12553h2.35485v-0.8135h0.89913v0.8135c0,0.12844 -0.04282,0.25689 -0.08563,0.34252c-0.04282,0.12844 -0.12845,0.21408 -0.21408,0.29971c-0.08563,0.08563 -0.17126,0.12844 -0.29971,0.21408c-0.12844,0.04281 -0.21408,0.08563 -0.34253,0.08563h-2.35484c-0.12844,0 -0.2569,-0.04282 -0.34253,-0.08563c-0.12844,-0.04281 -0.21408,-0.12844 -0.29971,-0.21408c-0.08563,-0.08563 -0.12845,-0.17126 -0.21408,-0.29971c-0.08563,-0.12844 -0.08563,-0.21408 -0.08563,-0.34252v-3.12553c0,-0.12844 0.04282,-0.25689 0.08563,-0.34252c0.04282,-0.08563 0.12845,-0.21407 0.21408,-0.2997c0.08563,-0.08563 0.17126,-0.12845 0.29971,-0.21408c0.12844,-0.04281 0.21408,-0.08563 0.34253,-0.08563h2.35484c0.12844,0 0.2569,0.04281 0.34253,0.08563c0.12844,0.04281 0.21408,0.12845 0.29971,0.21408c0.08563,0.08563 0.12845,0.17126 0.21408,0.2997c0.04282,0.12844 0.08563,0.21408 0.08563,0.34252v0.81349h-0.89913v-0.81349z" opacity="0.75"/><path d="M103.67342,129.64321c0,0.12844 -0.04282,0.25689 -0.08563,0.34252c-0.04282,0.08563 -0.12845,0.21408 -0.21408,0.29971c-0.08563,0.08563 -0.17126,0.12844 -0.29971,0.21408c-0.12844,0.08563 -0.21408,0.08563 -0.34253,0.08563h-2.44048c-0.12844,0 -0.25689,-0.04282 -0.34252,-0.08563c-0.12844,-0.04281 -0.21408,-0.12844 -0.29971,-0.21408c-0.08563,-0.08563 -0.12845,-0.17126 -0.21408,-0.29971c-0.04282,-0.12844 -0.08563,-0.21408 -0.08563,-0.34252v-3.12553c0,-0.12844 0.04281,-0.25689 0.08563,-0.34252c0.04282,-0.12844 0.12845,-0.21407 0.21408,-0.2997c0.08563,-0.08563 0.17127,-0.12845 0.29971,-0.21408c0.12844,-0.04281 0.21407,-0.08563 0.34252,-0.08563h2.44048c0.12844,0 0.2569,0.04281 0.34253,0.08563c0.08563,0.04281 0.21408,0.12845 0.29971,0.21408c0.08563,0.08563 0.12845,0.17126 0.21408,0.2997c0.08563,0.12844 0.08563,0.21408 0.08563,0.34252zM100.33381,126.51769v3.12553h2.44048v-3.12553z" opacity="0.75"/><path d="M106.11389,126.51769v4.02464h-0.89912v-4.92377h0.89912v0.89912c0,-0.17126 0.04281,-0.25689 0.08563,-0.38534c0.04282,-0.12844 0.12845,-0.21408 0.21408,-0.25689c0.08563,-0.08563 0.17126,-0.12845 0.2997,-0.17127c0.12844,-0.04281 0.21408,-0.08563 0.34253,-0.08563h0.98476c0.12844,0 0.25689,0.04282 0.34252,0.08563c0.12844,0.04281 0.21408,0.12845 0.29971,0.21408c0.08563,0.08563 0.12844,0.17126 0.21407,0.2997c0.04282,0.12844 0.08564,0.21408 0.08564,0.34253v0.81349h-0.89913v-0.81349h-1.96951z" opacity="0.75"/><path d="M114.20601,128.57279h-3.25397v1.07039h3.25397v0.89912h-3.25397c-0.12844,0 -0.25689,-0.04281 -0.34252,-0.08563c-0.12844,-0.04281 -0.21408,-0.12844 -0.29971,-0.21408c-0.08563,-0.08563 -0.12844,-0.17127 -0.21407,-0.29971c-0.04282,-0.12844 -0.08563,-0.21407 -0.08563,-0.34252v-3.12553c0,-0.12844 0.04281,-0.25689 0.08563,-0.34252c0.04282,-0.12844 0.12844,-0.21408 0.21407,-0.29971c0.08563,-0.08563 0.17127,-0.12845 0.29971,-0.21408c0.12844,-0.04281 0.21408,-0.08563 0.34252,-0.08563h2.35485c0.12844,0 0.25689,0.04282 0.34252,0.08563c0.12844,0.04281 0.21408,0.12845 0.29971,0.21408c0.08563,0.08563 0.12844,0.17126 0.21407,0.29971c0.04282,0.12844 0.08563,0.21408 0.08563,0.34252v2.09795zM110.95204,126.51769v1.1132h2.35485v-1.1132z" opacity="0.75"/><path d="M116.51805,127.07429c0,0.25689 -0.17127,0.42816 -0.42816,0.42816c-0.25689,0 -0.42816,-0.17127 -0.42816,-0.42816c0,-0.25689 0.17127,-0.42816 0.42816,-0.42816c0.25689,0 0.42816,0.21408 0.42816,0.42816zM115.66171,130.24263c0,-0.25689 0.17127,-0.42816 0.42816,-0.42816c0.25689,0 0.42816,0.21408 0.42816,0.42816c0,0.25689 -0.17127,0.42816 -0.42816,0.42816c-0.25689,-0.04281 -0.42816,-0.21408 -0.42816,-0.42816z" opacity="0.75"/></g><g fill="#17499d"><path d="M58.77687,193.73957l-2.48329,-4.88095v4.88096h-0.94194v-6.63639h1.02757l2.52611,5.00941l2.5261,-5.00941h1.02757v6.63639h-0.94194v-4.88095l-2.48329,4.88096z" opacity="0.75"/><path d="M65.11355,187.10316v6.63639h-0.94194v-6.63639z" opacity="0.75"/><path d="M67.76809,190.9137c-0.12844,0 -0.25689,-0.04282 -0.38533,-0.08563c-0.12844,-0.04281 -0.21408,-0.12844 -0.29971,-0.21408c-0.08563,-0.08563 -0.17126,-0.17127 -0.21407,-0.29971c-0.04282,-0.12844 -0.08564,-0.25689 -0.08564,-0.38533v-1.88388c0,-0.12844 0.04282,-0.25689 0.08564,-0.38534c0.04282,-0.12844 0.12844,-0.21407 0.21407,-0.2997c0.08563,-0.08563 0.17127,-0.17127 0.29971,-0.21408c0.12844,-0.04281 0.25689,-0.08563 0.38533,-0.08563h3.21116c0.12844,0 0.25689,0.04281 0.38534,0.08563c0.12844,0.04281 0.21408,0.12845 0.29971,0.21408c0.08563,0.08563 0.17126,0.17126 0.21407,0.2997c0.04282,0.12844 0.08563,0.25689 0.08563,0.38534v0.85631h-0.94194v-0.85631h-3.21116v1.88388h3.21116c0.12844,0 0.25689,0.04282 0.38534,0.08563c0.12844,0.04281 0.21408,0.12844 0.29971,0.21408c0.08563,0.08563 0.17126,0.17127 0.21407,0.29971c0.04282,0.12844 0.08563,0.25689 0.08563,0.38533v1.88388c0,0.12844 -0.04281,0.2569 -0.08563,0.38534c-0.04282,0.12844 -0.12844,0.21407 -0.21407,0.2997c-0.08563,0.08563 -0.17127,0.17127 -0.29971,0.21408c-0.12844,0.04281 -0.25689,0.08563 -0.38534,0.08563h-3.29678c-0.12844,0 -0.2569,-0.04281 -0.38534,-0.08563c-0.12844,-0.04281 -0.21407,-0.12845 -0.2997,-0.21408c-0.08563,-0.08563 -0.17127,-0.17126 -0.21408,-0.2997c-0.04282,-0.12844 -0.08563,-0.2569 -0.08563,-0.38534v-0.85631h0.94194v0.85631h3.29679v-1.88388z" opacity="0.75"/><path d="M74.61853,190.9137c-0.12844,0 -0.25689,-0.04282 -0.38534,-0.08563c-0.12844,-0.04281 -0.21407,-0.12844 -0.2997,-0.21408c-0.08563,-0.08563 -0.17127,-0.17127 -0.21408,-0.29971c-0.04282,-0.12844 -0.08563,-0.25689 -0.08563,-0.38533v-1.88388c0,-0.12844 0.04281,-0.25689 0.08563,-0.38534c0.04282,-0.12844 0.12845,-0.21407 0.21408,-0.2997c0.08563,-0.08563 0.17126,-0.17127 0.2997,-0.21408c0.12844,-0.04281 0.25689,-0.08563 0.38534,-0.08563h3.21116c0.12844,0 0.25689,0.04281 0.38534,0.08563c0.12844,0.04281 0.21408,0.12845 0.29971,0.21408c0.08563,0.08563 0.17127,0.17126 0.21408,0.2997c0.04282,0.12844 0.08563,0.25689 0.08563,0.38534v0.85631h-0.94194v-0.85631h-3.21116v1.88388h3.21116c0.12844,0 0.25689,0.04282 0.38534,0.08563c0.12844,0.04281 0.21408,0.12844 0.29971,0.21408c0.08563,0.08563 0.17126,0.17127 0.21408,0.29971c0.04282,0.12844 0.08563,0.25689 0.08563,0.38533v1.88388c0,0.12844 -0.04282,0.2569 -0.08563,0.38534c-0.04282,0.12844 -0.12845,0.21407 -0.21408,0.2997c-0.08563,0.08563 -0.17126,0.17127 -0.29971,0.21408c-0.12844,0.04281 -0.25689,0.08563 -0.38534,0.08563h-3.38242c-0.12844,0 -0.25689,-0.04281 -0.38534,-0.08563c-0.12844,-0.04281 -0.21408,-0.12845 -0.29971,-0.21408c-0.08563,-0.08563 -0.17126,-0.17126 -0.21408,-0.2997c-0.04282,-0.12844 -0.08563,-0.2569 -0.08563,-0.38534v-0.85631h0.94194v0.85631h3.29679v-1.88388z" opacity="0.75"/><path d="M81.2121,190.2715c0,0.25689 -0.17126,0.42816 -0.42815,0.42816c-0.25689,0 -0.42816,-0.17127 -0.42816,-0.42816c0,-0.25689 0.17127,-0.42816 0.42816,-0.42816c0.25689,0 0.42815,0.21408 0.42815,0.42816zM80.35584,193.43984c0,-0.25689 0.17127,-0.42816 0.42816,-0.42816c0.25689,0 0.42815,0.21408 0.42815,0.42816c0,0.25689 -0.17126,0.42816 -0.42815,0.42816c-0.25689,-0.04281 -0.42816,-0.21408 -0.42816,-0.42816z" opacity="0.75"/></g></g></g></svg>