<svg version="1.1" xmlns="http://www.w3.org/2000/svg" xmlns:xlink="http://www.w3.org/1999/xlink" width="47.22856" height="54.55878" viewBox="0,0,47.22856,54.55878"><g transform="translate(-216.05239,-152.05394)"><g data-paper-data="{&quot;isPaintingLayer&quot;:true}" fill="none" fill-rule="nonzero" stroke="#fc8e60" stroke-width="3.5" stroke-linecap="butt" stroke-linejoin="miter" stroke-miterlimit="10" stroke-dasharray="" stroke-dashoffset="0" style="mix-blend-mode: normal"><path d="M251.96428,153.80395c2.62166,0 4.89119,0 6.53347,0c1.74382,0 2.78043,1.34417 2.78043,2.65405c0,1.00591 0.01076,3.07738 0.02784,5.82157"/><path d="M261.5193,196.58273c0.00739,1.88869 0.01164,3.54376 0.01164,4.86764c0,2.138 -1.49111,3.41234 -3.53873,3.41234c-1.55753,0 -3.5833,0 -5.88847,0"/><path d="M227.3666,204.86272c-3.00677,0 -5.35881,0 -6.53101,0c-1.5874,0 -3.03319,-1.12363 -3.03319,-3.41234h-0.00001c0,-1.34333 0,-3.00542 0,-4.89126"/><path d="M217.80239,162.46147c0,-2.22621 0,-3.96737 0,-4.99241c0,-2.02744 1.58243,-3.66511 3.28596,-3.66511c1.09279,0 3.13689,0 5.74654,0"/></g></g></svg>