<svg version="1.1" xmlns="http://www.w3.org/2000/svg" xmlns:xlink="http://www.w3.org/1999/xlink" width="157.45376" height="157.45376" viewBox="0,0,157.45376,157.45376"><defs><radialGradient cx="240" cy="179.99999" r="78.72688" gradientUnits="userSpaceOnUse" id="color-1"><stop offset="0" stop-color="#ffffff" stop-opacity="0.74902"/><stop offset="1" stop-color="#ffffff" stop-opacity="0"/></radialGradient></defs><g transform="translate(-161.27312,-101.2731)"><g data-paper-data="{&quot;isPaintingLayer&quot;:true}" fill-rule="nonzero" stroke-linecap="butt" stroke-linejoin="miter" stroke-miterlimit="10" stroke-dasharray="" stroke-dashoffset="0" style="mix-blend-mode: normal"><path d="M240,258.72686c-43.47964,0 -78.72688,-35.24721 -78.72688,-78.72688c0,-43.47964 35.24721,-78.72688 78.72688,-78.72688c43.47964,0 78.72688,35.24721 78.72688,78.72688c0,43.47964 -35.24721,78.72688 -78.72688,78.72688z" fill="url(#color-1)" stroke="none" stroke-width="0"/><path d="M240,236.70683c-31.31833,0 -56.70687,-25.38852 -56.70687,-56.70687c0,-31.31833 25.38852,-56.70687 56.70687,-56.70687c31.31833,0 56.70687,25.38852 56.70687,56.70687c0,31.31833 -25.38852,56.70687 -56.70687,56.70687z" fill-opacity="0.16863" fill="#ffffff" stroke="#ffffff" stroke-width="5"/><path d="" fill-opacity="0.16863" fill="#ffffff" stroke="#ffffff" stroke-width="5"/><path d="" fill-opacity="0.16863" fill="#ffffff" stroke="#ffffff" stroke-width="5"/><path d="" fill-opacity="0.16863" fill="#ffffff" stroke="#ffffff" stroke-width="5"/><text transform="translate(231.55469,185.78647) scale(0.5,0.5)" font-size="40" xml:space="preserve" fill="none" fill-rule="nonzero" stroke="none" stroke-width="1" stroke-linecap="butt" stroke-linejoin="miter" stroke-miterlimit="10" stroke-dasharray="" stroke-dashoffset="0" font-family="Sans Serif" font-weight="normal" text-anchor="start" style="mix-blend-mode: normal"><tspan x="0" dy="0">退出</tspan></text><text transform="translate(201.5,178.06672) scale(0.6125,0.6125)" font-size="40" xml:space="preserve" fill="#ffffff" fill-rule="nonzero" stroke="#ffffff" stroke-width="1" stroke-linecap="butt" stroke-linejoin="miter" stroke-miterlimit="10" stroke-dasharray="" stroke-dashoffset="0" font-family="&quot;ヒラギノ角ゴ Pro W3&quot;, &quot;Hiragino Kaku Gothic Pro&quot;, Osaka, &quot;メイリオ&quot;, Meiryo, &quot;ＭＳ Ｐゴシック&quot;, &quot;MS PGothic&quot;" font-weight="normal" text-anchor="start" style="mix-blend-mode: normal"><tspan x="0" dy="0">退出</tspan></text></g></g></svg>