<svg version="1.1" xmlns="http://www.w3.org/2000/svg" xmlns:xlink="http://www.w3.org/1999/xlink" width="115.03818" height="115.08697" viewBox="0,0,115.03818,115.08697"><g transform="translate(-182.48091,-122.45652)"><g data-paper-data="{&quot;isPaintingLayer&quot;:true}" fill-opacity="0.16863" fill="#ffffff" fill-rule="nonzero" stroke="#ffffff" stroke-width="5" stroke-linecap="butt" stroke-linejoin="miter" stroke-miterlimit="10" stroke-dasharray="" stroke-dashoffset="0" style="mix-blend-mode: normal"><path d="M240,216.4826c-20.14879,0 -36.48262,-16.33382 -36.48262,-36.48262c0,-20.14879 16.33382,-36.48262 36.48262,-36.48262c20.14879,0 36.48262,16.33382 36.48262,36.48262c0,20.14879 -16.33382,36.48262 -36.48262,36.48262z"/><g><path d=""/><path d="M295.01909,174.09666v11.80667h-18.91738c0.05049,-0.28692 0.08879,-0.58833 0.11403,-0.90436c0.12939,-1.62011 0.02112,-8.27816 -0.22968,-10.10155c0.00753,-0.26118 0.01358,-0.52897 0.01695,-0.80077z"/><path d="M184.98091,185.90333v-11.80667h18.72098c-0.94754,3.2423 -0.61106,7.66915 -0.05783,10.31153c0.1051,0.50198 0.19436,1.0053 0.30437,1.49514z"/><path d=""/><path d="M245.74191,235.03617l-11.80662,-0.03463l0.05619,-18.68224c0.57612,0.20812 11.62377,-0.31877 11.80631,-0.33172z"/><path d="M234.25809,124.96384l11.80662,0.03463l-0.05564,18.96739c-0.38575,-0.08693 -0.78706,-0.13282 -1.19908,-0.13282c-0.28452,0 -0.56394,0.02188 -0.83666,0.06405c-0.61813,-0.24453 -1.29184,-0.37889 -1.99694,-0.37889c-0.72189,0 -1.41088,0.14084 -2.041,0.39654c-1.87298,0.00676 -4.20319,0.13839 -5.50402,0.19931c-0.07801,0.00365 -0.15449,0.01063 -0.22951,0.02079z"/></g><g><path d="M274.56449,136.78836l8.38056,8.31648l-13.16872,13.27018c-0.54438,-1.50589 -8.09755,-8.04354 -8.30873,-8.38886z"/><path d="M205.43551,223.21162l-8.38056,-8.31648l13.29712,-13.39957c0.47834,0.81229 7.85445,7.71065 8.51686,8.17911z"/><path d="M283.11005,214.6911l-8.34102,8.35612l-13.09521,-13.11225c2.07854,-0.76198 7.63362,-7.46995 8.15,-8.50609z"/><path d=""/><path d="M196.88995,145.30889l8.34102,-8.35612l13.35481,13.33068c-0.57964,0.30309 -1.10353,0.71378 -1.55764,1.20042c-0.48305,0.09478 -6.42183,6.44301 -6.81672,7.12243z"/></g></g></g></svg>