<svg version="1.1" xmlns="http://www.w3.org/2000/svg" xmlns:xlink="http://www.w3.org/1999/xlink" width="298.24441" height="297.69251" viewBox="0,0,298.24441,297.69251"><g transform="translate(-90.73696,-31.97844)"><g data-paper-data="{&quot;isPaintingLayer&quot;:true}" fill-rule="nonzero" stroke="none" stroke-linecap="butt" stroke-linejoin="miter" stroke-miterlimit="10" stroke-dasharray="" stroke-dashoffset="0" style="mix-blend-mode: normal"><path d="M236.35361,329.67095l-144.99121,-148.21568l148.61734,-148.45954l148.99121,147.88235z" fill="#136a92" stroke-width="0"/><path d="M294.8269,153.47749l-54.97202,54.672h-121.78192l-27.336,-27.336l27.336,-27.336z" fill="#4c97ff" stroke-width="1"/><path d="M361.64537,153.47749l27.336,27.336l-27.336,27.336h-115.41295l54.672,-54.672z" fill="#4c97ff" stroke-width="1"/><g fill="#ffffff" stroke-width="1"><path d="M127.02209,193.17427c-0.7029,0 -1.05435,-0.50575 -1.05435,-1.52581v-15.00951c0,-0.09429 -0.02572,-0.10286 -0.08572,-0.02572c-0.8572,1.20865 -1.44009,1.97155 -1.75725,2.28014c-0.7029,0.74576 -1.33723,0.83148 -1.90298,0.26573c-0.54861,-0.54861 -0.44574,-1.17436 0.29145,-1.86869c0.8572,-0.84005 1.94584,-2.28014 3.26592,-4.32884c1.32008,-2.0487 2.22014,-3.70309 2.70874,-4.97174c0.35145,-0.95149 0.8572,-1.30294 1.52581,-1.05435c0.66004,0.25716 0.79719,0.8572 0.41145,1.81726c-0.50575,1.25151 -1.20008,2.61445 -2.07442,4.0974c-0.19716,0.30859 -0.29145,0.65147 -0.29145,1.02006v17.77826c-0.01714,1.01149 -0.36002,1.52581 -1.03721,1.52581zM139.40001,193.25999c-0.72005,0 -1.08007,-0.50575 -1.08007,-1.52581v-7.40618c0,-0.09429 -0.02572,-0.10286 -0.08572,-0.02572c-0.9772,1.54295 -2.15156,3.00019 -3.52308,4.3717c-1.37151,1.37151 -2.39158,2.25443 -3.06019,2.64874c-0.90006,0.50575 -1.52581,0.4286 -1.86869,-0.23144c-0.34288,-0.66004 -0.14572,-1.2858 0.61718,-1.86869c3.47165,-2.7516 5.66607,-4.86888 6.58327,-6.35183c0.06,-0.07715 0.04286,-0.12001 -0.06,-0.12001h-5.56321c-1.01149,0 -1.52581,-0.33431 -1.52581,-0.99435c0,-0.66004 0.50575,-0.99435 1.52581,-0.99435h6.81471c0.09429,0 0.14572,-0.05143 0.14572,-0.14572v-3.33449c0,-0.09429 -0.05143,-0.14572 -0.14572,-0.14572h-4.65458c-1.01149,0 -1.52581,-0.50575 -1.52581,-1.52581v-6.2061c0,-1.01149 0.50575,-1.52581 1.52581,-1.52581h12.02647c1.01149,0 1.52581,0.50575 1.52581,1.52581v6.2061c0,1.01149 -0.50575,1.52581 -1.52581,1.52581h-4.92031c-0.09429,0 -0.14572,0.05143 -0.14572,0.14572v3.33449c0,0.09429 0.05143,0.14572 0.14572,0.14572h6.52327c1.01149,0 1.52581,0.33431 1.52581,0.99435c0,0.66004 -0.50575,0.99435 -1.52581,0.99435h-5.26319c-0.09429,0 -0.12001,0.04286 -0.06,0.12001c0.9172,1.48295 2.06584,2.9059 3.4545,4.26027c1.38866,1.35437 2.24586,2.11728 2.57159,2.29729c0.90006,0.50575 1.14864,1.08007 0.76291,1.72297c-0.39431,0.6429 -1.01149,0.69433 -1.86869,0.14572c-0.52289,-0.35145 -1.45723,-1.24293 -2.77732,-2.66588c-1.32865,-1.42295 -2.46015,-2.89732 -3.3945,-4.41456c-0.06,-0.07715 -0.08572,-0.06858 -0.08572,0.02572v7.4919c-0.00857,1.02006 -0.36859,1.52581 -1.08864,1.52581zM134.04253,175.0617c0,0.09429 0.05143,0.14572 0.14572,0.14572h10.56066c0.09429,0 0.14572,-0.05143 0.14572,-0.14572v-5.06603c0,-0.09429 -0.05143,-0.14572 -0.14572,-0.14572h-10.56066c-0.09429,0 -0.14572,0.05143 -0.14572,0.14572z"/><path d="M156.80967,193.19998c-0.72005,0 -1.08007,-0.50575 -1.08007,-1.52581v-9.95205c0,-0.09429 -0.02572,-0.10286 -0.08572,-0.02572c-1.1315,1.1915 -1.82583,1.86012 -2.07442,2.02298c-0.84005,0.56575 -1.46581,0.54861 -1.86869,-0.06c-0.4286,-0.62575 -0.22287,-1.22579 0.61718,-1.81726c2.49444,-1.74011 4.8003,-4.82602 6.909,-9.27487c0.04286,-0.09429 0.00857,-0.14572 -0.08572,-0.14572h-5.52892c-1.01149,0 -1.52581,-0.35145 -1.52581,-1.05435c0,-0.7029 0.50575,-1.05435 1.52581,-1.05435h6.26611c0.19716,0 0.33431,-0.08572 0.41145,-0.26573c0.4286,-1.11436 0.68576,-1.81726 0.7629,-2.1087c0.2743,-0.99435 0.78005,-1.37151 1.52581,-1.14007c0.72005,0.23144 0.90863,0.83148 0.55718,1.78297l-0.52289,1.57724c-0.04286,0.09429 -0.00857,0.14572 0.08572,0.14572h13.28655c1.01149,0 1.52581,0.35145 1.52581,1.05435c0,0.7029 -0.50575,1.05435 -1.52581,1.05435h-13.98945c-0.2143,0 -0.36002,0.09429 -0.43717,0.29145c-0.9772,2.203 -2.10013,4.17455 -3.36878,5.91466c-0.19716,0.2743 -0.29145,0.58289 -0.29145,0.93434v12.11219c-0.03429,1.02864 -0.38574,1.53438 -1.08864,1.53438zM165.11591,193.2257c-1.03721,0 -1.54295,-0.34288 -1.52581,-1.02006c0.01714,-0.68576 0.54003,-1.00292 1.55153,-0.96863c0.84005,0.04286 1.33723,0.05143 1.49152,0.02572c0.50575,-0.06 0.82291,-0.09429 0.95149,-0.10286c0.12858,-0.00857 0.23144,-0.05143 0.32574,-0.12001c0.08572,-0.06858 0.12858,-0.20573 0.12858,-0.42003v-5.2289c0,-0.09429 -0.05143,-0.14572 -0.14572,-0.14572h-6.41183c-1.01149,0 -1.52581,-0.34288 -1.52581,-1.02006c0,-0.68576 0.50575,-1.02006 1.52581,-1.02006h6.41183c0.09429,0 0.14572,-0.05143 0.14572,-0.14572v-0.96863c0,-0.8572 0.37717,-1.49152 1.14007,-1.90298c0.56575,-0.29145 1.57724,-1.08864 3.04305,-2.40015c0.07715,-0.06 0.06858,-0.08572 -0.02572,-0.08572h-8.2548c-1.01149,0 -1.52581,-0.33431 -1.52581,-0.99435c0,-0.66004 0.50575,-1.00292 1.52581,-1.02006l10.06349,-0.23144c0.82291,-0.01714 1.37151,0.18858 1.67153,0.61718c0.30859,0.4286 0.14572,0.98578 -0.49717,1.67153c-0.8572,0.9772 -2.40872,2.16871 -4.65458,3.56594c-0.2143,0.13715 -0.32573,0.32573 -0.32573,0.55718v1.20008c0,0.09429 0.05143,0.14572 0.14572,0.14572h6.1461c1.01149,0 1.52581,0.34288 1.52581,1.02006c0,0.68576 -0.50575,1.02006 -1.52581,1.02006h-6.1461c-0.09429,0 -0.14572,0.05143 -0.14572,0.14572v5.26319c0,0.66004 -0.08572,1.15722 -0.26573,1.49152c-0.17144,0.33431 -0.4886,0.57432 -0.93434,0.72862c-0.44574,0.1543 -0.84862,0.24002 -1.20008,0.26573c-0.52289,0.04286 -1.05435,0.06 -1.57724,0.06z"/><path d="M185.52576,192.33421c-0.05143,0.06858 -0.30859,-0.12001 -0.77148,-0.57432c-0.47146,-0.44574 -0.30002,-1.00292 0.49717,-1.67153c0.13715,-0.12001 0.20573,-0.73719 0.20573,-1.86869v-10.3035c0,-0.09429 -0.05143,-0.14572 -0.14572,-0.14572h-2.95733c-1.01149,0 -1.52581,-0.35145 -1.52581,-1.05435c0,-0.7029 0.50575,-1.05435 1.52581,-1.05435h3.72023c1.01149,0 1.52581,0.50575 1.52581,1.52581v10.91211c0,0.09429 0.04286,0.12001 0.12001,0.06l1.49152,-0.99435c0.82291,-0.56575 1.41437,-0.58289 1.78297,-0.06c0.36859,0.52289 0.14572,1.08007 -0.67719,1.67153l-3.66023,2.66588c-0.7029,0.53146 -1.08007,0.82291 -1.1315,0.89148zM188.38022,172.48153c-0.56575,0.44574 -1.14864,0.25716 -1.75725,-0.58289c-0.30859,-0.4286 -1.0715,-1.17436 -2.28014,-2.22014c-0.76291,-0.66004 -0.92577,-1.25151 -0.49717,-1.75725c0.44574,-0.4886 1.05435,-0.40288 1.81726,0.26573c1.46581,1.28579 2.34015,2.1087 2.63159,2.46015c0.6429,0.77148 0.67718,1.38866 0.08572,1.8344zM196.4893,192.82282c-1.65439,0 -2.78589,-0.24002 -3.3945,-0.72862c-0.60861,-0.4886 -0.90863,-1.42295 -0.90863,-2.81161v-9.66061c0,-1.01149 0.50575,-1.52581 1.52581,-1.52581h9.36059c0.09429,0 0.14572,-0.05143 0.14572,-0.14572v-7.08044c0,-0.09429 -0.05143,-0.14572 -0.14572,-0.14572h-9.91776c-1.01149,0 -1.52581,-0.36002 -1.52581,-1.08007c0,-0.7029 0.50575,-1.05435 1.52581,-1.05435h10.68067c1.01149,0 1.52581,0.50575 1.52581,1.52581v10.06349c0,1.01149 -0.35145,1.52581 -1.05435,1.52581c-0.72005,0 -1.08007,-0.45431 -1.08007,-1.37151c0,-0.09429 -0.05143,-0.14572 -0.14572,-0.14572h-8.54625c-0.09429,0 -0.14572,0.05143 -0.14572,0.14572v8.9577c0,0.58289 0.13715,0.96863 0.4286,1.15722c0.28287,0.18858 0.89148,0.2743 1.82583,0.2743h6.41183c0.62575,0 1.08007,-0.12001 1.37151,-0.36859c0.29145,-0.24002 0.50575,-0.7029 0.6429,-1.38866c0.12001,-0.62575 0.17144,-1.01149 0.17144,-1.17436c0.04286,-1.01149 0.42003,-1.50009 1.14007,-1.46581c0.72005,0.04286 1.04578,0.56575 0.96863,1.57724c-0.12001,1.65439 -0.43717,2.88018 -0.96863,3.66023c-0.56575,0.84005 -1.62867,1.26008 -3.18877,1.26008z"/><path d="M211.91027,178.80764c-0.35145,0.96006 -0.82291,1.32865 -1.4058,1.11436c-0.60861,-0.23144 -0.71147,-0.83148 -0.32573,-1.78297c0.33431,-0.82291 0.58289,-2.30586 0.76291,-4.44885c0.09429,-1.01149 0.43717,-1.49152 1.02006,-1.43152c0.56575,0.04286 0.82291,0.55718 0.76291,1.55153c-0.01714,0.33431 -0.1543,1.20008 -0.41145,2.60588c-0.24859,1.52581 -0.38574,2.33158 -0.40288,2.39158zM215.03904,193.2257c-0.7029,0 -1.05435,-0.50575 -1.05435,-1.52581v-23.67577c0,-1.01149 0.35145,-1.52581 1.05435,-1.52581c0.7029,0 1.05435,0.50575 1.05435,1.52581v23.67577c0,1.02006 -0.35145,1.52581 -1.05435,1.52581zM219.28216,176.87039c-0.56575,0.1543 -0.96006,-0.26573 -1.17436,-1.26008c-0.09429,-0.41145 -0.43717,-1.1915 -1.02006,-2.34015c-0.47146,-0.90006 -0.45431,-1.47438 0.02572,-1.72296c0.4886,-0.25716 0.96863,0.06858 1.43152,0.96863c0.66004,1.25151 1.06292,2.14299 1.20008,2.6916c0.28287,0.96863 0.12001,1.52581 -0.46289,1.66296zM224.3139,192.29134c-3.41164,0 -5.11746,-1.15722 -5.11746,-3.48022c0,-0.76291 0.19716,-1.55153 0.58289,-2.37443c0.54861,-1.1915 1.64582,-2.85446 3.30878,-5.00603c1.8944,-2.49444 4.65458,-5.82036 8.28052,-9.97777c0.06,-0.07715 0.04286,-0.12001 -0.06,-0.12001h-9.71204c-1.01149,0 -1.52581,-0.34288 -1.52581,-1.02006c0,-0.68576 0.50575,-1.02006 1.52581,-1.02006l11.52929,-0.08572c0.66004,0 1.22579,0.12001 1.69725,0.35145c0.44574,0.25716 0.32573,0.78862 -0.37717,1.61153l-8.16051,9.6006c-0.33431,0.36859 -0.65147,0.75433 -0.96863,1.14007c-1.54295,1.91155 -2.52016,3.23163 -2.92304,3.95168c-0.25716,0.4286 -0.49717,0.86577 -0.72862,1.32008c-0.2143,0.36859 -0.32573,0.84005 -0.32573,1.4058c0,1.0715 0.94292,1.61153 2.83732,1.61153h7.92907c0.56575,0 0.98578,-0.1543 1.26008,-0.45431c0.2743,-0.30002 0.43717,-0.6429 0.49717,-1.01149c0.07715,-0.4886 0.13715,-0.9772 0.17144,-1.46581l0.08572,-1.20008c0.06,-1.01149 0.42003,-1.50009 1.08007,-1.46581c0.68576,0.04286 0.99435,0.56575 0.93434,1.57724c-0.07715,1.28579 -0.24859,2.44301 -0.51432,3.47165c-0.26573,1.02864 -0.48003,1.59439 -0.66004,1.71439c-0.41145,0.2743 -0.82291,0.55718 -1.22579,0.84862c-0.09429,0.06 -0.67719,0.08572 -1.72296,0.08572h-7.69763z"/></g><path d="M331.91779,185.13375l1.57724,1.57724l0.96863,-0.96863c0.18001,-0.18001 0.4886,-0.18001 0.66861,0l6.31754,6.31754c0.18001,0.18001 0.18001,0.4886 0,0.66861l-3.64309,3.64309c-0.24002,0.18001 -0.54861,0.18001 -0.72862,0l-6.31754,-6.31754c-0.18001,-0.24002 -0.18001,-0.54861 0,-0.72862l0.90863,-0.90863l-1.51724,-1.51724c-4.92031,4.26027 -12.52364,3.95168 -17.08393,-0.96863c-4.44028,-4.79173 -4.3717,-12.27505 0.12001,-16.95535c4.79173,-5.04032 12.76366,-5.16032 17.68397,-0.24002c4.44885,4.43171 4.8003,11.47786 1.04578,16.39817zM328.99475,183.87368c3.34307,-3.53165 3.34307,-9.12057 0,-12.64365c-3.72023,-3.89167 -9.91776,-3.89167 -13.56085,0c-3.34307,3.53165 -3.34307,9.12057 0,12.64365c3.64309,3.8831 9.84919,3.8831 13.56085,0z" fill="#ffffff" stroke-width="1" opacity="0.8"/><path d="M173.0364,153.47749h-54.672l27.336,-27.336h53.73765z" fill="#ffffff" stroke-width="1" opacity="0.5"/><path d="M199.43806,235.48548h-53.73765l-27.336,-27.336h54.672z" fill="#ffffff" stroke-width="1" opacity="0.5"/><path d="M328.24042,120.06397l30.37048,30.37048h-176.46249l30.37905,-30.37048z" fill="#ffffff" stroke-width="1" opacity="0.5"/><path d="M212.67317,241.55443l-30.37048,-30.37048h176.45392l-30.37048,30.37048z" fill="#ffffff" stroke-width="1" opacity="0.5"/><path d="M325.1888,117.02949h-170.37639l85.04247,-85.05105z" fill="#4c97ff" stroke-width="1" opacity="0.5"/><path d="M150.95502,244.59748h170.37639l-85.04247,85.04247z" fill="#4c97ff" stroke-width="1" opacity="0.5"/><g fill="#231815" stroke-width="1"><path d="M154.04093,134.78203c0,-2.68427 2.17603,-4.86031 4.86031,-4.86031c2.68427,0 4.8603,2.17603 4.8603,4.86031c0,2.68427 -2.17603,4.8603 -4.8603,4.8603c-2.68427,0 -4.86031,-2.17603 -4.86031,-4.8603z" opacity="0.4"/><path d="M163.76154,144.72552v4.97174h-9.72061v-4.97174c0,-2.62302 2.12585,-4.74887 4.74887,-4.74887h0.22287c2.62302,0 4.74887,2.12585 4.74887,4.74887z" opacity="0.4"/></g><path d="M157.40114,213.15551v9.72061l-4.8603,4.83459l-4.8603,-4.83459v-9.72061zM154.4781,216.95289c0,-1.17436 -0.95149,-2.12585 -2.12585,-2.12585c-1.17436,0 -2.12585,0.95149 -2.12585,2.12585c0,1.17436 0.95149,2.12585 2.12585,2.12585c1.17436,0 2.12585,-0.95149 2.12585,-2.12585z" fill="#231815" stroke-width="1" opacity="0.5"/></g></g></svg>