<svg version="1.1" xmlns="http://www.w3.org/2000/svg" xmlns:xlink="http://www.w3.org/1999/xlink" width="32.875" height="32.42466" viewBox="0,0,32.875,32.42466"><g transform="translate(-223.5625,-163.78767)"><g data-paper-data="{&quot;isPaintingLayer&quot;:true}" fill-rule="nonzero" stroke="none" stroke-linecap="butt" stroke-linejoin="miter" stroke-miterlimit="10" stroke-dasharray="" stroke-dashoffset="0" style="mix-blend-mode: normal"><path d="M238.03125,172.74375l1.575,4.725c0.1125,0.225 0.1125,0.45 0.225,0.675c0.1125,0.225 0.1125,0.45 0.1125,0.675c0,0.225 0.1125,0.45 0.1125,0.675h0.1125c0,-0.225 0.1125,-0.45 0.1125,-0.675c0,-0.225 0.1125,-0.45 0.1125,-0.675c0,-0.225 0.1125,-0.45 0.225,-0.675l1.4625,-4.725h2.7v14.5125h-2.025v-9.675c0,-0.3375 0,-0.675 0,-1.125c0,-0.3375 0,-0.675 0.1125,-1.0125c0,-0.3375 0.1125,-0.675 0.1125,-1.0125h-0.225c-0.1125,0.3375 -0.1125,0.675 -0.225,0.9c-0.1125,0.225 -0.1125,0.5625 -0.225,0.9c-0.1125,0.3375 -0.225,0.675 -0.3375,1.0125l-1.125,3.6h-1.6875l-1.125,-3.6c-0.1125,-0.3375 -0.225,-0.675 -0.3375,-1.0125c-0.1125,-0.3375 -0.225,-0.675 -0.225,-0.9c-0.1125,-0.3375 -0.1125,-0.675 -0.225,-0.9h-0.225c0,0.3375 0.1125,0.675 0.1125,1.0125c0,0.3375 0,0.675 0.1125,1.0125c0,0.3375 0,0.675 0,1.125v9.675h-2.025v-14.5125z" fill="#ffffff" stroke-width="1"/><path d="M223.5625,196.21233v-32.42466h32.875v32.42466z" fill="none" stroke-width="0"/></g></g></svg>