<svg version="1.1" xmlns="http://www.w3.org/2000/svg" xmlns:xlink="http://www.w3.org/1999/xlink" width="18.66667" height="18.66666" viewBox="0,0,18.66667,18.66666"><g transform="translate(-236.42153,-82.27778)"><g data-paper-data="{&quot;isPaintingLayer&quot;:true}" fill-rule="nonzero" stroke-linejoin="miter" stroke-miterlimit="10" stroke-dasharray="" stroke-dashoffset="0" style="mix-blend-mode: normal"><g><path d="M236.42153,91.61111c0,-5.15466 4.17867,-9.33333 9.33334,-9.33333c5.15466,0 9.33333,4.17867 9.33333,9.33333c0,5.15466 -4.17867,9.33334 -9.33333,9.33334c-5.15466,0 -9.33334,-4.17867 -9.33334,-9.33334z" fill="#ffffff" stroke="none" stroke-width="0.5" stroke-linecap="butt"/><path d="M239.97034,89.1724c0.38144,-0.3752 1.88247,-1.85171 2.56492,-2.523c0.20882,-0.20541 0.44455,-0.23016 0.58025,-0.0922c0.66802,0.67911 5.9802,6.07955 7.42255,7.54586c0.22885,0.23265 0.19071,0.53306 0.04498,0.67641c-0.32944,0.32406 -1.61126,1.58493 -1.61126,1.58493l-2.59911,0.01318c0,0 -5.80135,-5.89772 -6.50585,-6.61393c-0.13663,-0.1389 -0.06893,-0.42163 0.10351,-0.59125z" fill="none" stroke="#929292" stroke-width="1.5" stroke-linecap="butt"/><path d="M246.43479,90.01087l-3.17391,3.21739" fill="none" stroke="#929292" stroke-width="1.5" stroke-linecap="round"/><path d="M240.714,89.5635l2.17579,-2.01595l2.47673,2.67312l-2.17579,2.01595z" fill="#929292" stroke="#929292" stroke-width="1" stroke-linecap="butt"/></g></g></g></svg>