<svg version="1.1" xmlns="http://www.w3.org/2000/svg" xmlns:xlink="http://www.w3.org/1999/xlink" width="503.5" height="384.08006" viewBox="0,0,503.5,384.08006"><defs><radialGradient cx="68.33335" cy="139.33333" r="22.29995" gradientUnits="userSpaceOnUse" id="color-1"><stop offset="0" stop-color="#3dabff"/><stop offset="1" stop-color="#3dabff" stop-opacity="0"/></radialGradient></defs><g transform="translate(13.5,14.58006)"><g data-paper-data="{&quot;isPaintingLayer&quot;:true}" fill-rule="nonzero" stroke-linejoin="miter" stroke-miterlimit="10" stroke-dasharray="" stroke-dashoffset="0" style="mix-blend-mode: normal"><path d="M-9,368.5v-377h498v377z" fill="#000000" stroke="#000000" stroke-width="2" stroke-linecap="butt"/><text transform="translate(82.78916,43.06104) scale(0.46342,0.46342)" font-size="40" xml:space="preserve" fill="#ffffff" fill-rule="nonzero" stroke="#ffffff" stroke-width="1" stroke-linecap="butt" stroke-linejoin="miter" stroke-miterlimit="10" stroke-dasharray="" stroke-dashoffset="0" font-family="Sans Serif" font-weight="normal" text-anchor="start" style="mix-blend-mode: normal"><tspan x="0" dy="0">在PUPA关卡中,你可能会遇到如下配置:</tspan></text><text transform="translate(93,20.49999) scale(0.80336,0.80336)" font-size="40" xml:space="preserve" fill-opacity="0.24314" fill="#ffffff" fill-rule="nonzero" stroke-opacity="0.35294" stroke="#ffffff" stroke-width="2" stroke-linecap="butt" stroke-linejoin="miter" stroke-miterlimit="10" stroke-dasharray="" stroke-dashoffset="0" font-family="Sans Serif" font-weight="normal" text-anchor="start" style="mix-blend-mode: normal"><tspan x="0" dy="0">&lt;  新  记  忆  挖  掘  &gt;</tspan></text><path d="M66.53053,260.41401v-201.41401h3.65377v201.41402z" fill="#ffffff" stroke="none" stroke-width="0" stroke-linecap="butt"/><path d="M137.68332,262.41401v-203.41401h3.48464v203.41401z" fill="#ffffff" stroke="none" stroke-width="0" stroke-linecap="butt"/><path d="M-13.5,229.47174v-3.4034h229v3.4034z" fill="#ffffff" stroke="none" stroke-width="0" stroke-linecap="butt"/><g><path d="M90.6333,139.28991l-44.5999,0.08684" fill="none" stroke="url(#color-1)" stroke-width="13" stroke-linecap="round"/><path d="M49.71761,139.67734c0,-1.18889 2.11231,-3.75651 4.05854,-3.75651c4.20134,0 20.37558,0 28.48337,0c2.83946,0 4.68957,2.2179 4.68957,3.34371c0,1.14874 -1.73103,3.48129 -4.41437,3.48129c-8.00059,0 -24.46702,0 -28.75857,0c-2.00455,0 -4.05854,-1.99397 -4.05854,-3.06849z" fill="#ffffff" stroke="#3dabff" stroke-width="3" stroke-linecap="butt"/><path d="M47.59915,144.12501c0,0 -3.73743,-3.33494 -4.63654,-4.13722c-0.3688,-0.32909 -0.24299,-1.03967 0.03895,-1.29518c0.81578,-0.7393 4.51425,-4.23427 4.51425,-4.23427" fill="#ffffff" stroke="#3dabff" stroke-width="3" stroke-linecap="round"/><path d="M89.27589,134.54167c0,0 3.69847,3.49497 4.51425,4.23427c0.28195,0.25551 0.40776,0.96609 0.03895,1.29518c-0.8991,0.80228 -4.63653,4.13721 -4.63653,4.13721" data-paper-data="{&quot;index&quot;:null}" fill="#ffffff" stroke="#3dabff" stroke-width="3" stroke-linecap="round"/></g><text transform="translate(158.41667,106.11929) scale(0.3301,0.3301)" font-size="40" xml:space="preserve" fill="#ffffff" fill-rule="nonzero" stroke="#ffffff" stroke-width="2" stroke-linecap="butt" stroke-linejoin="miter" stroke-miterlimit="10" stroke-dasharray="" stroke-dashoffset="0" font-family="Sans Serif" font-weight="normal" text-anchor="start" style="mix-blend-mode: normal"><tspan x="0" dy="0">生成在两条轨道之间的记忆实体.</tspan><tspan x="0" dy="48px">我们将其称之为:</tspan></text><path d="M107.25,144.66667l-6.66667,-5.66667l7,-6" fill="none" stroke="#ffffff" stroke-width="2" stroke-linecap="round"/><path d="M129.25,139.33333h-23.33333" fill="none" stroke="#ffffff" stroke-width="2" stroke-linecap="round"/><text transform="translate(227.91667,185.33333) scale(0.5,0.5)" font-size="40" xml:space="preserve" fill="#ffffff" fill-rule="nonzero" stroke="#ffffff" stroke-width="1" stroke-linecap="butt" stroke-linejoin="miter" stroke-miterlimit="10" stroke-dasharray="" stroke-dashoffset="0" font-family="Sans Serif" font-weight="normal" text-anchor="start" style="mix-blend-mode: normal"><tspan x="0" dy="0">它将在其左侧最近轨道上</tspan><tspan x="0" dy="46.150000000000006px">作为实际打击轨道.</tspan><tspan x="0" dy="46.150000000000006px">了解打击方式后就可以</tspan><tspan x="0" dy="46.150000000000006px">尝试收集这一新NOTE.</tspan></text><text transform="translate(157.75,147) scale(0.5,0.5)" font-size="40" xml:space="preserve" fill="#ffffff" fill-rule="nonzero" stroke="#ffffff" stroke-width="2" stroke-linecap="butt" stroke-linejoin="miter" stroke-miterlimit="10" stroke-dasharray="" stroke-dashoffset="0" font-family="Sans Serif" font-weight="normal" text-anchor="start" style="mix-blend-mode: normal"><tspan x="0" dy="0">混沌型记忆实体</tspan></text><text transform="translate(78.75,297.22618) scale(0.3834,0.3834)" font-size="40" xml:space="preserve" fill="#ffffff" fill-rule="nonzero" stroke="#ffffff" stroke-width="1" stroke-linecap="butt" stroke-linejoin="miter" stroke-miterlimit="10" stroke-dasharray="" stroke-dashoffset="0" font-family="Sans Serif" font-weight="normal" text-anchor="start" style="mix-blend-mode: normal"><tspan x="0" dy="0">注:由于该NOTE不稳定性,其GOOD判定将会变得</tspan><tspan x="0" dy="46.150000000000006px">         严格,故该配置仅仅作为实验性配置.</tspan></text><text transform="translate(163.25,336) scale(0.36999,0.36999)" font-size="40" xml:space="preserve" fill="#ffffff" fill-rule="nonzero" stroke="none" stroke-width="1" stroke-linecap="butt" stroke-linejoin="miter" stroke-miterlimit="10" stroke-dasharray="" stroke-dashoffset="0" font-family="Sans Serif" font-weight="normal" text-anchor="start" style="mix-blend-mode: normal"><tspan x="0" dy="0">点击任意位置结束引导.</tspan></text></g></g></svg>