<svg version="1.1" xmlns="http://www.w3.org/2000/svg" xmlns:xlink="http://www.w3.org/1999/xlink" width="566.93091" height="694.98247" viewBox="0,0,566.93091,694.98247"><g transform="translate(98.28091,162.92092)"><g data-paper-data="{&quot;isPaintingLayer&quot;:true}" fill="#47539b" fill-rule="nonzero" stroke="none" stroke-width="1" stroke-linecap="butt" stroke-linejoin="miter" stroke-miterlimit="10" stroke-dasharray="" stroke-dashoffset="0" style="mix-blend-mode: normal"><g opacity="0.25"><path d="M380.84231,224.57741l-39.88044,-39.88044l39.88044,-39.88044l39.88044,39.88044z"/><path d="M424.72521,180.66033l-39.88044,-39.88044l39.88044,-39.88044l39.88044,39.88044z"/><path d="M424.72899,268.44781l-39.88044,-39.88044l39.88044,-39.88044l39.88044,39.88044z"/><path d="M468.65,224.65l-39.9,-40l39.9,-39.8z"/><path d="M468.65,312.35l-39.9,-39.9l39.9,-39.9z"/><path d="M468.65,136.85l-39.9,-39.9l39.9,-39.9z"/><path d="M336.92363,180.69381l-39.88044,-39.88044l39.88044,-39.88044l39.88044,39.88044z"/></g><path d="M424.75104,92.96026l-39.88044,-39.88044l39.88044,-39.88044l39.88044,39.88044z" opacity="0.25"/><path d="M380.88074,136.84694l-39.88044,-39.88044l39.88044,-39.88044l39.88044,39.88044z" opacity="0.25"/><path d="M293.15184,224.52128l-39.88044,-39.88044l39.88044,-39.88044l39.88044,39.88044z" opacity="0.25"/><path d="M336.97841,268.46669l-39.88044,-39.88044l39.88044,-39.88044l39.88044,39.88044z" opacity="0.25"/><path d="M381.457,312.80578l-39.88044,-39.88044l39.88044,-39.88044l39.88044,39.88044z" opacity="0.25"/><path d="M249.23046,180.67408l-39.88044,-39.88044l39.88044,-39.88044l39.88044,39.88044z" opacity="0.25"/><path d="M205.38249,136.86119l-39.88044,-39.88044l39.88044,-39.88044l39.88044,39.88044z" opacity="0.25"/><path d="M249.50957,92.45843l-39.88044,-39.88044l39.88044,-39.88044l39.88044,39.88044z" opacity="0.25"/><path d="M293.40685,136.33313l-39.88044,-39.88044l39.88044,-39.88044l39.88044,39.88044z" opacity="0.25"/><path d="M205.659,48.68194l-39.88044,-39.88044l39.88044,-39.88044l39.88044,39.88044z" opacity="0.25"/><path d="M161.81093,4.72763l-39.88044,-39.88044l39.88044,-39.88044l39.88044,39.88044z" opacity="0.25"/><path d="M292.77102,48.75034l-39.88044,-39.88044l39.88044,-39.88044l39.88044,39.88044z" opacity="0.25"/><path d="M336.6683,92.62514l-39.88044,-39.88044l39.88044,-39.88044l39.88044,39.88044z" opacity="0.25"/><path d="M248.92035,4.83253l-39.88044,-39.88044l39.88044,-39.88044l39.88044,39.88044z" opacity="0.25"/><path d="M205.07238,-38.98046l-39.88044,-39.88044l39.88044,-39.88044l39.88044,39.88044z" opacity="0.25"/><path d="M336.35966,4.57066l-39.88044,-39.88044l39.88044,-39.88044l39.88044,39.88044z" opacity="0.25"/><path d="M380.25694,48.44546l-39.88044,-39.88044l39.88044,-39.88044l39.88044,39.88044z" opacity="0.25"/><path d="M292.50909,-39.34715l-39.88044,-39.88044l39.88044,-39.88044l39.88044,39.88044z" opacity="0.25"/><path d="M248.66102,-83.16004l-39.88044,-39.88044l39.88044,-39.88044l39.88044,39.88044z" opacity="0.25"/><path d="M161.33698,92.76488l-39.88044,-39.88044l39.88044,-39.88044l39.88044,39.88044z" opacity="0.25"/><path d="M117.4183,48.88118l-39.88044,-39.88044l39.88044,-39.88044l39.88044,39.88044z" opacity="0.25"/><path d="M424.73716,356.18248l-39.88044,-39.88044l39.88044,-39.88044l39.88044,39.88044z" opacity="0.25"/><path d="M336.71127,444.22149l-39.88044,-39.88044l39.88044,-39.88044l39.88044,39.88044z" opacity="0.25"/><path d="M380.58607,400.46563l-39.88044,-39.88044l39.88044,-39.88044l39.88044,39.88044z" opacity="0.25"/><path d="M292.86417,488.14277l-39.88044,-39.88044l39.88044,-39.88044l39.88044,39.88044z" opacity="0.25"/><path d="M248.98047,532.06155l-39.88044,-39.88044l39.88044,-39.88044l39.88044,39.88044z" opacity="0.25"/><path d="M293.21831,401.15273l-39.88044,-39.88044l39.88044,-39.88044l39.88044,39.88044z" opacity="0.25"/><path d="M337.16372,357.32616l-39.88044,-39.88044l39.88044,-39.88044l39.88044,39.88044z" opacity="0.25"/><path d="M249.37111,445.07411l-39.88044,-39.88044l39.88044,-39.88044l39.88044,39.88044z" opacity="0.25"/><path d="M205.55822,488.92208l-39.88044,-39.88044l39.88044,-39.88044l39.88044,39.88044z" opacity="0.25"/><path d="M292.81855,312.92195l-39.88044,-39.88044l39.88044,-39.88044l39.88044,39.88044z" opacity="0.25"/><path d="M204.70883,224.82535l-39.88044,-39.88044l39.88044,-39.88044l39.88044,39.88044z" opacity="0.25"/><path d="M248.5354,268.77086l-39.88044,-39.88044l39.88044,-39.88044l39.88044,39.88044z" opacity="0.25"/><path d="M160.85826,181.04896l-39.88044,-39.88044l39.88044,-39.88044l39.88044,39.88044z" opacity="0.25"/><path d="M116.93948,137.16526l-39.88044,-39.88044l39.88044,-39.88044l39.88044,39.88044z" opacity="0.25"/><path d="M248.93935,356.82993l-39.88044,-39.88044l39.88044,-39.88044l39.88044,39.88044z" opacity="0.25"/><path d="M160.82963,268.73333l-39.88044,-39.88044l39.88044,-39.88044l39.88044,39.88044z" opacity="0.25"/><path d="M204.6562,312.67884l-39.88044,-39.88044l39.88044,-39.88044l39.88044,39.88044z" opacity="0.25"/><path d="M116.97906,224.95694l-39.88044,-39.88044l39.88044,-39.88044l39.88044,39.88044z" opacity="0.25"/><path d="M73.06028,181.07334l-39.88044,-39.88044l39.88044,-39.88044l39.88044,39.88044z" opacity="0.25"/><path d="M205.27565,400.54447l-39.88044,-39.88044l39.88044,-39.88044l39.88044,39.88044z" opacity="0.25"/><path d="M117.16593,312.44777l-39.88044,-39.88044l39.88044,-39.88044l39.88044,39.88044z" opacity="0.25"/><path d="M161.06331,356.32257l-39.88044,-39.88044l39.88044,-39.88044l39.88044,39.88044z" opacity="0.25"/><path d="M73.31536,268.52996l-39.88044,-39.88044l39.88044,-39.88044l39.88044,39.88044z" opacity="0.25"/><path d="M29.46739,224.71707l-39.88044,-39.88044l39.88044,-39.88044l39.88044,39.88044z" opacity="0.25"/><path d="M29.33033,137.23233l-39.88044,-39.88044l39.88044,-39.88044l39.88044,39.88044z" opacity="0.25"/><path d="M73.20513,93.33505l-39.88044,-39.88044l39.88044,-39.88044l39.88044,39.88044z" opacity="0.25"/><path d="M-14.51677,181.15361l-39.88044,-39.88044l39.88044,-39.88044l39.88044,39.88044z" opacity="0.25"/><path d="M-58.40047,224.93097l-39.88044,-39.88044l39.88044,-39.88044l39.88044,39.88044z" opacity="0.25"/><path d="M161.32574,444.38174l-39.88044,-39.88044l39.88044,-39.88044l39.88044,39.88044z" opacity="0.25"/><path d="M73.28673,356.35585l-39.88044,-39.88044l39.88044,-39.88044l39.88044,39.88044z" opacity="0.25"/><path d="M117.1134,400.15994l-39.88044,-39.88044l39.88044,-39.88044l39.88044,39.88044z" opacity="0.25"/><path d="M29.43616,312.43804l-39.88044,-39.88044l39.88044,-39.88044l39.88044,39.88044z" opacity="0.25"/><path d="M-14.48252,268.55434l-39.88044,-39.88044l39.88044,-39.88044l39.88044,39.88044z" opacity="0.25"/></g></g></svg>