<svg version="1.1" xmlns="http://www.w3.org/2000/svg" xmlns:xlink="http://www.w3.org/1999/xlink" width="32.875" height="32.42466" viewBox="0,0,32.875,32.42466"><g transform="translate(-223.5625,-163.78767)"><g data-paper-data="{&quot;isPaintingLayer&quot;:true}" fill-rule="nonzero" stroke="none" stroke-linecap="butt" stroke-linejoin="miter" stroke-miterlimit="10" stroke-dasharray="" stroke-dashoffset="0" style="mix-blend-mode: normal"><path d="M235.275,176.68125c0,-0.675 0.1125,-1.2375 0.3375,-1.6875c0.225,-0.5625 0.5625,-0.9 1.0125,-1.35c0.45,-0.3375 0.9,-0.675 1.4625,-0.7875c0.5625,-0.225 1.2375,-0.3375 1.9125,-0.3375c0.675,0 1.35,0.1125 1.9125,0.3375c0.5625,0.225 1.0125,0.45 1.4625,0.7875c0.45,0.3375 0.675,0.7875 0.9,1.35c0.225,0.5625 0.3375,1.125 0.3375,1.6875c0,1.0125 -0.225,2.025 -0.7875,3.0375c-0.5625,0.9 -1.4625,1.9125 -2.7,3.0375l-2.25,1.9125c-0.1125,0.1125 -0.225,0.225 -0.3375,0.225c-0.1125,0.1125 -0.225,0.1125 -0.3375,0.225c-0.1125,0.1125 -0.225,0.1125 -0.3375,0.225v0.1125c0.225,0 0.45,0 0.5625,0c0.225,0 0.3375,0 0.5625,0c0.225,0 0.45,0 0.5625,0h5.175v2.025h-9.45v-2.3625l4.275,-3.6c0.45,-0.45 0.9,-0.7875 1.2375,-1.2375c0.3375,-0.3375 0.675,-0.7875 0.9,-1.125c0.225,-0.3375 0.3375,-0.675 0.45,-1.125c0.1125,-0.3375 0.1125,-0.7875 0.1125,-1.125c0,-0.675 -0.225,-1.2375 -0.675,-1.6875c-0.45,-0.45 -1.0125,-0.5625 -1.6875,-0.5625c-0.7875,0 -1.35,0.225 -1.8,0.5625c-0.45,0.45 -0.675,0.9 -0.675,1.575h-2.1375z" fill="#ffffff" stroke-width="1"/><path d="M223.5625,196.21233v-32.42466h32.875v32.42466z" fill="none" stroke-width="0"/></g></g></svg>