<svg version="1.1" xmlns="http://www.w3.org/2000/svg" xmlns:xlink="http://www.w3.org/1999/xlink" width="32.875" height="32.42466" viewBox="0,0,32.875,32.42466"><g transform="translate(-223.5625,-163.78767)"><g data-paper-data="{&quot;isPaintingLayer&quot;:true}" fill-rule="nonzero" stroke="none" stroke-linecap="butt" stroke-linejoin="miter" stroke-miterlimit="10" stroke-dasharray="" stroke-dashoffset="0" style="mix-blend-mode: normal"><path d="M236.34375,172.74375h2.7c0.675,0 1.35,0.1125 1.9125,0.3375c0.5625,0.225 1.125,0.45 1.4625,0.7875c0.45,0.3375 0.7875,0.7875 0.9,1.35c0.225,0.5625 0.3375,1.125 0.3375,1.8c0,0.5625 -0.1125,1.125 -0.225,1.575c-0.225,0.45 -0.45,0.9 -0.7875,1.2375c-0.3375,0.3375 -0.7875,0.675 -1.2375,0.7875c-0.45,0.225 -1.0125,0.3375 -1.575,0.3375v1.9125h-2.025v-3.825h1.35c0.7875,0 1.35,-0.225 1.8,-0.5625c0.45,-0.3375 0.675,-0.9 0.675,-1.575c0,-0.675 -0.225,-1.2375 -0.675,-1.575c-0.45,-0.3375 -1.0125,-0.5625 -1.8,-0.5625h-2.8125zM237.13125,186.01875c0,-0.3375 0.1125,-0.675 0.3375,-0.9c0.225,-0.225 0.5625,-0.3375 1.0125,-0.3375h0.45c0.45,0 0.7875,0.1125 1.0125,0.3375c0.225,0.225 0.3375,0.5625 0.3375,0.9c0,0.3375 -0.1125,0.675 -0.3375,0.9c-0.225,0.225 -0.5625,0.3375 -1.0125,0.3375h-0.45c-0.45,0 -0.7875,-0.1125 -1.0125,-0.3375c-0.225,-0.225 -0.3375,-0.45 -0.3375,-0.9z" fill="#ffffff" stroke-width="1"/><path d="M223.5625,196.21233v-32.42466h32.875v32.42466z" fill="none" stroke-width="0"/></g></g></svg>