<svg version="1.1" xmlns="http://www.w3.org/2000/svg" xmlns:xlink="http://www.w3.org/1999/xlink" width="192.88878" height="25.81667" viewBox="0,0,192.88878,25.81667"><g transform="translate(-143.55561,-167.09167)"><g data-paper-data="{&quot;isPaintingLayer&quot;:true}" fill-rule="nonzero" stroke-linejoin="miter" stroke-miterlimit="10" stroke-dasharray="" stroke-dashoffset="0" style="mix-blend-mode: normal"><path d="M336.44439,167.09168c0,0 0,18.39113 0,22.53923c0,1.58179 -0.98336,3.27744 -2.80874,3.27744c-22.46106,0 -172.41155,0 -186.50824,0c-2.09362,0 -3.5718,-1.69565 -3.5718,-3.27744c0,-4.1481 0,-22.53923 0,-22.53923z" data-paper-data="{&quot;index&quot;:null}" fill-opacity="0.70196" fill="#ff4242" stroke="none" stroke-width="0" stroke-linecap="butt"/><g fill="#ffffff" stroke-linecap="butt"><text transform="translate(175.9059,184.88196) scale(0.40683,0.40683)" font-size="40" xml:space="preserve" data-paper-data="{&quot;index&quot;:null}" fill="#ffffff" fill-rule="nonzero" stroke="#ffffff" stroke-width="1" stroke-linecap="butt" stroke-linejoin="miter" stroke-miterlimit="10" stroke-dasharray="" stroke-dashoffset="0" font-family="Sans Serif" font-weight="normal" text-anchor="start" style="mix-blend-mode: normal"><tspan x="0" dy="0">您已被禁止恢复记忆</tspan></text><path d="M157.6353,179.57641c0,-4.59715 3.72673,-8.32388 8.32388,-8.32388c4.59715,0 8.32387,3.72673 8.32387,8.32388c0,4.59715 -3.72672,8.32387 -8.32387,8.32387c-4.59715,0 -8.32388,-3.72672 -8.32388,-8.32387z" stroke="none" stroke-width="0.5"/></g><path d="M168.25345,182.9229l1.49774,1.93825c0,0 -0.87546,-1.1256 -1.57975,-2.0311c-1.42172,-1.82792 -6.43756,-8.27687 -6.43756,-8.27687l1.58584,2.02635" fill="none" stroke-opacity="0.70196" stroke="#ff4242" stroke-width="2" stroke-linecap="round"/><path d="M168.38735,176.63958l1.58584,-2.02635c0,0 -5.01585,6.44894 -6.43757,8.27686c-0.70428,0.9055 -1.57975,2.0311 -1.57975,2.0311l1.49774,-1.93825" data-paper-data="{&quot;index&quot;:null}" fill="none" stroke-opacity="0.70196" stroke="#ff4242" stroke-width="2" stroke-linecap="round"/></g></g></svg>