<svg version="1.1" xmlns="http://www.w3.org/2000/svg" xmlns:xlink="http://www.w3.org/1999/xlink" width="32.875" height="32.42466" viewBox="0,0,32.875,32.42466"><g transform="translate(-223.5625,-163.78767)"><g data-paper-data="{&quot;isPaintingLayer&quot;:true}" fill-rule="nonzero" stroke="none" stroke-linecap="butt" stroke-linejoin="miter" stroke-miterlimit="10" stroke-dasharray="" stroke-dashoffset="0" style="mix-blend-mode: normal"><path d="M238.425,172.74375h3.0375l3.825,14.5125h-2.25l-0.9,-3.825h-4.275l-0.9,3.825h-2.25zM241.575,181.63125l-1.35,-5.4c-0.1125,-0.225 -0.1125,-0.45 -0.1125,-0.7875c0,-0.225 -0.1125,-0.45 -0.1125,-0.675c0,-0.225 0,-0.45 -0.1125,-0.5625h-0.1125c0,0.225 -0.1125,0.3375 -0.1125,0.5625c0,0.225 -0.1125,0.45 -0.1125,0.675c0,0.225 -0.1125,0.45 -0.225,0.7875l-1.35,5.4z" fill="#ffffff" stroke-width="1"/><path d="M223.5625,196.21233v-32.42466h32.875v32.42466z" fill="none" stroke-width="0"/></g></g></svg>