<svg version="1.1" xmlns="http://www.w3.org/2000/svg" xmlns:xlink="http://www.w3.org/1999/xlink" width="32.875" height="32.42466" viewBox="0,0,32.875,32.42466"><g transform="translate(-223.5625,-163.78767)"><g data-paper-data="{&quot;isPaintingLayer&quot;:true}" fill-rule="nonzero" stroke="none" stroke-linecap="butt" stroke-linejoin="miter" stroke-miterlimit="10" stroke-dasharray="" stroke-dashoffset="0" style="mix-blend-mode: normal"><path d="M235.21875,183.43125h2.25c0,0.675 0.225,1.125 0.675,1.4625c0.45,0.3375 1.0125,0.5625 1.8,0.5625c0.7875,0 1.4625,-0.225 1.9125,-0.5625c0.45,-0.3375 0.675,-0.7875 0.675,-1.4625c0,-0.5625 -0.1125,-1.0125 -0.45,-1.35c-0.3375,-0.45 -0.7875,-0.675 -1.35,-0.9l-1.6875,-0.5625c-1.125,-0.3375 -2.025,-0.9 -2.7,-1.575c-0.5625,-0.675 -0.9,-1.575 -0.9,-2.5875c0,-0.5625 0.1125,-1.125 0.3375,-1.575c0.225,-0.45 0.5625,-0.9 0.9,-1.2375c0.45,-0.3375 0.9,-0.5625 1.4625,-0.7875c0.5625,-0.225 1.125,-0.225 1.9125,-0.225c0.675,0 1.2375,0.1125 1.8,0.225c0.5625,0.225 1.0125,0.45 1.4625,0.7875c0.3375,0.3375 0.675,0.7875 0.9,1.2375c0.225,0.45 0.3375,1.0125 0.3375,1.575h-2.25c0,-0.5625 -0.225,-1.125 -0.675,-1.4625c-0.45,-0.3375 -1.0125,-0.5625 -1.6875,-0.5625c-0.675,0 -1.2375,0.225 -1.6875,0.5625c-0.45,0.3375 -0.5625,0.7875 -0.5625,1.4625c0,0.45 0.1125,0.9 0.45,1.2375c0.3375,0.3375 0.7875,0.675 1.4625,0.7875l1.6875,0.5625c1.125,0.3375 1.9125,0.9 2.5875,1.575c0.5625,0.7875 0.9,1.6875 0.9,2.7c0,0.5625 -0.1125,1.125 -0.3375,1.6875c-0.225,0.45 -0.5625,0.9 -0.9,1.2375c-0.45,0.3375 -0.9,0.675 -1.4625,0.7875c-0.5625,0.225 -1.2375,0.3375 -2.025,0.3375c-0.675,0 -1.35,-0.1125 -1.9125,-0.225c-0.5625,-0.1125 -1.125,-0.45 -1.4625,-0.7875c-0.45,-0.3375 -0.7875,-0.7875 -1.0125,-1.2375c-0.3375,-0.5625 -0.45,-1.125 -0.45,-1.6875z" fill="#ffffff" stroke-width="1"/><path d="M223.5625,196.21233v-32.42466h32.875v32.42466z" fill="none" stroke-width="0"/></g></g></svg>