<svg version="1.1" xmlns="http://www.w3.org/2000/svg" xmlns:xlink="http://www.w3.org/1999/xlink" width="648.98442" height="1090.06079" viewBox="0,0,648.98442,1090.06079"><defs><linearGradient x1="240.00002" y1="-9.5" x2="240.00002" y2="369.5" gradientUnits="userSpaceOnUse" id="color-1"><stop offset="0" stop-color="#000000"/><stop offset="1" stop-color="#3f3f3f"/></linearGradient><radialGradient cx="239.50002" cy="550.43711" r="244.5" gradientUnits="userSpaceOnUse" id="color-2"><stop offset="0" stop-color="#ffffff"/><stop offset="1" stop-color="#c6c6c6"/></radialGradient><radialGradient cx="239.74223" cy="565.21488" r="299.74221" gradientUnits="userSpaceOnUse" id="color-3"><stop offset="0" stop-color="#ffffff"/><stop offset="1" stop-color="#ffffff" stop-opacity="0"/></radialGradient></defs><g transform="translate(84.74999,220.65882)"><g data-paper-data="{&quot;isPaintingLayer&quot;:true}" fill-rule="nonzero" stroke-linecap="butt" stroke-linejoin="miter" stroke-miterlimit="10" stroke-dasharray="" stroke-dashoffset="0" style="mix-blend-mode: normal"><path d="M-11.49999,369.5v-379h503v379z" data-paper-data="{&quot;index&quot;:null}" fill="url(#color-1)" stroke="none" stroke-width="0"/><path d="M484.00002,550.4371c0,125.88618 -109.46638,227.9371 -244.5,227.9371c-135.03362,0 -244.5,-102.05092 -244.5,-227.9371c0,-125.88618 109.46638,-227.93709 244.5,-227.93709c135.03362,0 244.5,102.05092 244.5,227.9371z" fill="none" stroke="url(#color-2)" stroke-width="34.5"/><path d="M507.66672,564.72957c0,138.24311 -120.21155,250.31129 -268.5,250.31129c-148.28845,0 -268.5,-112.06818 -268.5,-250.31129c0,-138.24311 120.21155,-250.31129 268.5,-250.31129c148.28845,0 268.5,112.06818 268.5,250.31129z" fill="none" stroke-opacity="0.25098" stroke="#ffffff" stroke-width="34.5"/><path d="M484.00002,546.4371c0,125.88618 -109.46638,227.9371 -244.5,227.9371c-135.03362,0 -244.5,-102.05092 -244.5,-227.9371c0,-125.88618 109.46638,-227.93709 244.5,-227.93709c135.03362,0 244.5,102.05092 244.5,227.9371z" fill="none" stroke="#c7c7c7" stroke-width="34.5"/><path d="M539.48443,565.21487c0,154.32884 -134.19916,279.4371 -299.74221,279.4371c-165.54305,0 -299.74221,-125.10826 -299.74221,-279.4371c0,-154.32884 134.19916,-279.43709 299.74221,-279.43709c165.54305,0 299.74221,125.10826 299.74221,279.4371z" fill="none" stroke="url(#color-3)" stroke-width="49.5"/><path d="M43.58335,24.5c0,-1.38071 1.11929,-2.5 2.5,-2.5c1.38071,0 2.5,1.11929 2.5,2.5c0,1.38071 -1.11929,2.5 -2.5,2.5c-1.38071,0 -2.5,-1.11929 -2.5,-2.5z" fill-opacity="0.58824" fill="#a5a5a5" stroke="none" stroke-width="0.5"/><path d="M60.58335,51.5c0,-1.38071 1.11929,-2.5 2.5,-2.5c1.38071,0 2.5,1.11929 2.5,2.5c0,1.38071 -1.11929,2.5 -2.5,2.5c-1.38071,0 -2.5,-1.11929 -2.5,-2.5z" fill-opacity="0.58824" fill="#a5a5a5" stroke="none" stroke-width="0.5"/><path d="M184.58337,48.5c0,-1.38071 1.11929,-2.5 2.5,-2.5c1.38071,0 2.5,1.11929 2.5,2.5c0,1.38071 -1.11929,2.5 -2.5,2.5c-1.38071,0 -2.5,-1.11929 -2.5,-2.5z" fill-opacity="0.3451" fill="#a6a6a6" stroke="none" stroke-width="0.5"/><path d="M203.58337,30.5c0,-1.38071 1.11929,-2.5 2.5,-2.5c1.38071,0 2.5,1.11929 2.5,2.5c0,1.38071 -1.11929,2.5 -2.5,2.5c-1.38071,0 -2.5,-1.11929 -2.5,-2.5z" fill="#a6a6a6" stroke="none" stroke-width="0.5"/><path d="M269.58333,42.5c0,-1.38071 1.11929,-2.5 2.5,-2.5c1.38071,0 2.5,1.11929 2.5,2.5c0,1.38071 -1.11929,2.5 -2.5,2.5c-1.38071,0 -2.5,-1.11929 -2.5,-2.5z" fill-opacity="0.58824" fill="#a5a5a5" stroke="none" stroke-width="0.5"/><path d="M315.58333,106.5c0,-1.38071 1.11929,-2.5 2.5,-2.5c1.38071,0 2.5,1.11929 2.5,2.5c0,1.38071 -1.11929,2.5 -2.5,2.5c-1.38071,0 -2.5,-1.11929 -2.5,-2.5z" fill-opacity="0.58824" fill="#5c5c5c" stroke="none" stroke-width="0.5"/><path d="M349.58337,51.5c0,-1.38071 1.11929,-2.5 2.5,-2.5c1.38071,0 2.5,1.11929 2.5,2.5c0,1.38071 -1.11929,2.5 -2.5,2.5c-1.38071,0 -2.5,-1.11929 -2.5,-2.5z" fill-opacity="0.58824" fill="#a5a5a5" stroke="none" stroke-width="0.5"/><path d="M445.58337,56.5c0,-1.38071 1.11929,-2.5 2.5,-2.5c1.38071,0 2.5,1.11929 2.5,2.5c0,1.38071 -1.11929,2.5 -2.5,2.5c-1.38071,0 -2.5,-1.11929 -2.5,-2.5z" fill-opacity="0.58824" fill="#a5a5a5" stroke="none" stroke-width="0.5"/><path d="M432.58337,88.5c0,-1.38071 1.11929,-2.5 2.5,-2.5c1.38071,0 2.5,1.11929 2.5,2.5c0,1.38071 -1.11929,2.5 -2.5,2.5c-1.38071,0 -2.5,-1.11929 -2.5,-2.5z" fill-opacity="0.58824" fill="#a5a5a5" stroke="none" stroke-width="0.5"/><path d="M382.58337,96.5c0,-1.38071 1.11929,-2.5 2.5,-2.5c1.38071,0 2.5,1.11929 2.5,2.5c0,1.38071 -1.11929,2.5 -2.5,2.5c-1.38071,0 -2.5,-1.11929 -2.5,-2.5z" fill-opacity="0.58824" fill="#fefefe" stroke="none" stroke-width="0.5"/><path d="M174.58337,120.5c0,-1.38071 1.11929,-2.5 2.5,-2.5c1.38071,0 2.5,1.11929 2.5,2.5c0,1.38071 -1.11929,2.5 -2.5,2.5c-1.38071,0 -2.5,-1.11929 -2.5,-2.5z" fill-opacity="0.58824" fill="#a5a5a5" stroke="none" stroke-width="0.5"/><path d="M99.58336,94.5c0,-1.38071 1.11929,-2.5 2.5,-2.5c1.38071,0 2.5,1.11929 2.5,2.5c0,1.38071 -1.11929,2.5 -2.5,2.5c-1.38071,0 -2.5,-1.11929 -2.5,-2.5z" fill-opacity="0.36078" fill="#a6a6a6" stroke="none" stroke-width="0.5"/><path d="M44.58335,84.5c0,-1.38071 1.11929,-2.5 2.5,-2.5c1.38071,0 2.5,1.11929 2.5,2.5c0,1.38071 -1.11929,2.5 -2.5,2.5c-1.38071,0 -2.5,-1.11929 -2.5,-2.5z" fill-opacity="0.58824" fill="#a5a5a5" stroke="none" stroke-width="0.5"/><path d="M146.58335,69.5c0,-1.38071 1.11929,-2.5 2.5,-2.5c1.38071,0 2.5,1.11929 2.5,2.5c0,1.38071 -1.11929,2.5 -2.5,2.5c-1.38071,0 -2.5,-1.11929 -2.5,-2.5z" fill-opacity="0.58824" fill="#d5d5d5" stroke="none" stroke-width="0.5"/><path d="M156.58335,37.5c0,-1.38071 1.11929,-2.5 2.5,-2.5c1.38071,0 2.5,1.11929 2.5,2.5c0,1.38071 -1.11929,2.5 -2.5,2.5c-1.38071,0 -2.5,-1.11929 -2.5,-2.5z" fill-opacity="0.58824" fill="#a5a5a5" stroke="none" stroke-width="0.5"/><path d="M186.58337,68.5c0,-1.38071 1.11929,-2.5 2.5,-2.5c1.38071,0 2.5,1.11929 2.5,2.5c0,1.38071 -1.11929,2.5 -2.5,2.5c-1.38071,0 -2.5,-1.11929 -2.5,-2.5z" fill-opacity="0.58824" fill="#a5a5a5" stroke="none" stroke-width="0.5"/><path d="M295.58333,13.5c0,-1.38071 1.11929,-2.5 2.5,-2.5c1.38071,0 2.5,1.11929 2.5,2.5c0,1.38071 -1.11929,2.5 -2.5,2.5c-1.38071,0 -2.5,-1.11929 -2.5,-2.5z" fill-opacity="0.58824" fill="#a5a5a5" stroke="none" stroke-width="0.5"/><path d="M306.58333,69.5c0,-1.38071 1.11929,-2.5 2.5,-2.5c1.38071,0 2.5,1.11929 2.5,2.5c0,1.38071 -1.11929,2.5 -2.5,2.5c-1.38071,0 -2.5,-1.11929 -2.5,-2.5z" fill-opacity="0.58824" fill="#a5a5a5" stroke="none" stroke-width="0.5"/><path d="M349.58337,104.5c0,-1.38071 1.11929,-2.5 2.5,-2.5c1.38071,0 2.5,1.11929 2.5,2.5c0,1.38071 -1.11929,2.5 -2.5,2.5c-1.38071,0 -2.5,-1.11929 -2.5,-2.5z" fill-opacity="0.58824" fill="#a5a5a5" stroke="none" stroke-width="0.5"/><path d="M384.58337,77.5c0,-1.38071 1.11929,-2.5 2.5,-2.5c1.38071,0 2.5,1.11929 2.5,2.5c0,1.38071 -1.11929,2.5 -2.5,2.5c-1.38071,0 -2.5,-1.11929 -2.5,-2.5z" fill-opacity="0.58824" fill="#a5a5a5" stroke="none" stroke-width="0.5"/><path d="M414.58337,45.5c0,-1.38071 1.11929,-2.5 2.5,-2.5c1.38071,0 2.5,1.11929 2.5,2.5c0,1.38071 -1.11929,2.5 -2.5,2.5c-1.38071,0 -2.5,-1.11929 -2.5,-2.5z" fill-opacity="0.58824" fill="#a5a5a5" stroke="none" stroke-width="0.5"/><path d="M440.58337,9.5c0,-1.38071 1.11929,-2.5 2.5,-2.5c1.38071,0 2.5,1.11929 2.5,2.5c0,1.38071 -1.11929,2.5 -2.5,2.5c-1.38071,0 -2.5,-1.11929 -2.5,-2.5z" fill-opacity="0.58824" fill="#a5a5a5" stroke="none" stroke-width="0.5"/><path d="M242.58337,80.5c0,-1.38071 1.11929,-2.5 2.5,-2.5c1.38071,0 2.5,1.11929 2.5,2.5c0,1.38071 -1.11929,2.5 -2.5,2.5c-1.38071,0 -2.5,-1.11929 -2.5,-2.5z" fill-opacity="0.58824" fill="#f8f8f8" stroke="none" stroke-width="0.5"/><path d="M95.58336,40.5c0,-1.38071 1.11929,-2.5 2.5,-2.5c1.38071,0 2.5,1.11929 2.5,2.5c0,1.38071 -1.11929,2.5 -2.5,2.5c-1.38071,0 -2.5,-1.11929 -2.5,-2.5z" fill-opacity="0.58824" fill="#a5a5a5" stroke="none" stroke-width="0.5"/><path d="M13.58335,42.5c0,-1.38071 1.11929,-2.5 2.5,-2.5c1.38071,0 2.5,1.11929 2.5,2.5c0,1.38071 -1.11929,2.5 -2.5,2.5c-1.38071,0 -2.5,-1.11929 -2.5,-2.5z" fill-opacity="0.58824" fill="#a5a5a5" stroke="none" stroke-width="0.5"/><path d="M12.58335,51.5c0,-1.38071 1.11929,-2.5 2.5,-2.5c1.38071,0 2.5,1.11929 2.5,2.5c0,1.38071 -1.11929,2.5 -2.5,2.5c-1.38071,0 -2.5,-1.11929 -2.5,-2.5z" fill-opacity="0.58824" fill="#a5a5a5" stroke="none" stroke-width="0.5"/><path d="M449.58337,113.5c0,-1.38071 1.11929,-2.5 2.5,-2.5c1.38071,0 2.5,1.11929 2.5,2.5c0,1.38071 -1.11929,2.5 -2.5,2.5c-1.38071,0 -2.5,-1.11929 -2.5,-2.5z" fill-opacity="0.58824" fill="#a5a5a5" stroke="none" stroke-width="0.5"/><path d="M455.58337,90.5c0,-1.38071 1.11929,-2.5 2.5,-2.5c1.38071,0 2.5,1.11929 2.5,2.5c0,1.38071 -1.11929,2.5 -2.5,2.5c-1.38071,0 -2.5,-1.11929 -2.5,-2.5z" fill-opacity="0.58824" fill="#a5a5a5" stroke="none" stroke-width="0.5"/><path d="M522.91063,-159.65882c-36.20291,112.33472 -146.3549,195.74235 -278.83615,199.38063c-133.94763,3.67855 -249.57886,-75.31779 -290.73706,-187.44713" data-paper-data="{&quot;index&quot;:null}" fill="none" stroke-opacity="0.08235" stroke="#616161" stroke-width="50"/><path d="M519.91063,-195.65882c-36.20291,112.33471 -146.3549,195.74235 -278.83614,199.38063c-133.94763,3.67855 -249.57886,-75.31779 -290.73706,-187.44713" data-paper-data="{&quot;index&quot;:null}" fill="none" stroke-opacity="0.08235" stroke="#616161" stroke-width="50"/><text transform="translate(28.9625,44.59913) scale(0.6113,0.6113)" font-size="40" xml:space="preserve" fill="#ffffff" fill-rule="nonzero" stroke="#ffffff" stroke-width="2" stroke-linecap="butt" stroke-linejoin="miter" stroke-miterlimit="10" stroke-dasharray="" stroke-dashoffset="0" font-family="Sans Serif" font-weight="normal" text-anchor="start" style="mix-blend-mode: normal"><tspan x="0" dy="0">章节选择</tspan></text></g></g></svg>