<svg version="1.1" xmlns="http://www.w3.org/2000/svg" xmlns:xlink="http://www.w3.org/1999/xlink" width="521" height="406" viewBox="0,0,521,406"><g transform="translate(20.5,23)"><g data-paper-data="{&quot;isPaintingLayer&quot;:true}" fill-rule="nonzero" stroke-linecap="butt" stroke-linejoin="miter" stroke-miterlimit="10" stroke-dasharray="" stroke-dashoffset="0" style="mix-blend-mode: normal"><path d="M-20.5,383v-406h521v406z" fill-opacity="0.71765" fill="#000000" stroke="none" stroke-width="NaN"/><text transform="translate(164.35427,149.76875) scale(0.58667,0.58667)" font-size="40" xml:space="preserve" fill="#ffffff" fill-rule="nonzero" stroke="#ffffff" stroke-width="1" stroke-linecap="butt" stroke-linejoin="miter" stroke-miterlimit="10" stroke-dasharray="" stroke-dashoffset="0" font-family="Sans Serif" font-weight="normal" text-anchor="start" style="mix-blend-mode: normal"><tspan x="0" dy="0">进入新手教程?</tspan></text><path d="M210.33333,188.81818c0,-4.51054 0,-15.87399 0,-18.09091c0,-0.73497 0.76013,-1.39394 1.75758,-1.39394c5.09704,0 46.98817,0 55.90909,0c1.07088,0 1.66667,0.90635 1.66667,1.84848c0,2.40882 0,13.10729 0,17.54545c0,1.19763 -0.86216,1.93939 -1.66667,1.93939c-4.60357,0 -46.46336,0 -55.81818,0c-1.18505,0 -1.84848,-0.70342 -1.84848,-1.84848z" fill="#ffffff" stroke="#ffffff" stroke-width="0.5"/><text transform="translate(233.29361,183.86875) scale(0.33532,0.33532)" font-size="40" xml:space="preserve" fill="#000000" fill-rule="nonzero" stroke="#000000" stroke-width="1" stroke-linecap="butt" stroke-linejoin="miter" stroke-miterlimit="10" stroke-dasharray="" stroke-dashoffset="0" font-family="Sans Serif" font-weight="normal" text-anchor="start" style="mix-blend-mode: normal"><tspan x="0" dy="0">是</tspan></text><path d="M210.33334,219.56818c0,-4.51054 0,-15.87399 0,-18.09091c0,-0.73496 0.76013,-1.39394 1.75758,-1.39394c5.09704,0 46.98816,0 55.90909,0c1.07088,0 1.66667,0.90634 1.66667,1.84848c0,2.40882 0,13.10729 0,17.54546c0,1.19763 -0.86216,1.93939 -1.66667,1.93939c-4.60357,0 -46.46336,0 -55.81818,0c-1.18505,0 -1.84848,-0.70341 -1.84848,-1.84848z" fill="#ffffff" stroke="#ffffff" stroke-width="0.5"/><text transform="translate(233.79361,215.11875) scale(0.33532,0.33532)" font-size="40" xml:space="preserve" fill="#000000" fill-rule="nonzero" stroke="#000000" stroke-width="1" stroke-linecap="butt" stroke-linejoin="miter" stroke-miterlimit="10" stroke-dasharray="" stroke-dashoffset="0" font-family="Sans Serif" font-weight="normal" text-anchor="start" style="mix-blend-mode: normal"><tspan x="0" dy="0">否</tspan></text></g></g></svg>