<svg version="1.1" xmlns="http://www.w3.org/2000/svg" xmlns:xlink="http://www.w3.org/1999/xlink" width="89.10717" height="89.10717" viewBox="0,0,89.10717,89.10717"><defs><radialGradient cx="240.00002" cy="180" r="22.29995" gradientUnits="userSpaceOnUse" id="color-1"><stop offset="0" stop-color="#3dabff"/><stop offset="1" stop-color="#3dabff" stop-opacity="0"/></radialGradient></defs><g transform="translate(-195.4465,-135.44645)"><g data-paper-data="{&quot;isPaintingLayer&quot;:true}" fill-rule="nonzero" stroke-linejoin="miter" stroke-miterlimit="10" stroke-dasharray="" stroke-dashoffset="0" style="mix-blend-mode: normal"><path d="M195.4465,224.55362v-89.10717h89.10717v89.10717z" fill="none" stroke="none" stroke-width="0" stroke-linecap="butt"/><g><path d="M262.29997,179.95658l-44.5999,0.08684" fill="none" stroke="url(#color-1)" stroke-width="13" stroke-linecap="round"/><path d="M221.38427,180.34401c0,-1.18889 2.11231,-3.75651 4.05854,-3.75651c4.20134,0 20.37558,0 28.48337,0c2.83946,0 4.68957,2.2179 4.68957,3.34371c0,1.14874 -1.73103,3.48129 -4.41437,3.48129c-8.00059,0 -24.46702,0 -28.75857,0c-2.00455,0 -4.05854,-1.99397 -4.05854,-3.06849z" fill="#ffffff" stroke="#3dabff" stroke-width="3" stroke-linecap="butt"/><path d="M219.26581,184.79168c0,0 -3.73743,-3.33494 -4.63654,-4.13722c-0.3688,-0.32909 -0.24299,-1.03967 0.03895,-1.29518c0.81578,-0.7393 4.51425,-4.23427 4.51425,-4.23427" fill="#ffffff" stroke="#3dabff" stroke-width="3" stroke-linecap="round"/><path d="M260.94255,175.20834c0,0 3.69847,3.49497 4.51425,4.23427c0.28195,0.25551 0.40776,0.96609 0.03895,1.29518c-0.8991,0.80228 -4.63653,4.13721 -4.63653,4.13721" data-paper-data="{&quot;index&quot;:null}" fill="#ffffff" stroke="#3dabff" stroke-width="3" stroke-linecap="round"/></g></g></g></svg>