<svg version="1.1" xmlns="http://www.w3.org/2000/svg" xmlns:xlink="http://www.w3.org/1999/xlink" width="32.875" height="32.42466" viewBox="0,0,32.875,32.42466"><g transform="translate(-223.5625,-163.78767)"><g data-paper-data="{&quot;isPaintingLayer&quot;:true}" fill-rule="nonzero" stroke="none" stroke-linecap="butt" stroke-linejoin="miter" stroke-miterlimit="10" stroke-dasharray="" stroke-dashoffset="0" style="mix-blend-mode: normal"><path d="M234.43125,172.74375h1.9125l0.9,10.2375c0,0.225 0,0.5625 0.1125,0.9c0,0.3375 0,0.675 0,0.9c0,0.3375 0,0.675 0,1.0125h0.225c0,-0.3375 0,-0.675 0,-1.0125c0,-0.225 0,-0.5625 0.1125,-0.9c0,-0.3375 0,-0.675 0.1125,-0.9l1.2375,-10.2375h1.9125l1.2375,10.2375c0,0.225 0,0.5625 0.1125,0.9c0,0.3375 0,0.675 0.1125,0.9c0,0.3375 0,0.675 0.1125,1.0125h0.225c0,-0.3375 0,-0.675 0,-1.0125c0,-0.225 0,-0.5625 0,-0.9c0,-0.3375 0,-0.675 0.1125,-0.9l0.7875,-10.2375h1.9125l-1.4625,14.5125h-2.7l-1.125,-10.2375c0,-0.3375 -0.1125,-0.675 -0.1125,-1.0125c0,-0.3375 0,-0.675 0,-0.9c0,-0.3375 0,-0.675 0,-0.9h-0.3375c0,0.225 0,0.5625 0,0.9c0,0.225 0,0.5625 0,0.9c0,0.3375 0,0.675 -0.1125,1.0125l-1.2375,10.2375h-2.7z" fill="#ffffff" stroke-width="1"/><path d="M223.5625,196.21233v-32.42466h32.875v32.42466z" fill="none" stroke-width="0"/></g></g></svg>