<svg version="1.1" xmlns="http://www.w3.org/2000/svg" xmlns:xlink="http://www.w3.org/1999/xlink" width="32.875" height="32.42466" viewBox="0,0,32.875,32.42466"><g transform="translate(-223.5625,-163.78767)"><g data-paper-data="{&quot;isPaintingLayer&quot;:true}" fill-rule="nonzero" stroke="none" stroke-linecap="butt" stroke-linejoin="miter" stroke-miterlimit="10" stroke-dasharray="" stroke-dashoffset="0" style="mix-blend-mode: normal"><path d="M239.94375,187.3125c-1.4625,0 -2.475,-0.3375 -3.2625,-1.125c-0.7875,-0.7875 -1.125,-1.8 -1.125,-3.15v-10.35h2.25v10.35c0,0.7875 0.225,1.35 0.5625,1.8c0.3375,0.45 0.9,0.675 1.6875,0.675c0.675,0 1.2375,-0.225 1.6875,-0.675c0.45,-0.45 0.5625,-1.0125 0.5625,-1.8v-10.35h2.1375v10.35c0,1.35 -0.3375,2.3625 -1.125,3.15c-0.9,0.7875 -2.025,1.125 -3.375,1.125z" fill="#ffffff" stroke-width="1"/><path d="M223.5625,196.21233v-32.42466h32.875v32.42466z" fill="none" stroke-width="0"/></g></g></svg>