<svg version="1.1" xmlns="http://www.w3.org/2000/svg" xmlns:xlink="http://www.w3.org/1999/xlink" width="425.88475" height="91.11118" viewBox="0,0,425.88475,91.11118"><g transform="translate(-27.12544,-119.28563)"><g data-paper-data="{&quot;isPaintingLayer&quot;:true}" fill-rule="nonzero" stroke="none" stroke-width="1" stroke-linecap="butt" stroke-linejoin="miter" stroke-miterlimit="10" stroke-dasharray="" stroke-dashoffset="0" style="mix-blend-mode: normal"><g data-paper-data="{&quot;index&quot;:null}" fill="#ffffff" opacity="0.5"><path d="M453.0102,176.95797z"/><path d=""/><path d="M452.92462,183.03777z"/><path d="M176.16585,149.68454l-27.31622,27.31623h-121.72418l27.31622,-27.27341z"/><path d="M206.6504,119.28564l-27.31622,27.31623h-121.68137l27.31623,-27.31623z"/><path d="M148.93523,183.08059l27.31622,27.31623h-121.68136l-27.31623,-27.31623z"/></g><g fill="#17499d"><path d="M55.36708,155.38619c0,-0.12844 0.04282,-0.25689 0.08563,-0.38533c0.04282,-0.12844 0.12844,-0.21408 0.21407,-0.29971c0.08563,-0.08563 0.17127,-0.17126 0.29971,-0.21408c0.12844,-0.04282 0.25689,-0.08563 0.38534,-0.08563h3.59649c0.12844,0 0.25689,0.04282 0.38534,0.08563c0.12844,0.04282 0.21408,0.12845 0.29971,0.21408c0.08563,0.08563 0.17126,0.17127 0.21407,0.29971c0.04282,0.12844 0.08563,0.25689 0.08563,0.38533v0.85631h-0.94194v-0.85631h-3.5965v4.75251h3.5965v-1.62698h-1.79825v-0.94194h2.74018v2.56892c0,0.12844 -0.04282,0.2569 -0.08563,0.38534c-0.04282,0.12844 -0.12844,0.21407 -0.21407,0.2997c-0.08563,0.08563 -0.17127,0.17127 -0.29971,0.21408c-0.12844,0.04281 -0.25689,0.08563 -0.38534,0.08563h-3.59649c-0.12844,0 -0.25689,-0.04282 -0.38534,-0.08563c-0.12844,-0.04281 -0.21408,-0.12845 -0.29971,-0.21408c-0.08563,-0.08563 -0.17126,-0.17126 -0.21407,-0.2997c-0.04282,-0.12844 -0.08563,-0.2569 -0.08563,-0.38534z" opacity="0.75"/><path d="M68.2545,160.0959c0,0.12844 -0.04281,0.2569 -0.08563,0.38534c-0.04282,0.12844 -0.12845,0.21407 -0.21408,0.2997c-0.08563,0.08563 -0.17126,0.17127 -0.29971,0.21408c-0.12844,0.04281 -0.25689,0.08563 -0.38534,0.08563h-3.81057c-0.12844,0 -0.25689,-0.04282 -0.38534,-0.08563c-0.12844,-0.04281 -0.21408,-0.12845 -0.29971,-0.21408c-0.08563,-0.08563 -0.17126,-0.17126 -0.21408,-0.2997c-0.04282,-0.12844 -0.08563,-0.2569 -0.08563,-0.38534v-4.75251c0,-0.12844 0.04282,-0.25689 0.08563,-0.38533c0.04282,-0.12844 0.12845,-0.21408 0.21408,-0.29971c0.08563,-0.08563 0.17126,-0.17126 0.29971,-0.21407c0.12844,-0.04282 0.25689,-0.08563 0.38534,-0.08563h3.81057c0.12844,0 0.25689,0.04282 0.38534,0.08563c0.12844,0.04282 0.21408,0.12844 0.29971,0.21407c0.08563,0.08563 0.17126,0.17127 0.21408,0.29971c0.04282,0.12844 0.08563,0.25689 0.08563,0.38533zM63.54486,155.38619v4.75251h3.81057v-4.75251z" opacity="0.75"/><path d="M75.6616,160.0959c0,0.12844 -0.04282,0.2569 -0.08563,0.38534c-0.04282,0.12844 -0.12845,0.21407 -0.21408,0.2997c-0.08563,0.08563 -0.17126,0.17127 -0.29971,0.21408c-0.12844,0.04281 -0.25689,0.08563 -0.38534,0.08563h-3.81057c-0.12844,0 -0.2569,-0.04282 -0.38534,-0.08563c-0.12844,-0.04281 -0.21407,-0.12845 -0.2997,-0.21408c-0.08563,-0.08563 -0.17127,-0.17126 -0.21408,-0.2997c-0.04282,-0.12844 -0.08563,-0.2569 -0.08563,-0.38534v-4.75251c0,-0.12844 0.04281,-0.25689 0.08563,-0.38533c0.04282,-0.12844 0.12845,-0.21408 0.21408,-0.29971c0.08563,-0.08563 0.17126,-0.17126 0.2997,-0.21407c0.12844,-0.04282 0.2569,-0.08563 0.38534,-0.08563h3.81057c0.12844,0 0.25689,0.04282 0.38534,0.08563c0.12844,0.04282 0.21408,0.12844 0.29971,0.21407c0.08563,0.08563 0.17126,0.17127 0.21408,0.29971c0.04282,0.12844 0.08563,0.25689 0.08563,0.38533zM70.90909,155.38619v4.75251h3.81057v-4.75251z" opacity="0.75"/><path d="M77.37417,161.08066v-6.63639h3.38242c0.34253,0 0.68505,0.04282 0.94194,0.17126c0.29971,0.12844 0.51378,0.2569 0.72786,0.47097c0.21407,0.21407 0.34253,0.42815 0.47097,0.72786c0.12844,0.29971 0.17127,0.59942 0.17127,0.94194v1.96951c0,0.34252 -0.04282,0.68505 -0.17127,0.94194c-0.12844,0.25689 -0.2569,0.51379 -0.47097,0.72787c-0.21407,0.21408 -0.42815,0.34252 -0.72786,0.47097c-0.29971,0.12844 -0.59941,0.17126 -0.94194,0.17126h-3.38242zM80.7138,160.0959c0.42816,0 0.77068,-0.12845 1.02757,-0.34252c0.25689,-0.21408 0.34253,-0.5566 0.34253,-1.02757v-1.96951c0,-0.21407 -0.04281,-0.42815 -0.08563,-0.59941c-0.04282,-0.17126 -0.17127,-0.29971 -0.2569,-0.42816c-0.08563,-0.12844 -0.25689,-0.21408 -0.42816,-0.2569c-0.17126,-0.04282 -0.34252,-0.08563 -0.59941,-0.08563h-2.44047v4.75251h2.44047z" opacity="0.75"/><path d="M84.48157,156.11408h1.3701v1.37009h-1.3701zM84.48157,159.66771h1.3701v1.37009h-1.3701z" opacity="0.75"/></g><g fill="#17499d"><path d="" opacity="0.75"/><path d="" opacity="0.75"/><path d="" opacity="0.75"/><path d="" opacity="0.75"/><path d=""/><path d=""/><path d=""/><path d=""/><path d=""/><path d=""/></g><g fill="#17499d"><path d="" opacity="0.75"/><path d=""/><path d=""/><path d=""/><path d=""/><path d=""/><path d=""/><path d=""/></g><g fill="#17499d"><path d="" opacity="0.75"/><path d="" opacity="0.75"/><path d="" opacity="0.75"/><path d=""/><path d=""/><path d=""/><path d=""/><path d=""/><path d=""/><path d=""/></g><g fill="#17499d"><path d="M47.08678,193.40519l-2.4833,-4.88095v4.88096h-0.94193v-6.63638h1.02757l2.52611,5.0094l2.52611,-5.0094h1.02757v6.63638h-0.94194v-4.88095l-2.48329,4.88096z" opacity="0.75"/><path d="M55.43578,186.76882l2.56892,6.63638h-0.94194l-0.59942,-1.54135h-2.99708l-0.59942,1.54135h-0.94194l2.56893,-6.63638zM53.8088,190.92194h2.26922l-1.1132,-2.91145z" opacity="0.75"/><path d="M59.76011,186.76882l1.75543,2.48329l1.79824,-2.48329h1.15602l-2.35485,3.29679l2.39767,3.3396h-1.15602l-1.84106,-2.56892l-1.79825,2.56892h-1.15602l2.39767,-3.3396l-2.35484,-3.29678z" opacity="0.75"/><path d="M68.45164,187.71071c0,-0.12844 0.04282,-0.2569 0.08563,-0.38534c0.04282,-0.12844 0.12845,-0.21407 0.21408,-0.2997c0.08563,-0.08563 0.17126,-0.17127 0.29971,-0.21408c0.12844,-0.04281 0.2569,-0.08563 0.38534,-0.08563h3.59649c0.12844,0 0.2569,0.04281 0.38534,0.08563c0.12844,0.04281 0.21408,0.12845 0.29971,0.21408c0.08563,0.08563 0.17126,0.17126 0.21408,0.2997c0.04282,0.12844 0.08563,0.2569 0.08563,0.38534v0.8563h-0.94194v-0.8563h-3.5965v4.75251h3.5965v-0.85631h0.94194v0.85631c0,0.12844 -0.04281,0.25689 -0.08563,0.38533c-0.04282,0.12844 -0.12845,0.21408 -0.21408,0.29971c-0.08563,0.08563 -0.17126,0.17126 -0.29971,0.21408c-0.12844,0.04281 -0.2569,0.08563 -0.38534,0.08563h-3.59649c-0.12844,0 -0.2569,-0.04282 -0.38534,-0.08563c-0.12844,-0.04281 -0.21408,-0.12844 -0.29971,-0.21408c-0.08563,-0.08563 -0.17126,-0.17126 -0.21408,-0.29971c-0.04282,-0.12844 -0.08563,-0.25689 -0.08563,-0.38533z" opacity="0.75"/><path d="M81.16784,192.46323c0,0.12844 -0.04282,0.25689 -0.08563,0.38533c-0.04282,0.12844 -0.12845,0.21408 -0.21408,0.29971c-0.08563,0.08563 -0.17126,0.17126 -0.29971,0.21408c-0.12844,0.04281 -0.2569,0.08563 -0.38534,0.08563h-3.81057c-0.12844,0 -0.2569,-0.04282 -0.38534,-0.08563c-0.12844,-0.04281 -0.21408,-0.12844 -0.29971,-0.21408c-0.08563,-0.08563 -0.17126,-0.17126 -0.21407,-0.29971c-0.04282,-0.12844 -0.08563,-0.25689 -0.08563,-0.38533v-4.75251c0,-0.12844 0.04281,-0.2569 0.08563,-0.38534c0.04282,-0.12844 0.12844,-0.21407 0.21407,-0.2997c0.08563,-0.08563 0.17127,-0.17127 0.29971,-0.21408c0.12844,-0.04281 0.2569,-0.08563 0.38534,-0.08563h3.81057c0.12844,0 0.2569,0.04281 0.38534,0.08563c0.12844,0.04281 0.21408,0.12845 0.29971,0.21408c0.08563,0.08563 0.17126,0.17126 0.21408,0.2997c0.04282,0.12844 0.08563,0.2569 0.08563,0.38534zM76.41533,187.71071v4.75251h3.81057v-4.75251z" opacity="0.75"/><path d="M86.30569,193.40519l-2.48329,-4.88095v4.88096h-0.94194v-6.63638h1.02757l2.52611,5.0094l2.52611,-5.0094h1.02757v6.63638h-0.94194v-4.88095l-2.48329,4.88096z" opacity="0.75"/><path d="M96.02477,189.93716c0.12844,0.04281 0.2569,0.08563 0.38534,0.17126c0.12844,0.08563 0.21408,0.17127 0.29971,0.29971c0.08563,0.12844 0.12844,0.2569 0.17126,0.42816c0.04282,0.17126 0.08563,0.38534 0.08563,0.59941v0.34252c0,1.07038 -0.5566,1.62698 -1.62699,1.62698h-3.63931v-6.63638h3.42524c1.07039,0 1.62699,0.5566 1.62699,1.62698v0.12844c0,0.38534 -0.04282,0.68505 -0.17127,0.89913c-0.12844,0.25689 -0.29971,0.42815 -0.5566,0.51378zM92.64237,187.71071v1.88387h2.56892c0.21407,0 0.38534,-0.08563 0.51378,-0.17126c0.08563,-0.12844 0.17126,-0.29971 0.17126,-0.51379v-0.42816c0,-0.25689 -0.04282,-0.42816 -0.17126,-0.5566c-0.12844,-0.12844 -0.29971,-0.17126 -0.5566,-0.17126h-2.52611zM92.64237,190.53656v1.96951h2.65456c0.25689,0 0.42815,-0.04282 0.5566,-0.17127c0.12844,-0.12844 0.17126,-0.29971 0.17126,-0.5566v-0.51378c0,-0.25689 -0.04282,-0.42816 -0.17126,-0.5566c-0.12844,-0.12844 -0.29971,-0.17126 -0.5566,-0.17126z" opacity="0.75"/><path d="M104.07408,192.46323c0,0.12844 -0.04281,0.25689 -0.08563,0.38533c-0.04282,0.12844 -0.12845,0.21408 -0.21408,0.29971c-0.08563,0.08563 -0.17126,0.17126 -0.29971,0.21408c-0.12844,0.04281 -0.25689,0.08563 -0.38534,0.08563h-3.81057c-0.12844,0 -0.25689,-0.04282 -0.38533,-0.08563c-0.12844,-0.04281 -0.21408,-0.12844 -0.29971,-0.21408c-0.08563,-0.08563 -0.17126,-0.17126 -0.21408,-0.29971c-0.04282,-0.12844 -0.08563,-0.25689 -0.08563,-0.38533v-4.75251c0,-0.12844 0.04281,-0.2569 0.08563,-0.38534c0.04282,-0.12844 0.12845,-0.21407 0.21408,-0.2997c0.08563,-0.08563 0.17126,-0.17127 0.29971,-0.21408c0.12844,-0.04281 0.25689,-0.08563 0.38533,-0.08563h3.81058c0.12844,0 0.25689,0.04281 0.38534,0.08563c0.12844,0.04281 0.21408,0.12845 0.29971,0.21408c0.08563,0.08563 0.17126,0.17126 0.21408,0.2997c0.04282,0.12844 0.08563,0.2569 0.08563,0.38534zM99.32157,187.71071v4.75251h3.81057v-4.75251z" opacity="0.75"/><path d="M106.47174,189.93716c0,0.25689 -0.17127,0.42816 -0.42816,0.42816c-0.25689,0 -0.42816,-0.17127 -0.42816,-0.42816c0,-0.25689 0.17127,-0.42816 0.42816,-0.42816c0.25689,0 0.42816,0.21408 0.42816,0.42816zM105.61543,193.1055c0,-0.25689 0.17127,-0.42816 0.42816,-0.42816c0.25689,0 0.42816,0.21408 0.42816,0.42816c0,0.25689 -0.17127,0.42816 -0.42816,0.42816c-0.25689,-0.04281 -0.42816,-0.21408 -0.42816,-0.42816z" opacity="0.75"/></g></g></g></svg>