<svg version="1.1" xmlns="http://www.w3.org/2000/svg" xmlns:xlink="http://www.w3.org/1999/xlink" width="32.875" height="32.42466" viewBox="0,0,32.875,32.42466"><g transform="translate(-223.5625,-163.78767)"><g data-paper-data="{&quot;isPaintingLayer&quot;:true}" fill-rule="nonzero" stroke="none" stroke-linecap="butt" stroke-linejoin="miter" stroke-miterlimit="10" stroke-dasharray="" stroke-dashoffset="0" style="mix-blend-mode: normal"><path d="M234.6,182.8125l10.8,-6.975v1.4625l-10.8,6.975zM234.7125,176.625v-1.2375c0,-0.7875 0.225,-1.4625 0.675,-1.9125c0.45,-0.45 1.125,-0.675 2.025,-0.675c0.9,0 1.575,0.225 2.025,0.675c0.45,0.45 0.675,1.125 0.675,1.9125v1.2375c0,0.7875 -0.225,1.4625 -0.675,1.9125c-0.45,0.45 -1.125,0.675 -2.025,0.675c-0.9,0 -1.575,-0.225 -2.025,-0.675c-0.45,-0.45 -0.675,-1.0125 -0.675,-1.9125zM236.175,176.625c0,0.45 0.1125,0.7875 0.3375,1.0125c0.225,0.225 0.5625,0.3375 0.9,0.3375c0.45,0 0.7875,-0.1125 0.9,-0.45c0.225,-0.225 0.3375,-0.5625 0.3375,-1.0125v-1.2375c0,-0.45 -0.1125,-0.7875 -0.3375,-1.0125c-0.225,-0.225 -0.5625,-0.3375 -0.9,-0.3375c-0.45,0 -0.675,0.1125 -0.9,0.3375c-0.225,0.225 -0.3375,0.5625 -0.3375,1.0125zM239.8875,183.375c0,-0.7875 0.225,-1.4625 0.675,-1.9125c0.45,-0.45 1.125,-0.675 2.025,-0.675c0.9,0 1.575,0.225 2.025,0.675c0.45,0.45 0.675,1.125 0.675,1.9125v1.2375c0,0.7875 -0.225,1.4625 -0.675,1.9125c-0.45,0.45 -1.125,0.675 -2.025,0.675c-0.9,0 -1.575,-0.225 -2.025,-0.675c-0.45,-0.45 -0.675,-1.125 -0.675,-1.9125zM241.35,183.375v1.2375c0,0.45 0.1125,0.7875 0.3375,1.0125c0.225,0.225 0.5625,0.3375 0.9,0.3375c0.45,0 0.7875,-0.1125 0.9,-0.45c0.225,-0.225 0.3375,-0.5625 0.3375,-1.0125v-1.2375c0,-0.45 -0.1125,-0.7875 -0.3375,-1.0125c-0.225,-0.225 -0.5625,-0.3375 -0.9,-0.3375c-0.3375,0 -0.675,0.1125 -0.9,0.3375c-0.225,0.3375 -0.3375,0.675 -0.3375,1.125z" fill="#ffffff" stroke-width="1"/><path d="M223.5625,196.21233v-32.42466h32.875v32.42466z" fill="none" stroke-width="0"/></g></g></svg>